<svg width="230" height="230" viewBox="0 0 230 230" fill="none" xmlns="http://www.w3.org/2000/svg">
<g clip-path="url(#clip0)">
<path d="M114.512 51.7432C81.8432 51.7432 55.2642 78.3222 55.2642 110.991C55.2642 124.361 59.6482 136.994 67.9362 147.518C69.5722 149.601 71.2912 151.595 73.1112 153.706L73.2112 153.822C78.7792 160.282 84.5362 166.964 86.6862 174.832C87.1722 176.635 87.2412 180.092 87.2132 182.755V187.281C87.2132 191.423 90.5712 194.781 94.7132 194.781H133.985C138.127 194.781 141.485 191.423 141.485 187.281V182.702C141.46 179.224 141.64 176.686 142.003 175.369C144.165 167.553 150.545 160.048 156.225 153.368L156.47 153.08C158.109 151.154 159.658 149.335 161.068 147.542C169.368 137.012 173.755 124.373 173.755 110.991C173.754 78.3222 147.178 51.7432 114.512 51.7432ZM149.281 138.264C148.046 139.835 146.59 141.546 145.048 143.357L144.746 143.712C138.111 151.516 130.591 160.361 127.543 171.379C127.112 172.943 126.633 175.283 126.511 179.781H102.199C102.095 175.004 101.608 172.554 101.163 170.904C98.1132 159.74 90.6062 151.029 84.5732 144.028L84.4722 143.91C82.7672 141.933 81.1572 140.065 79.7262 138.245C73.5362 130.385 70.2642 120.96 70.2642 110.991C70.2642 86.5932 90.1142 66.7432 114.512 66.7432C138.907 66.7432 158.754 86.5932 158.754 110.991C158.754 120.971 155.48 130.399 149.281 138.264Z" fill="white"/>
<path d="M133.984 196.91H94.7129C90.5709 196.91 87.2129 200.268 87.2129 204.41C87.2129 208.552 90.5709 211.91 94.7129 211.91H133.985C138.127 211.91 141.485 208.552 141.485 204.41C141.485 200.268 138.126 196.91 133.984 196.91Z" fill="white"/>
<path d="M124.166 214.018H104.531C100.389 214.018 97.0312 217.376 97.0312 221.518C97.0312 225.66 100.389 229.018 104.531 229.018H124.166C128.308 229.018 131.666 225.66 131.666 221.518C131.666 217.376 128.308 214.018 124.166 214.018Z" fill="white"/>
<path d="M218 103.491H192.127C187.985 103.491 184.627 106.849 184.627 110.991C184.627 115.133 187.985 118.491 192.127 118.491H218C222.142 118.491 225.5 115.133 225.5 110.991C225.5 106.849 222.142 103.491 218 103.491Z" fill="white"/>
<path d="M44.3941 110.991C44.3941 106.849 41.0361 103.491 36.8941 103.491H11.0181C6.87607 103.491 3.51807 106.849 3.51807 110.991C3.51807 115.133 6.87607 118.491 11.0181 118.491H36.8941C41.0361 118.491 44.3941 115.133 44.3941 110.991Z" fill="white"/>
<path d="M114.51 40.881C118.652 40.881 122.01 37.523 122.01 33.381V7.5C122.01 3.358 118.652 0 114.51 0C110.368 0 107.01 3.358 107.01 7.5V33.381C107.01 37.523 110.368 40.881 114.51 40.881Z" fill="white"/>
<path d="M174.693 160.569C171.764 157.64 167.016 157.639 164.086 160.568C161.157 163.497 161.156 168.245 164.085 171.175L182.381 189.476C183.846 190.941 185.765 191.673 187.685 191.673C189.604 191.673 191.523 190.941 192.988 189.477C195.917 186.548 195.918 181.8 192.989 178.87L174.693 160.569Z" fill="white"/>
<path d="M54.3173 61.4078C55.7823 62.8728 57.7013 63.6058 59.6213 63.6058C61.5403 63.6058 63.4593 62.8738 64.9233 61.4098C67.8533 58.4808 67.8533 53.7328 64.9253 50.8038L46.6363 32.5078C43.7073 29.5778 38.9593 29.5778 36.0303 32.5058C33.1003 35.4348 33.1003 40.1828 36.0283 43.1118L54.3173 61.4078Z" fill="white"/>
<path d="M54.3253 160.569L36.0283 178.87C33.0993 181.799 33.1003 186.548 36.0293 189.476C37.4933 190.94 39.4133 191.672 41.3323 191.672C43.2513 191.672 45.1713 190.94 46.6363 189.475L64.9333 171.174C67.8623 168.245 67.8613 163.496 64.9323 160.568C62.0033 157.64 57.2543 157.64 54.3253 160.569Z" fill="white"/>
<path d="M169.393 63.6052C171.312 63.6052 173.232 62.8732 174.697 61.4082L192.989 43.1132C195.918 40.1842 195.917 35.4352 192.988 32.5072C190.059 29.5782 185.31 29.5782 182.382 32.5082L164.09 50.8032C161.161 53.7322 161.162 58.4812 164.091 61.4092C165.554 62.8742 167.473 63.6052 169.393 63.6052Z" fill="white"/>
<path d="M101.671 123C101.671 123 105.484 123 105.484 119.182V84.818C105.484 81 101.671 81 101.671 81H88.3284C88.3284 81 84.5161 81 84.5161 84.818V119.182C84.5162 123 88.3284 123 88.3284 123H101.671ZM94.9999 121.41C93.9478 121.41 93.0938 120.556 93.0938 119.504C93.0938 118.452 93.9478 117.598 94.9999 117.598C96.0522 117.598 96.9061 118.452 96.9061 119.504C96.9061 120.556 96.0522 121.41 94.9999 121.41ZM92.1407 83.3274C92.1407 83.091 92.2532 82.9061 92.3942 82.9061H97.6056C97.7447 82.9061 97.8591 83.0949 97.8591 83.3274V83.4399C97.8591 83.6762 97.7447 83.8611 97.6056 83.8611H92.3942C92.255 83.8611 92.1407 83.6724 92.1407 83.4399V83.3274ZM86.4223 85.7654H103.578V116.264H86.4223V85.7654Z" fill="white"/>
<g clip-path="url(#clip1)">
<path d="M150.021 97.6459C149.368 96.9932 148.584 96.6665 147.667 96.6665H114.333C113.417 96.6665 112.632 96.9932 111.979 97.6459C111.326 98.2988 111 99.0833 111 100V122.667C111 123.584 111.326 124.368 111.979 125.021C112.632 125.674 113.417 126 114.333 126H125.667C125.667 126.528 125.556 127.07 125.333 127.625C125.111 128.181 124.889 128.666 124.667 129.083C124.445 129.5 124.334 129.805 124.334 129.999C124.334 130.361 124.465 130.674 124.729 130.937C124.993 131.201 125.306 131.334 125.667 131.334H136.334C136.695 131.334 137.007 131.201 137.271 130.937C137.535 130.674 137.667 130.361 137.667 129.999C137.667 129.819 137.556 129.517 137.333 129.094C137.111 128.67 136.889 128.177 136.667 127.615C136.445 127.052 136.334 126.514 136.334 126H147.667C148.584 126 149.368 125.674 150.021 125.021C150.674 124.368 151 123.584 151 122.667V100C151 99.0833 150.674 98.2988 150.021 97.6459ZM148.333 117.333C148.333 117.514 148.267 117.67 148.135 117.802C148.003 117.934 147.847 118 147.667 118H114.333C114.153 118 113.997 117.934 113.865 117.802C113.733 117.67 113.667 117.514 113.667 117.333V100C113.667 99.8194 113.733 99.6632 113.865 99.5313C113.997 99.3996 114.153 99.3334 114.333 99.3334H147.667C147.847 99.3334 148.004 99.3994 148.135 99.5313C148.267 99.6633 148.333 99.8195 148.333 100V117.333Z" fill="white"/>
</g>
<g clip-path="url(#clip2)">
<path d="M101.015 150.368C100.244 151.139 100.244 152.394 101.015 153.173C101.787 153.945 103.042 153.945 103.821 153.173C109.16 147.835 117.848 147.835 123.187 153.173C123.572 153.559 124.079 153.755 124.586 153.755C125.092 153.755 125.599 153.559 125.985 153.173C126.756 152.402 126.756 151.147 125.985 150.368C119.103 143.479 107.897 143.479 101.015 150.368Z" fill="white"/>
<path d="M106.369 155.722C105.598 156.493 105.598 157.749 106.369 158.528C107.141 159.299 108.396 159.299 109.175 158.528C111.557 156.138 115.444 156.138 117.826 158.528C118.211 158.913 118.718 159.11 119.225 159.11C119.731 159.11 120.238 158.913 120.624 158.528C121.395 157.756 121.395 156.501 120.624 155.73C116.699 151.79 110.302 151.79 106.369 155.722Z" fill="white"/>
<path d="M113.5 165.484C114.957 165.484 116.139 164.302 116.139 162.845C116.139 161.387 114.957 160.206 113.5 160.206C112.042 160.206 110.861 161.387 110.861 162.845C110.861 164.302 112.042 165.484 113.5 165.484Z" fill="white"/>
<path d="M131.422 144.923C121.538 135.048 105.462 135.048 95.5785 144.923C94.8072 145.695 94.8072 146.95 95.5785 147.729C96.3498 148.5 97.605 148.5 98.3839 147.729C106.717 139.388 120.283 139.388 128.624 147.729C129.009 148.114 129.516 148.311 130.023 148.311C130.529 148.311 131.036 148.114 131.422 147.729C132.193 146.958 132.193 145.702 131.422 144.923Z" fill="white"/>
</g>
</g>
<defs>
<clipPath id="clip0">
<rect width="229.018" height="229.018" fill="white"/>
</clipPath>
<clipPath id="clip1">
<rect width="40" height="40" fill="white" transform="translate(111 94)"/>
</clipPath>
<clipPath id="clip2">
<rect width="37" height="37" fill="white" transform="translate(95 133)"/>
</clipPath>
</defs>
</svg>
