<svg width="234" height="234" viewBox="0 0 234 234" fill="none" xmlns="http://www.w3.org/2000/svg">
<path d="M191.9 81.9587C190.019 49.8202 163.526 24.1309 131.584 24.1309C112.193 24.1309 93.4174 33.6403 81.7832 49.156C81.519 49.0168 81.2369 48.9239 80.9691 48.7918C80.262 48.449 79.5443 48.1205 78.8086 47.8312C78.398 47.6705 77.9873 47.5241 77.5731 47.3777C76.8518 47.1242 76.1233 46.9028 75.377 46.6992C74.9627 46.5885 74.5521 46.4743 74.1307 46.3778C73.3308 46.1957 72.5166 46.0565 71.6918 45.935C71.3275 45.8815 70.9704 45.8101 70.6026 45.7672C69.4242 45.6387 68.2244 45.5565 67.0067 45.5565C49.2877 45.5565 34.8682 59.9724 34.8682 77.695C34.8682 78.1557 34.8932 78.6056 34.9253 79.0555C20.0738 87.1509 9.87158 104.116 9.87158 121.096C9.87158 146.389 30.4474 166.969 55.7404 166.969H74.1486C76.1197 166.969 77.7195 165.372 77.7195 163.398C77.7195 161.423 76.1197 159.827 74.1486 159.827H55.7404C34.3861 159.827 17.0135 142.454 17.0135 121.096C17.0135 106.263 26.6729 90.8646 39.9818 84.4834L42.0101 83.5156V81.266C42.0101 80.8267 42.0386 80.3768 42.0636 79.9268L42.0958 79.3019L42.0529 78.6306C42.0351 78.3199 42.0101 78.0093 42.0101 77.695C42.0101 63.9147 53.2228 52.6984 67.0067 52.6984C68.1101 52.6984 69.1992 52.7948 70.2812 52.9377C70.5598 52.9734 70.8347 53.0198 71.1097 53.0662C72.0667 53.2233 73.0094 53.4304 73.9379 53.6983C74.0593 53.734 74.1843 53.7554 74.3021 53.7911C75.3234 54.1018 76.3197 54.4982 77.2946 54.941C77.541 55.0517 77.7838 55.1731 78.0266 55.2945C78.8908 55.7194 79.7371 56.1908 80.5513 56.7193C87.4325 61.1794 92.0033 68.9069 92.0033 77.695C92.0033 79.6697 93.6031 81.266 95.5742 81.266C97.5454 81.266 99.1452 79.6697 99.1452 77.695C99.1452 67.8606 94.6958 59.0583 87.7181 53.1591C97.9525 39.768 114.814 31.2727 131.584 31.2727C159.237 31.2727 182.212 53.1805 184.605 80.8624C180.955 80.6053 175.488 80.4732 170.025 81.3088C168.075 81.6052 166.736 83.4264 167.032 85.3761C167.3 87.1437 168.821 88.4114 170.557 88.4114C170.735 88.4114 170.918 88.3971 171.1 88.3686C179.041 87.1687 187.322 88.2936 187.826 88.3614C204.452 91.5217 216.986 106.837 216.986 124.017C216.986 143.761 200.921 159.827 181.177 159.827H166.993C165.022 159.827 163.422 161.423 163.422 163.398C163.422 165.372 165.022 166.969 166.993 166.969H181.177C204.859 166.969 224.128 147.7 224.128 124.017C224.128 104.416 210.462 86.8366 191.9 81.9587Z" fill="white"/>
<g clip-path="url(#clip0)">
<path d="M52.7272 93.6943C53.2514 94.0642 54.8314 95.1628 57.4675 96.9895C60.1036 98.8161 62.123 100.223 63.5259 101.209C63.68 101.317 64.0075 101.552 64.5084 101.914C65.0094 102.277 65.4257 102.57 65.757 102.793C66.0885 103.017 66.4892 103.267 66.9596 103.545C67.4299 103.822 67.8731 104.03 68.2893 104.168C68.7056 104.308 69.091 104.376 69.4455 104.376H69.4688H69.4921C69.8466 104.376 70.2321 104.307 70.6484 104.168C71.0644 104.03 71.5081 103.822 71.978 103.545C72.448 103.267 72.8488 103.017 73.1803 102.793C73.5118 102.57 73.9278 102.277 74.4289 101.914C74.9298 101.552 75.2576 101.317 75.4118 101.209C76.8298 100.223 80.4374 97.7175 86.2335 93.6938C87.3588 92.908 88.2989 91.9597 89.0542 90.8497C89.81 89.7402 90.1875 88.5763 90.1875 87.3586C90.1875 86.341 89.8212 85.4699 89.0888 84.7454C88.3566 84.0208 87.4893 83.6587 86.4876 83.6587H52.4496C51.2627 83.6587 50.3493 84.0594 49.7095 84.8609C49.0698 85.6626 48.75 86.6646 48.75 87.8669C48.75 88.8381 49.1741 89.8905 50.0218 91.0235C50.8695 92.1566 51.7716 93.0469 52.7272 93.6943Z" fill="white"/>
<path d="M87.8748 96.1684C82.819 99.5904 78.98 102.25 76.3597 104.146C75.481 104.793 74.7682 105.299 74.2208 105.661C73.6733 106.023 72.9453 106.393 72.0356 106.77C71.1262 107.148 70.2787 107.337 69.4924 107.337H69.4688H69.4456C68.6594 107.337 67.8114 107.148 66.902 106.77C65.9927 106.393 65.2641 106.023 64.7169 105.661C64.1698 105.299 63.4567 104.793 62.5781 104.146C60.4969 102.62 56.6661 99.9605 51.0857 96.1684C50.2068 95.583 49.4283 94.912 48.75 94.1567V112.516C48.75 113.534 49.1121 114.405 49.8367 115.13C50.5612 115.854 51.4324 116.217 52.4499 116.217H86.4879C87.5052 116.217 88.3763 115.854 89.1008 115.13C89.8256 114.405 90.1876 113.535 90.1876 112.516V94.1567C89.5246 94.8964 88.754 95.5674 87.8748 96.1684Z" fill="white"/>
</g>
<g clip-path="url(#clip1)">
<path d="M141.312 87.6168C140.937 88.148 140.387 88.5337 139.759 88.707L136.64 89.5591C136.395 89.6284 136.142 89.6642 135.887 89.6642C135.312 89.6642 134.757 89.4886 134.288 89.1588C133.6 88.6802 133.169 87.9254 133.101 87.1081L132.827 83.8866C132.762 83.2258 132.94 82.5638 133.315 82.0316L133.43 81.8661H122.302C121.405 81.8661 120.677 81.1259 120.677 80.2302C120.677 79.3312 121.405 78.591 122.302 78.591H135.772L138.782 74.2916H122.302C121.405 74.2916 120.677 73.5514 120.677 72.6535C120.677 71.7556 121.405 71.0154 122.302 71.0154L141.1 70.9673L148.149 60.8601V53.3762C148.149 52.1463 147.197 51.1533 145.971 51.1533H140.574V55.4236C140.574 57.4397 138.926 59.0342 136.914 59.0342H126.061C124.043 59.0342 122.452 57.4386 122.452 55.4236V51.1533H116.998C115.769 51.1533 114.775 52.1474 114.775 53.3762V91.5651C114.775 92.7951 115.77 93.8428 116.998 93.8428H145.968C147.198 93.8428 148.148 92.7939 148.148 91.5651V77.91L141.312 87.6168ZM122.302 63.4386H140.667C141.563 63.4386 142.292 64.1778 142.292 65.0756C142.292 65.9735 141.563 66.7138 140.667 66.7138H122.302C121.405 66.7138 120.677 65.9735 120.677 65.0756C120.677 64.1778 121.405 63.4386 122.302 63.4386Z" fill="white"/>
<path d="M126.091 56.886H136.934C137.754 56.886 138.422 56.2196 138.422 55.3966V49.1606C138.422 48.3376 137.754 47.6712 136.934 47.6712H135.3C135.289 45.5746 133.585 43.875 131.484 43.875C129.382 43.875 127.68 45.5735 127.667 47.6712H126.091C125.268 47.6712 124.603 48.3376 124.603 49.1606V55.3955C124.603 56.2185 125.268 56.886 126.091 56.886ZM131.485 45.9895C132.419 45.9895 133.176 46.7409 133.186 47.6723H129.781C129.792 46.7409 130.55 45.9895 131.485 45.9895Z" fill="white"/>
<path d="M161.865 53.9139C161.815 53.6366 161.657 53.3939 161.427 53.2329L158.712 51.341C158.529 51.2124 158.317 51.1509 158.109 51.1509C157.778 51.1509 157.448 51.3074 157.246 51.6015L138.015 79.1789L142.457 82.2774L161.691 54.7011C161.85 54.4718 161.913 54.1889 161.865 53.9139Z" fill="white"/>
<path d="M134.986 83.6816L135.264 86.9198C135.278 87.1066 135.377 87.2732 135.528 87.3805C135.635 87.4543 135.762 87.4968 135.887 87.4968C135.942 87.4968 135.998 87.489 136.051 87.4733L139.188 86.6146C139.33 86.5754 139.453 86.4882 139.538 86.3686L140.715 84.6801L136.269 81.5806L135.092 83.269C135.009 83.3886 134.97 83.5351 134.986 83.6816Z" fill="white"/>
</g>
<g clip-path="url(#clip2)">
<path d="M170.154 116.711H143.065C142.198 116.711 141.492 117.412 141.492 118.28V123.621C141.492 124.49 142.198 125.19 143.065 125.19H170.154C171.019 125.19 171.725 124.49 171.725 123.621V118.28C171.725 117.412 171.018 116.711 170.154 116.711ZM144.325 120.432C143.789 120.432 143.356 119.999 143.356 119.463C143.356 118.929 143.789 118.495 144.325 118.495C144.861 118.495 145.293 118.929 145.293 119.463C145.293 119.999 144.861 120.432 144.325 120.432ZM167.594 123.224H160.75V120.951H167.594V123.224H167.594Z" fill="white"/>
<path d="M170.154 126.053H143.065C142.198 126.053 141.492 126.754 141.492 127.623V132.963C141.492 133.83 142.198 134.533 143.065 134.533H170.154C171.019 134.533 171.725 133.83 171.725 132.963V127.623C171.725 126.754 171.018 126.053 170.154 126.053ZM144.325 129.774C143.789 129.774 143.356 129.343 143.356 128.805C143.356 128.272 143.789 127.836 144.325 127.836C144.861 127.836 145.293 128.271 145.293 128.805C145.293 129.342 144.861 129.774 144.325 129.774ZM167.594 132.566H160.75V130.293H167.594V132.566H167.594Z" fill="white"/>
<path d="M170.154 135.395H143.065C142.198 135.395 141.492 136.096 141.492 136.964V142.305C141.492 143.172 142.198 143.875 143.065 143.875H170.154C171.019 143.875 171.725 143.172 171.725 142.305V136.964C171.725 136.096 171.018 135.395 170.154 135.395ZM144.325 139.115C143.789 139.115 143.356 138.685 143.356 138.146C143.356 137.611 143.789 137.179 144.325 137.179C144.861 137.179 145.293 137.611 145.293 138.146C145.293 138.685 144.861 139.115 144.325 139.115ZM167.594 141.907H160.75V139.633H167.594V141.907H167.594Z" fill="white"/>
<path d="M161.288 148.983H158.401V144.783H154.819V148.983H151.929V150.09H141.824V153.673H151.929V154.782H161.288V153.673H171.393V150.09H161.288V148.983Z" fill="white"/>
<path d="M172.599 108.096C172.211 108.063 171.855 107.865 171.624 107.553C169.452 104.62 165.97 102.811 162.264 102.811C162.032 102.811 161.8 102.818 161.567 102.832C161.246 102.851 160.929 102.755 160.673 102.561C158.416 100.86 155.683 99.9375 152.821 99.9375C147.694 99.9375 143.143 102.908 141.016 107.405C140.821 107.817 140.432 108.104 139.98 108.167C134.329 108.962 129.967 113.828 129.967 119.694C129.967 125.287 133.932 129.968 139.198 131.081V127.623C139.198 127.192 139.278 126.78 139.411 126.394C136.594 125.468 134.553 122.817 134.553 119.695C134.553 115.805 137.717 112.641 141.607 112.641C141.804 112.641 141.997 112.656 142.189 112.672C143.31 112.759 144.324 112.032 144.598 110.944C145.546 107.164 148.928 104.524 152.821 104.524C155.045 104.524 157.15 105.383 158.748 106.943C159.294 107.476 160.07 107.702 160.817 107.547C161.293 107.447 161.78 107.397 162.264 107.397C164.987 107.397 167.419 108.928 168.611 111.392C169.029 112.259 169.945 112.775 170.903 112.676C171.141 112.652 171.379 112.64 171.61 112.64C175.5 112.64 178.665 115.805 178.665 119.694C178.665 122.817 176.622 125.467 173.806 126.393C173.938 126.78 174.018 127.191 174.018 127.622V131.08C179.285 129.967 183.252 125.287 183.252 119.693C183.251 113.608 178.556 108.598 172.599 108.096Z" fill="white"/>
</g>
<g clip-path="url(#clip3)">
<path d="M129.014 142.942C128.314 138.669 118.314 135.281 106.075 135.281C93.836 135.281 83.8359 138.669 83.1359 142.942H83.0928V143.421V154.433V154.912V155.391V165.924V166.403V166.882V178.373H83.1359C83.8359 182.645 93.8369 186.033 106.075 186.033C118.313 186.033 128.314 182.645 129.014 178.373H129.057V166.882V166.403V165.924V155.391V154.912V154.433V143.421V142.942H129.014Z" fill="#545E73"/>
<path d="M128.957 167.5V178.273H128.929L128.915 178.357C128.746 179.389 128.013 180.381 126.795 181.292C125.58 182.202 123.892 183.022 121.839 183.711C117.734 185.088 112.186 185.934 106.075 185.934C99.964 185.934 94.4154 185.088 90.3104 183.711C88.2577 183.022 86.5702 182.202 85.3544 181.292C84.1373 180.381 83.4036 179.389 83.2345 178.357L83.2208 178.273H83.1928V167.5C83.4721 168.259 84.036 168.979 84.8346 169.648C86.01 170.632 87.705 171.514 89.7906 172.253C93.9629 173.731 99.7202 174.643 106.075 174.643C112.43 174.643 118.187 173.731 122.359 172.253C124.445 171.514 126.14 170.632 127.315 169.648C128.114 168.979 128.678 168.259 128.957 167.5Z" fill="white" stroke="black" stroke-width="0.2"/>
<mask id="path-15-inside-1" fill="white">
<path d="M83.0928 165.924V166.403C83.0928 166.242 83.11 166.083 83.1359 165.924H83.0928Z"/>
</mask>
<path d="M83.0928 165.924V166.403C83.0928 166.242 83.11 166.083 83.1359 165.924H83.0928Z" fill="white"/>
<path d="M83.0928 165.924V165.724H82.8928V165.924H83.0928ZM83.1359 165.924L83.3333 165.956L83.371 165.724H83.1359V165.924ZM82.8928 165.924V166.403H83.2928V165.924H82.8928ZM83.2928 166.403C83.2928 166.256 83.3085 166.109 83.3333 165.956L82.9385 165.892C82.9115 166.058 82.8928 166.228 82.8928 166.403H83.2928ZM83.1359 165.724H83.0928V166.124H83.1359V165.724Z" fill="black" mask="url(#path-15-inside-1)"/>
<mask id="path-17-inside-2" fill="white">
<path d="M129.014 165.924C129.04 166.083 129.057 166.242 129.057 166.403V165.924H129.014Z"/>
</mask>
<path d="M129.014 165.924C129.04 166.083 129.057 166.242 129.057 166.403V165.924H129.014Z" fill="white"/>
<path d="M129.014 165.924V165.724H128.779L128.816 165.956L129.014 165.924ZM129.057 165.924H129.257V165.724H129.057V165.924ZM128.816 165.956C128.841 166.109 128.857 166.256 128.857 166.403H129.257C129.257 166.228 129.238 166.058 129.211 165.892L128.816 165.956ZM129.257 166.403V165.924H128.857V166.403H129.257ZM129.057 165.724H129.014V166.124H129.057V165.724Z" fill="black" mask="url(#path-17-inside-2)"/>
<path d="M128.957 156.009V166.782H128.929L128.915 166.866C128.746 167.898 128.013 168.89 126.795 169.801C125.58 170.711 123.892 171.531 121.839 172.219C117.734 173.596 112.186 174.443 106.075 174.443C99.964 174.443 94.4154 173.596 90.3104 172.219C88.2577 171.531 86.5702 170.711 85.3544 169.801C84.1373 168.89 83.4036 167.898 83.2345 166.866L83.2208 166.782H83.1928V156.009C83.4721 156.768 84.036 157.488 84.8346 158.157C86.01 159.141 87.705 160.023 89.7906 160.762C93.9629 162.239 99.7202 163.152 106.075 163.152C112.43 163.152 118.187 162.239 122.359 160.762C124.445 160.023 126.14 159.141 127.315 158.157C128.114 157.488 128.678 156.768 128.957 156.009Z" fill="white" stroke="black" stroke-width="0.2"/>
<mask id="path-20-inside-3" fill="white">
<path d="M83.0928 154.433V154.912C83.0928 154.751 83.11 154.592 83.1359 154.433H83.0928Z"/>
</mask>
<path d="M83.0928 154.433V154.912C83.0928 154.751 83.11 154.592 83.1359 154.433H83.0928Z" fill="white"/>
<path d="M83.0928 154.433V154.233H82.8928V154.433H83.0928ZM83.1359 154.433L83.3333 154.465L83.371 154.233H83.1359V154.433ZM82.8928 154.433V154.912H83.2928V154.433H82.8928ZM83.2928 154.912C83.2928 154.765 83.3085 154.617 83.3333 154.465L82.9385 154.401C82.9115 154.567 82.8928 154.737 82.8928 154.912H83.2928ZM83.1359 154.233H83.0928V154.633H83.1359V154.233Z" fill="black" mask="url(#path-20-inside-3)"/>
<mask id="path-22-inside-4" fill="white">
<path d="M129.014 154.433C129.04 154.592 129.057 154.751 129.057 154.912V154.433H129.014Z"/>
</mask>
<path d="M129.014 154.433C129.04 154.592 129.057 154.751 129.057 154.912V154.433H129.014Z" fill="white"/>
<path d="M129.014 154.433V154.233H128.779L128.816 154.465L129.014 154.433ZM129.057 154.433H129.257V154.233H129.057V154.433ZM128.816 154.465C128.841 154.617 128.857 154.765 128.857 154.912H129.257C129.257 154.737 129.238 154.567 129.211 154.401L128.816 154.465ZM129.257 154.912V154.433H128.857V154.912H129.257ZM129.057 154.233H129.014V154.633H129.057V154.233Z" fill="black" mask="url(#path-22-inside-4)"/>
<path d="M128.957 143.421C128.957 144.503 128.338 145.549 127.187 146.512C126.036 147.476 124.366 148.348 122.292 149.082C118.147 150.55 112.413 151.46 106.075 151.46C99.7369 151.46 94.0031 150.55 89.8575 149.082C87.7842 148.348 86.1135 147.476 84.963 146.512C83.812 145.549 83.1928 144.503 83.1928 143.421C83.1928 142.338 83.812 141.293 84.963 140.329C86.1135 139.366 87.7842 138.494 89.8575 137.76C94.0031 136.291 99.7369 135.381 106.075 135.381C112.413 135.381 118.147 136.291 122.292 137.76C124.366 138.494 126.036 139.366 127.187 140.329C128.338 141.293 128.957 142.338 128.957 143.421Z" fill="white" stroke="black" stroke-width="0.2"/>
<path d="M128.957 144.518V155.291H128.929L128.915 155.375C128.746 156.406 128.013 157.399 126.795 158.31C125.58 159.22 123.892 160.04 121.839 160.728C117.734 162.105 112.186 162.951 106.075 162.951C99.964 162.951 94.4154 162.105 90.3104 160.728C88.2577 160.04 86.5702 159.22 85.3544 158.31C84.1373 157.399 83.4036 156.406 83.2345 155.375L83.2208 155.291H83.1928V144.518C83.4721 145.276 84.036 145.997 84.8346 146.666C86.01 147.65 87.705 148.532 89.7906 149.271C93.9629 150.748 99.7202 151.66 106.075 151.66C112.43 151.66 118.187 150.748 122.359 149.271C124.445 148.532 126.14 147.65 127.315 146.666C128.114 145.997 128.678 145.276 128.957 144.518Z" fill="white" stroke="black" stroke-width="0.2"/>
<mask id="path-26-inside-5" fill="white">
<path d="M83.0928 142.942V143.421C83.0928 143.26 83.11 143.101 83.1359 142.942H83.0928Z"/>
</mask>
<path d="M83.0928 142.942V143.421C83.0928 143.26 83.11 143.101 83.1359 142.942H83.0928Z" fill="white"/>
<path d="M83.0928 142.942V142.742H82.8928V142.942H83.0928ZM83.1359 142.942L83.3333 142.974L83.371 142.742H83.1359V142.942ZM82.8928 142.942V143.421H83.2928V142.942H82.8928ZM83.2928 143.421C83.2928 143.274 83.3085 143.126 83.3333 142.974L82.9385 142.91C82.9115 143.075 82.8928 143.246 82.8928 143.421H83.2928ZM83.1359 142.742H83.0928V143.142H83.1359V142.742Z" fill="black" mask="url(#path-26-inside-5)"/>
<mask id="path-28-inside-6" fill="white">
<path d="M129.014 142.942C129.04 143.101 129.057 143.26 129.057 143.421V142.942H129.014Z"/>
</mask>
<path d="M129.014 142.942C129.04 143.101 129.057 143.26 129.057 143.421V142.942H129.014Z" fill="white"/>
<path d="M129.014 142.942V142.742H128.779L128.816 142.974L129.014 142.942ZM129.057 142.942H129.257V142.742H129.057V142.942ZM128.816 142.974C128.841 143.126 128.857 143.274 128.857 143.421H129.257C129.257 143.246 129.238 143.075 129.211 142.91L128.816 142.974ZM129.257 143.421V142.942H128.857V143.421H129.257ZM129.057 142.742H129.014V143.142H129.057V142.742Z" fill="black" mask="url(#path-28-inside-6)"/>
</g>
<g clip-path="url(#clip4)">
<path d="M125.441 202.534V222.65H131.439V196.536L125.441 202.534Z" fill="white"/>
<path d="M134.438 196.536V222.65H140.437V202.534L134.438 196.536Z" fill="white"/>
<path d="M143.437 202.534V222.65H149.435V196.536L143.437 202.534Z" fill="white"/>
<path d="M158.972 187.098L152.434 193.536V222.65H160.032C160.861 222.65 161.532 221.98 161.532 221.151V188.159C161.532 186.831 159.918 186.152 158.972 187.098Z" fill="white"/>
<path d="M113.783 214.092C113.502 214.373 113.344 214.754 113.344 215.152V221.15C113.344 221.979 114.014 222.65 114.843 222.65H122.442V205.533L113.783 214.092Z" fill="white"/>
<path d="M163.031 174.662H157.033C156.204 174.662 155.533 175.333 155.533 176.162C155.533 176.991 156.204 177.661 157.033 177.661H159.925L141.936 195.55L133.999 187.613C133.413 187.027 132.464 187.027 131.878 187.613L113.783 205.608C113.197 206.194 113.197 207.143 113.783 207.729C114.368 208.314 115.317 208.314 115.903 207.729L132.939 190.793L140.876 198.731C141.462 199.317 142.411 199.317 142.997 198.731L161.532 180.296V182.16C161.532 182.989 162.202 183.66 163.031 183.66C163.86 183.66 164.531 182.989 164.531 182.16V176.162C164.531 175.333 163.86 174.662 163.031 174.662Z" fill="white"/>
</g>
<defs>
<clipPath id="clip0">
<rect width="41.4375" height="41.4375" fill="white" transform="translate(48.75 79.2188)"/>
</clipPath>
<clipPath id="clip1">
<rect width="49.9688" height="49.9688" fill="white" transform="translate(113.344 43.875)"/>
</clipPath>
<clipPath id="clip2">
<rect width="54.8438" height="54.8438" fill="white" transform="translate(129.188 99.9375)"/>
</clipPath>
<clipPath id="clip3">
<rect width="53.625" height="53.625" fill="white" transform="translate(81.6562 135.281)"/>
</clipPath>
<clipPath id="clip4">
<rect width="51.1875" height="51.1875" fill="white" transform="translate(113.344 173.062)"/>
</clipPath>
</defs>
</svg>
