<svg width="148" height="153" viewBox="0 0 148 153" fill="none" xmlns="http://www.w3.org/2000/svg">
<g clip-path="url(#clip0)">
<path opacity="0.4" d="M91.3697 121.008L72.9023 110.403C71.5698 109.639 71.7379 108.302 73.2766 107.421L85.2403 100.549L108.54 113.909L96.5759 120.781C95.0404 121.677 92.7149 121.772 91.3697 121.008Z" fill="#D6D8E5"/>
<path d="M92.7308 120.22L74.2633 109.614C72.9309 108.851 73.099 107.513 74.6377 106.633L86.611 99.7603L109.898 113.133L97.9338 120.005C96.3888 120.888 94.0633 120.983 92.7308 120.22Z" fill="#B1B4C4"/>
<path d="M109.891 113.135V112.432L108.816 113.05L109.891 113.135Z" fill="#B1B4C4"/>
<path d="M73.3655 108.349V107.639L74.4695 108.093L73.3655 108.349Z" fill="#B1B4C4"/>
<path d="M92.7308 119.516L74.2633 108.914C72.9309 108.147 73.099 106.812 74.6377 105.929L86.611 99.0596L109.898 112.432L97.9338 119.301C96.3888 120.185 94.0633 120.282 92.7308 119.516Z" fill="#D6D8E5"/>
<path d="M86.6649 99.0913L83.781 89.5811L107.325 103.01L109.891 112.432L86.6649 99.0913Z" fill="#9EA1AF"/>
<path d="M109.206 112.823L109.888 112.432L108.876 111.627L109.206 112.823Z" fill="#9EA1AF"/>
<path d="M85.9193 99.4477L83.0386 89.9375L106.582 103.37L109.206 112.823L85.9193 99.4477Z" fill="#B1B4C4"/>
<path d="M145.684 128.852L54.5681 76.5239C53.2991 75.7918 52.2521 73.8197 52.2521 72.1253V2.01649C52.2521 0.322065 53.2895 -0.457307 54.5681 0.27789L145.684 52.6063C146.953 53.3383 148 55.3073 148 57.0017V127.114C148 128.808 146.963 129.587 145.684 128.852Z" fill="#C4C7D6"/>
<path d="M146.154 129.575L147.162 128.997L146.728 126.019L146.154 129.575Z" fill="#C4C7D6"/>
<path d="M52.0776 0.707124L53.0706 0.13916L54.4982 0.946931C54.4982 0.946931 52.9786 1.17727 52.9405 1.17096C52.9024 1.16465 52.0776 0.707124 52.0776 0.707124Z" fill="#B1B4C4"/>
<path d="M144.85 129.332L53.7178 76.9912C52.4488 76.2592 51.405 74.2903 51.405 72.5927V2.49647C51.405 0.802046 52.4424 0.0226733 53.7178 0.757871L144.85 53.0863C146.119 53.8183 147.162 55.7873 147.162 57.4848V127.594C147.162 129.288 146.128 130.067 144.85 129.332Z" fill="#E4E7F2"/>
<path d="M144.688 129.424L53.5592 77.0952C52.2902 76.36 51.2432 74.391 51.2432 72.6966V2.58778C51.2432 0.893354 52.2806 0.113982 53.5592 0.84918L144.688 53.1776C145.957 53.9096 147.004 55.8786 147.004 57.573V127.685C147.004 129.37 145.966 130.159 144.688 129.424Z" fill="#D6D8E5"/>
<path d="M145.751 125.161L52.4012 71.5575L52.4488 2.86857C52.4488 2.16492 52.9469 1.88094 53.5592 2.2375L144.688 54.5596C145.011 54.7694 145.28 55.0517 145.472 55.3839C145.665 55.7161 145.777 56.0887 145.798 56.4717L145.751 125.161Z" fill="white"/>
<path d="M65.5769 24.9434L57.1061 20.0715C56.9594 19.9664 56.8394 19.8286 56.7557 19.6692C56.672 19.5098 56.6268 19.3331 56.6239 19.1533V9.57994C56.6239 9.22654 56.8396 9.06561 57.1061 9.21707L65.5769 14.0921C65.7239 14.1962 65.8442 14.3333 65.9279 14.4923C66.0117 14.6513 66.0567 14.8277 66.0591 15.0071V24.5805C66.0591 24.9276 65.8434 25.098 65.5769 24.9434Z" fill="#E9EAF2"/>
<path d="M77.3407 31.6987L68.8446 26.8206C68.6979 26.7154 68.5779 26.5777 68.4942 26.4182C68.4104 26.2588 68.3653 26.0822 68.3624 25.9023V16.3353C68.3624 15.9819 68.5781 15.821 68.8446 15.9724L77.3312 20.8475C77.4813 20.9515 77.6042 21.0896 77.6897 21.2505C77.7753 21.4113 77.8209 21.5901 77.8229 21.772V31.3359C77.8229 31.6893 77.6072 31.8691 77.3407 31.6987Z" fill="#E9EAF2"/>
<path d="M88.8317 38.2904L80.3292 33.4154C80.1822 33.3113 80.0619 33.1742 79.9782 33.0152C79.8944 32.8562 79.8494 32.6798 79.847 32.5003V22.927C79.847 22.5736 80.0627 22.4095 80.3292 22.5641L88.8317 27.4518C88.9787 27.5559 89.099 27.693 89.1828 27.852C89.2666 28.0109 89.3115 28.1873 89.3139 28.3668V37.9275C89.2981 38.2809 89.0823 38.4419 88.8317 38.2904Z" fill="#E9EAF2"/>
<path d="M65.5769 38.4546L57.1061 33.5827C56.9594 33.4776 56.8394 33.3398 56.7557 33.1804C56.672 33.021 56.6268 32.8443 56.6239 32.6645V23.0912C56.6239 22.7378 56.8396 22.5768 57.1061 22.7283L65.5769 27.6002C65.7236 27.7053 65.8436 27.8431 65.9273 28.0025C66.011 28.1619 66.0561 28.3386 66.0591 28.5184V38.0917C66.0591 38.4451 65.8434 38.6092 65.5769 38.4546Z" fill="#E9EAF2"/>
<path d="M77.3407 45.2105L68.8446 40.3386C68.6979 40.2334 68.5779 40.0957 68.4942 39.9363C68.4104 39.7769 68.3653 39.6002 68.3624 39.4204V29.847C68.3624 29.4936 68.5781 29.3327 68.8446 29.4842L77.3312 34.356C77.4779 34.4612 77.5979 34.5989 77.6816 34.7583C77.7653 34.9178 77.8105 35.0944 77.8134 35.2742V44.8476C77.8229 45.201 77.6072 45.3651 77.3407 45.2105Z" fill="#E9EAF2"/>
<path d="M78.4987 44.5761L70.0121 39.701C69.8651 39.5969 69.7448 39.4598 69.661 39.3008C69.5772 39.1418 69.5323 38.9655 69.5298 38.786V29.2126C69.5298 28.8592 69.7456 28.6951 70.0121 28.8498L78.4987 33.7216C78.6454 33.8268 78.7654 33.9645 78.8491 34.1239C78.9329 34.2834 78.978 34.46 78.9809 34.6398V44.2132C78.9968 44.5666 78.7652 44.7275 78.4987 44.5761Z" fill="#8C50FF"/>
<path d="M88.8317 51.7985L80.3292 46.9267C80.1822 46.8225 80.0619 46.6854 79.9782 46.5265C79.8944 46.3675 79.8494 46.1911 79.847 46.0116V36.4351C79.847 36.0849 80.0627 35.9208 80.3292 36.0754L88.8317 40.9473C88.9787 41.0514 89.099 41.1885 89.1828 41.3475C89.2666 41.5065 89.3115 41.6828 89.3139 41.8623V51.4325C89.2981 51.7891 89.0823 51.9531 88.8317 51.7985Z" fill="#E9EAF2"/>
<path d="M65.5769 52.2497L57.1061 47.3778C56.9591 47.2737 56.8388 47.1366 56.755 46.9776C56.6713 46.8186 56.6263 46.6423 56.6239 46.4628V36.8863C56.6239 36.536 56.8396 36.372 57.1061 36.5266L65.5769 41.3984C65.7239 41.5025 65.8442 41.6397 65.9279 41.7986C66.0117 41.9576 66.0567 42.134 66.0591 42.3135V51.89C66.0591 52.2402 65.8434 52.4043 65.5769 52.2497Z" fill="#E9EAF2"/>
<path d="M88.8317 73.3182L57.1061 55.1023C56.9594 54.9971 56.8394 54.8594 56.7557 54.7C56.672 54.5406 56.6268 54.3639 56.6239 54.1841V51.9753C56.6239 51.6219 56.8396 51.4578 57.1061 51.6125L88.8317 69.8315C88.9788 69.9356 89.099 70.0727 89.1828 70.2317C89.2666 70.3907 89.3115 70.5671 89.314 70.7465V72.9553C89.2981 73.3087 89.0824 73.4728 88.8317 73.3182Z" fill="#E9EAF2"/>
<path d="M80.6687 73.8355L57.233 60.3905C57.086 60.2864 56.9657 60.1493 56.8819 59.9903C56.7982 59.8313 56.7532 59.6549 56.7508 59.4755V58.3742C56.7508 58.0208 56.9665 57.8568 57.233 58.0114L80.6687 71.4658C80.8154 71.5709 80.9354 71.7087 81.0192 71.8681C81.1029 72.0275 81.148 72.2042 81.151 72.384V73.4789C81.151 73.8355 80.9352 73.9996 80.6687 73.8355Z" fill="#E9EAF2"/>
<path d="M80.6687 78.0006L57.233 64.543C57.086 64.4389 56.9657 64.3018 56.8819 64.1428C56.7982 63.9838 56.7532 63.8075 56.7508 63.628V62.5331C56.7508 62.1797 56.9665 62.0187 57.233 62.1702L80.6687 75.6246C80.8154 75.7298 80.9354 75.8675 81.0192 76.0269C81.1029 76.1863 81.148 76.363 81.151 76.5428V77.6377C81.151 77.9911 80.9352 78.1521 80.6687 78.0006Z" fill="#E9EAF2"/>
<path d="M76.2462 79.6165L57.233 68.6959C57.086 68.5917 56.9657 68.4546 56.8819 68.2957C56.7982 68.1367 56.7532 67.9603 56.7508 67.7808V66.6859C56.7508 66.3325 56.9665 66.1716 57.233 66.323L76.2462 77.2406C76.3929 77.3457 76.5129 77.4835 76.5966 77.6429C76.6803 77.8023 76.7255 77.9789 76.7284 78.1588V79.2537C76.7284 79.6071 76.5127 79.768 76.2462 79.6165Z" fill="#8C50FF"/>
<path d="M141.055 103.496L95.253 77.2052C95.106 77.1011 94.9857 76.964 94.9019 76.805C94.8181 76.646 94.7732 76.4696 94.7708 76.2901V74.0814C94.7708 73.728 94.9865 73.5671 95.253 73.7185L141.055 100.025C141.202 100.129 141.323 100.266 141.406 100.425C141.49 100.584 141.535 100.76 141.538 100.94V103.149C141.538 103.496 141.322 103.66 141.055 103.496Z" fill="#E9EAF2"/>
<path d="M136.541 106.121L95.3989 82.4937C95.2519 82.3896 95.1316 82.2525 95.0478 82.0935C94.964 81.9345 94.9191 81.7581 94.9167 81.5787V80.4837C94.9167 80.1303 95.1324 79.9694 95.3989 80.1209L136.541 103.745C136.687 103.85 136.807 103.988 136.891 104.147C136.975 104.307 137.02 104.483 137.023 104.663V105.758C137.023 106.112 136.807 106.272 136.541 106.121Z" fill="#E9EAF2"/>
<path d="M136.541 110.273L95.3989 86.6492C95.2522 86.5441 95.1322 86.4063 95.0485 86.2469C94.9647 86.0875 94.9196 85.9108 94.9167 85.731V84.6361C94.9167 84.2827 95.1324 84.1218 95.3989 84.2732L136.541 107.913C136.688 108.017 136.808 108.154 136.892 108.313C136.976 108.472 137.02 108.649 137.023 108.828V109.923C137.023 110.264 136.807 110.437 136.541 110.273Z" fill="#E9EAF2"/>
<path d="M128.914 110.046L95.3989 90.7986C95.2522 90.6935 95.1322 90.5557 95.0485 90.3963C94.9647 90.2369 94.9196 90.0602 94.9167 89.8804V88.7855C94.9167 88.4321 95.1324 88.2712 95.3989 88.4226L128.914 107.67C129.06 107.775 129.18 107.912 129.264 108.071C129.348 108.23 129.393 108.406 129.396 108.585V109.68C129.396 110.037 129.177 110.198 128.914 110.046Z" fill="#8C50FF"/>
<path d="M77.3407 59.0056L68.8446 54.1337C68.6976 54.0296 68.5773 53.8925 68.4935 53.7335C68.4097 53.5745 68.3648 53.3981 68.3624 53.2186V43.6421C68.3624 43.2919 68.5781 43.1278 68.8446 43.2824L77.3312 48.1543C77.4782 48.2584 77.5985 48.3955 77.6823 48.5545C77.7661 48.7135 77.811 48.8899 77.8134 49.0694V58.6459C77.8229 59.0056 77.6072 59.1602 77.3407 59.0056Z" fill="#E9EAF2"/>
<path d="M88.8317 65.5966L80.3292 60.7215C80.1822 60.6174 80.0619 60.4803 79.9782 60.3213C79.8944 60.1623 79.8494 59.986 79.847 59.8065V50.2331C79.847 49.8797 80.0627 49.7157 80.3292 49.8703L88.8317 54.7421C88.9784 54.8473 89.0984 54.985 89.1821 55.1444C89.2659 55.3039 89.311 55.4805 89.3139 55.6603V65.2337C89.2981 65.5871 89.0823 65.748 88.8317 65.5966Z" fill="#E9EAF2"/>
<path d="M141.055 95.6074L95.253 69.2918C95.106 69.1877 94.9857 69.0506 94.9019 68.8916C94.8181 68.7326 94.7732 68.5562 94.7708 68.3767V53.3762C94.7708 53.0228 94.9865 52.8587 95.253 53.0133L141.055 79.3132C141.202 79.4183 141.322 79.5561 141.406 79.7155C141.489 79.8749 141.535 80.0516 141.538 80.2314V95.232C141.538 95.5854 141.322 95.7463 141.055 95.6074Z" fill="#E9EAF2"/>
<path d="M101.522 51.0695C97.6324 48.8355 94.4662 43.3862 94.4662 38.9182C94.4662 34.4503 97.6388 32.6359 101.522 34.8668C105.405 37.0976 108.575 42.5532 108.575 47.018C108.575 51.4829 105.408 53.3035 101.522 51.0695ZM101.522 37.208C98.7555 35.6304 96.5061 36.9146 96.5061 40.0889C96.5061 43.2632 98.7555 47.1411 101.522 48.7282C104.288 50.3154 106.538 49.0249 106.538 45.8474C106.538 42.67 104.282 38.811 101.522 37.208Z" fill="#E9EAF2"/>
<path d="M101.522 51.0695C97.6324 48.8355 94.4662 43.3862 94.4662 38.9182C94.4662 34.4503 97.6388 32.6359 101.522 34.8668V37.208C98.7555 35.6304 96.5061 36.9146 96.5061 40.0889C96.5061 43.2632 98.7555 47.1411 101.522 48.7282C104.288 50.3154 106.538 49.0248 106.538 45.8474L108.575 47.018C108.571 51.486 105.408 53.3035 101.522 51.0695Z" fill="#8C50FF"/>
<path d="M117.975 60.523C114.085 58.289 110.922 52.8365 110.922 48.3717C110.922 43.9069 114.095 42.0862 117.975 44.3202C121.855 46.5542 125.027 52.0035 125.027 56.4715C125.027 60.9395 121.864 62.757 117.975 60.523ZM117.975 46.6615C115.208 45.0838 112.959 46.3649 112.959 49.5423C112.959 52.7198 115.208 56.5914 117.975 58.1817C120.741 59.772 122.991 58.4783 122.991 55.3009C122.991 52.1234 120.741 48.2486 117.975 46.6615Z" fill="#E9EAF2"/>
<path d="M117.975 60.523C114.085 58.289 110.922 52.8365 110.922 48.3717C110.922 43.9069 114.095 42.0862 117.975 44.3202V46.6615C115.208 45.0838 112.959 46.3649 112.959 49.5423C112.959 52.7198 115.208 56.5914 117.975 58.1817C119.003 58.7717 119.989 58.9832 120.83 58.8128L121.995 61.4033C120.811 61.6526 119.422 61.3528 117.975 60.523Z" fill="#8C50FF"/>
<path d="M134.431 69.9702C130.541 67.7362 127.378 62.2838 127.378 57.819C127.378 53.3541 130.551 51.5335 134.431 53.7675C138.311 56.0015 141.496 61.4508 141.496 65.9187C141.496 70.3867 138.324 72.2042 134.431 69.9702ZM134.431 56.1088C131.668 54.5311 129.415 55.8122 129.415 58.9896C129.415 62.167 131.668 66.0386 134.431 67.6289C137.194 69.2192 139.447 67.9255 139.447 64.7481C139.447 61.5707 137.197 57.6959 134.431 56.1088Z" fill="#E9EAF2"/>
<path d="M128.292 62.3375C127.718 60.8979 127.409 59.3674 127.378 57.819C127.378 53.3511 130.551 51.5336 134.431 53.7676V56.1088C131.668 54.5312 129.415 55.8122 129.415 58.9897C129.439 60.0901 129.663 61.1772 130.075 62.1987L128.292 62.3375Z" fill="#8C50FF"/>
<path opacity="0.4" d="M107.737 151.382C111.693 151.382 114.901 149.539 114.901 147.267C114.901 144.995 111.693 143.152 107.737 143.152C103.781 143.152 100.573 144.995 100.573 147.267C100.573 149.539 103.781 151.382 107.737 151.382Z" fill="#D6D8E5"/>
<path opacity="0.4" d="M32.0048 153.004C35.9612 153.004 39.1684 151.161 39.1684 148.889C39.1684 146.617 35.9612 144.774 32.0048 144.774C28.0484 144.774 24.8411 146.617 24.8411 148.889C24.8411 151.161 28.0484 153.004 32.0048 153.004Z" fill="#D6D8E5"/>
<path opacity="0.4" d="M7.16364 115.679C11.12 115.679 14.3273 113.837 14.3273 111.564C14.3273 109.292 11.12 107.45 7.16364 107.45C3.20727 107.45 0 109.292 0 111.564C0 113.837 3.20727 115.679 7.16364 115.679Z" fill="#D6D8E5"/>
<path d="M111.3 146.282C110.833 146.658 110.145 146.314 110.11 146.349C109.564 146.854 108.99 147.329 108.391 147.772C108.102 147.999 107.648 148.305 107.731 148.74C107.877 149.523 109.133 149.283 109.609 149.056C110.085 148.829 110.469 148.425 110.919 148.144C111.236 147.945 111.554 147.844 111.604 147.44C111.633 147.185 111.382 146.273 111.3 146.282Z" fill="#38226D"/>
<path d="M111.598 147.267C111.535 147.652 111.224 147.759 110.906 147.955C110.45 148.236 110.05 148.643 109.574 148.879C109.098 149.116 108.045 149.321 107.737 148.763C107.905 149.517 109.139 149.28 109.609 149.044C110.078 148.807 110.469 148.412 110.919 148.132C111.236 147.933 111.554 147.832 111.604 147.428C111.606 147.374 111.604 147.32 111.598 147.267Z" fill="#9C73FF"/>
<path d="M107.255 144.786C106.788 145.165 105.986 144.752 105.938 144.786C105.455 145.276 104.942 145.737 104.403 146.165C104.114 146.392 103.66 146.698 103.743 147.134C103.889 147.913 105.145 147.673 105.621 147.449C106.097 147.225 106.481 146.818 106.931 146.538C107.248 146.339 107.566 146.222 107.616 145.834C107.645 145.578 107.337 144.777 107.255 144.786Z" fill="#38226D"/>
<path d="M107.601 145.714C107.55 146.093 107.233 146.207 106.915 146.409C106.458 146.689 106.056 147.096 105.583 147.336C105.11 147.576 104.051 147.775 103.743 147.216C103.911 147.97 105.145 147.734 105.615 147.497C106.084 147.26 106.478 146.866 106.925 146.585C107.242 146.386 107.559 146.27 107.61 145.885C107.615 145.828 107.612 145.77 107.601 145.714Z" fill="#9C73FF"/>
<path d="M111.325 129.177C111.303 129.878 111.084 132.919 110.986 134.541C110.887 136.163 110.865 138.126 110.865 138.126C110.865 138.126 111.144 139.299 111.325 140.678C111.506 142.057 111.325 146.412 111.325 146.412C111.147 146.526 110.94 146.586 110.729 146.586C110.517 146.586 110.31 146.526 110.132 146.412C110.132 146.412 109.387 142.941 109.041 141.363C108.695 139.785 108.638 138.886 108.457 137.914C108.241 136.737 107.772 131.244 107.772 131.244H107.585L107.087 137.444C107.242 137.901 107.348 138.373 107.404 138.851C107.54 139.864 107.261 144.944 107.261 144.944C107.062 145.055 106.837 145.108 106.609 145.099C106.382 145.089 106.162 145.017 105.973 144.891C105.973 144.891 104.726 138.16 104.726 137.138C104.726 136.46 104.844 127.527 104.844 127.527L111.325 129.177Z" fill="#8C50FF"/>
<path d="M109.637 115.634C109.637 115.634 109.558 117.161 109.593 117.297C109.628 117.433 110.297 117.881 110.494 118.039C110.691 118.196 109.431 119.433 108.819 119.714C108.207 119.995 106.281 119.257 106.236 118.31C106.192 117.363 106.554 116.568 106.871 116.527C107.188 116.486 109.637 115.634 109.637 115.634Z" fill="#FFCEA9"/>
<path d="M105.431 118.468C105.339 117.796 105.786 117.155 105.354 116.619C103.838 118.095 104.028 122.008 103.686 124.507C102.559 125.678 100.297 126.829 99.6597 127.117C99.5423 127.167 99.444 127.224 99.4662 127.347C99.5517 127.764 99.7319 128.155 99.9928 128.492C101.49 127.861 102.569 127.483 104.434 125.716C104.613 125.521 104.772 125.31 104.91 125.084C105.45 123.507 105.583 119.632 105.431 118.468Z" fill="#FFCEA9"/>
<path d="M109.809 117.559C109.809 117.559 108.695 119.212 107.137 119.367C106.649 118.887 106.604 117.177 107.283 116.628C107.283 116.628 106.649 116.13 106.23 116.224C105.774 116.503 105.436 116.937 105.278 117.445C104.882 118.581 104.696 119.778 104.729 120.979C104.755 122.601 104.729 127.555 104.729 127.555C104.729 127.555 104.948 128.603 106.357 129.382C107.766 130.162 108.806 130.237 109.761 130.013C110.548 129.83 111.198 129.553 111.471 128.985C111.401 127.849 110.891 124.883 111.081 123.456C111.271 122.03 111.576 120.961 111.652 119.806C111.728 118.651 111.5 118.673 110.919 118.263C110.567 118.002 110.195 117.767 109.809 117.559Z" fill="#F4F4F4"/>
<path d="M106.16 113.356C106.344 112.17 107.204 111.271 108.432 111.34C108.743 111.357 109.048 111.435 109.328 111.569C109.609 111.703 109.861 111.891 110.069 112.122C110.276 112.353 110.436 112.622 110.539 112.915C110.642 113.207 110.686 113.517 110.668 113.827C110.649 114.186 110.545 114.536 110.366 114.85C110.187 115.163 109.938 115.43 109.637 115.631C109.593 115.811 109.529 115.986 109.447 116.152C109.012 116.657 107.696 116.969 107.318 116.916C107.093 116.896 106.879 116.809 106.705 116.667C106.53 116.524 106.402 116.333 106.338 116.117C105.932 115.187 106.059 113.943 106.16 113.356Z" fill="#FFCEA9"/>
<path d="M109.637 115.631L109.523 114.599C109.523 114.599 110.373 112.41 108.365 112.829C107.039 113.107 106.706 113.227 106.303 112.343C105.9 111.46 107.321 110.662 109.012 110.882C109.594 110.943 110.132 111.219 110.52 111.656C110.907 112.092 111.115 112.657 111.103 113.239C111.059 113.889 110.884 115.208 109.637 115.631Z" fill="#3A2C6D"/>
<path d="M111.991 119.127C111.411 118.963 111.855 119.099 111.411 118.963C109.894 120.44 110.082 122.974 109.739 125.479C108.901 126.855 105.795 128.72 105.795 128.72C105.757 128.988 105.849 129.067 106.186 129.603C107.915 128.945 109.489 127.936 110.805 126.64C110.881 126.571 110.989 126.552 111.021 126.457C111.55 124.861 112.144 120.292 111.991 119.127Z" fill="#FFCEA9"/>
<path d="M98.1654 122.213L100.424 129.893L105.377 131.859L103.571 124.381L98.1654 122.213Z" fill="#F4F4F4"/>
<path d="M106.573 128.776C106.5 128.514 106.309 128.577 106.094 128.644C105.861 128.738 105.606 128.76 105.361 128.707C105.169 128.615 104.992 128.496 104.834 128.353C104.738 128.295 104.629 128.264 104.517 128.262C104.517 128.328 104.631 128.716 104.631 128.716C104.631 128.716 103.546 128.716 103.435 128.716C103.398 128.708 103.359 128.712 103.324 128.728C103.289 128.744 103.26 128.77 103.241 128.803C103.222 128.835 103.214 128.874 103.218 128.911C103.222 128.949 103.238 128.985 103.264 129.013C103.239 129.014 103.215 129.014 103.191 129.013C102.969 128.962 102.873 129.303 103.096 129.353C103.155 129.365 103.216 129.373 103.276 129.379C103.13 129.435 103.096 129.675 103.276 129.694H103.33C103.357 129.702 103.386 129.702 103.413 129.694H103.445C103.44 129.72 103.441 129.746 103.447 129.772C103.452 129.797 103.463 129.821 103.479 129.842C103.494 129.864 103.514 129.882 103.536 129.895C103.559 129.909 103.584 129.918 103.609 129.921C104.139 129.991 104.92 130.202 105.399 129.767C105.728 129.732 106.049 129.645 106.351 129.508C106.652 129.385 106.661 129.088 106.573 128.776Z" fill="#FFCEA9"/>
<path d="M101.154 128.149H101.078C101.103 128.125 101.122 128.094 101.13 128.06C101.139 128.026 101.138 127.991 101.127 127.958C101.116 127.924 101.096 127.895 101.068 127.873C101.041 127.851 101.008 127.837 100.973 127.833C100.862 127.833 99.7453 127.603 99.7453 127.603L99.6089 127.145C99.6089 127.12 99.4154 127.237 99.409 127.24C99.3148 127.302 99.2357 127.383 99.1775 127.48C99.1193 127.576 99.0835 127.684 99.0728 127.795C99.0656 127.952 99.0899 128.109 99.1444 128.256C99.1989 128.403 99.2824 128.539 99.39 128.653C99.5929 128.851 99.8642 128.964 100.148 128.969C100.282 128.969 100.412 128.969 100.529 128.994C100.556 128.996 100.582 128.992 100.607 128.983C100.633 128.975 100.656 128.961 100.675 128.943C100.695 128.925 100.71 128.903 100.721 128.879C100.732 128.854 100.738 128.828 100.738 128.802H100.773C100.799 128.808 100.826 128.808 100.853 128.802H100.91C101.1 128.802 101.116 128.568 100.986 128.486C101.046 128.486 101.106 128.486 101.17 128.486C101.401 128.499 101.379 128.145 101.154 128.149Z" fill="#FFCEA9"/>
<path d="M104.799 119.468C104.492 119.456 104.202 119.327 103.987 119.109C104.031 118.541 104.761 116.386 106.23 116.225C105.831 116.505 105.514 116.886 105.313 117.329C105.087 118.028 104.915 118.743 104.799 119.468Z" fill="#EDEDED"/>
<path d="M112.255 122.317C112.255 122.317 110.792 122.819 109.761 121.977C109.65 121.784 110.358 119.31 110.358 119.31C110.358 119.31 110.973 118.048 111.944 118.547C112.915 119.045 112.255 122.317 112.255 122.317Z" fill="#EDEDED"/>
<path d="M26.9827 121.375C26.9827 121.375 27.1857 124.394 27.5823 124.83C27.9789 125.265 29.3272 125.562 29.3272 125.562L30.3678 127.262C30.3678 127.262 29.416 121.857 29.213 121.728C29.0099 121.599 26.9827 121.375 26.9827 121.375Z" fill="#FFCEA9"/>
<path d="M28.9782 118.011C28.7259 117.894 28.4391 117.873 28.1726 117.954C27.9062 118.034 27.679 118.209 27.5347 118.446C27.1508 119.077 26.7542 121.235 26.7193 121.602C26.7193 121.602 27.2555 122.34 28.0582 122.233L28.9782 118.011Z" fill="#EDEDED"/>
<path d="M32.0429 148.179C32.6083 148.333 33.2121 148.261 33.7243 147.977C34.1272 147.977 36.3258 147.052 36.6241 147.838C36.8874 148.526 35.9356 149.163 35.428 149.286C34.3176 149.554 33.4959 150.104 33.0486 150.198C32.7313 150.268 32.2872 150.312 32.0238 150.053C31.7256 149.741 31.7446 148.589 32.0429 148.179Z" fill="#38226D"/>
<path d="M33.0613 150.006C33.5086 149.915 34.3303 149.375 35.4407 149.095C35.8658 148.994 36.5987 148.53 36.6748 147.978C36.7731 148.609 35.9134 149.173 35.4407 149.287C34.3303 149.555 33.5086 150.104 33.0613 150.199C32.744 150.268 32.2998 150.312 32.0365 150.054C31.9661 149.979 31.9159 149.888 31.8906 149.789C32.0552 149.913 32.2468 149.997 32.45 150.035C32.6533 150.073 32.8625 150.063 33.0613 150.006Z" fill="#9C73FF"/>
<path d="M28.6324 147.116C29.1977 147.272 29.8022 147.199 30.3139 146.914C30.72 146.914 32.9154 145.992 33.2168 146.778C33.4769 147.466 32.5251 148.103 32.0175 148.226C30.9071 148.491 30.0854 149.044 29.6413 149.135C29.3082 149.205 28.8767 149.252 28.6134 148.993C28.2961 148.681 28.3247 147.529 28.6324 147.116Z" fill="#38226D"/>
<path d="M29.6413 148.933C30.0854 148.838 30.9103 148.302 32.0175 148.021C32.4426 147.92 33.1787 147.456 33.2516 146.901C33.35 147.532 32.4902 148.097 32.0175 148.214C30.9071 148.479 30.0854 149.031 29.6413 149.122C29.3081 149.192 28.8767 149.239 28.6133 148.98C28.5447 148.904 28.4948 148.814 28.4674 148.715C28.6327 148.84 28.8248 148.924 29.0285 148.962C29.2322 149 29.442 148.99 29.6413 148.933Z" fill="#9C73FF"/>
<path d="M28.3913 140.969C28.4858 140.158 28.6557 139.357 28.8989 138.577C28.8989 138.577 28.7466 136.511 28.6705 134.551C28.5848 132.342 27.8107 130.373 28.4198 128.6L35.2155 130.105C35.2155 130.105 34.8982 138.984 34.7935 140.057C34.7408 140.893 34.6348 141.724 34.4763 142.547C34.159 144.266 33.8195 148.116 33.8195 148.116C33.0898 148.539 32.0207 148.192 32.0207 148.192C32.0207 148.192 32.0207 143.373 32.0619 142.133C32.119 140.619 32.1666 140.736 32.1666 140.736L31.9382 136.965L31.7891 135.091C31.7891 135.091 31.5987 136.466 31.4718 137.694C31.364 138.767 31.1038 139.735 30.8119 141.733C30.5613 143.462 30.3012 146.993 30.3012 146.993C29.5715 147.412 28.588 147.122 28.588 147.122C28.588 147.122 28.1946 142.471 28.3913 140.969Z" fill="#8C50FF"/>
<path d="M29.3462 118.055C29.8697 118.08 30.2599 118.216 30.3266 118.055C30.3831 117.785 30.4234 117.512 30.4471 117.238C30.3868 117.086 30.3329 116.922 30.3329 116.922C29.673 116.522 29.4668 115.812 29.3811 114.985C29.2352 113.574 30.0156 112.341 31.4179 112.192C32.7536 112.054 33.7339 112.988 33.9972 114.265C34.1368 114.897 34.4192 116.092 34.0385 117.131C33.8259 117.714 33.5531 118.175 33.2802 118.263C33.0156 118.258 32.7516 118.235 32.4902 118.194C32.4902 118.194 32.4204 118.585 32.3729 118.825C32.3253 119.065 32.3411 119.207 32.8456 119.516C33.35 119.825 32.0842 120.463 31.2593 120.396C30.4344 120.33 29.5017 119.838 29.2479 119.308C28.9592 118.737 28.9846 118.036 29.3462 118.055Z" fill="#FFCEA9"/>
<path d="M30.1045 118.134C29.9585 118.494 30.3297 118.935 31.3164 119.241C32.3031 119.547 32.3887 119.153 32.3887 119.153C33.0409 119.446 33.6764 119.775 34.2923 120.138C34.8824 120.548 35.1457 121.74 35.225 123.75C35.317 126.076 35.3265 129.528 35.2472 130.124C35.2472 130.124 34.1431 131.222 32.7091 131.106C31.2751 130.989 28.9021 129.742 28.3342 128.78C28.3342 126.742 28.5912 126.41 28.258 125.233C27.4966 122.542 27.0969 121.447 27.4681 119.655C27.7853 118.181 28.1978 117.998 28.7847 118.011C29.2265 118.028 29.6671 118.069 30.1045 118.134Z" fill="#F4F4F4"/>
<path d="M34.0194 131.916L33.3119 123.813L34.8316 123.012L35.4248 123.507L35.2154 130.783V130.985V131.244C35.2154 131.244 35.2472 131.856 34.086 132.588C34.086 132.588 34.067 132.396 34.0511 132.216L34.0226 131.9L34.0194 131.916Z" fill="#FFCEA9"/>
<path d="M33.8386 119.636C34.6222 119.636 35.1076 120.033 35.3138 121.236C35.52 122.438 35.6311 123.422 35.6311 123.422C35.2701 123.821 34.7695 124.067 34.232 124.11C33.2802 124.214 33.0074 123.735 33.0074 123.735C33.0074 123.735 32.9059 122.488 32.8551 121.639C32.8043 120.791 32.8678 119.655 33.8386 119.636Z" fill="#EDEDED"/>
<path d="M33.9464 114.085C33.9464 114.085 35.171 112.233 32.5156 111.855C30.612 111.583 29.3684 112.801 29.2256 114.136C29.0892 115.398 29.876 116.72 30.4439 117.244C31.0016 117.385 31.592 117.314 32.1 117.045C32.1311 116.7 32.1427 116.353 32.1349 116.007C32.1349 116.007 31.2053 114.051 33.9464 114.085Z" fill="#3A2C6D"/>
<path d="M7.18902 74.4443C6.90983 73.9963 4.77787 73.7028 4.07673 75.4982C3.81024 76.1798 3.85148 77.9215 3.6294 79.0133C3.40732 80.105 2.88385 80.7266 2.69667 81.6133C2.50949 82.4999 2.81405 83.9893 4.96505 84.2512C7.11605 84.5131 8.77212 83.7621 9.27339 83.0805C9.77465 82.399 9.79052 80.9507 9.27339 80.1745C8.75626 79.3982 8.347 78.764 8.35969 77.7511L7.18902 74.4443Z" fill="#3A2C6D"/>
<path d="M9.73976 81.9573C9.73976 81.9573 10.2442 85.5102 9.29243 88.0345C8.34066 90.5588 8.60081 87.3877 8.60081 87.3877L8.83241 86.6336C8.83241 86.6336 9.02276 83.7369 8.94345 83.027C8.86413 82.317 8.88317 81.7049 8.83241 81.6481C8.78164 81.5913 9.01959 81.4777 9.12111 81.4651C9.22263 81.4525 9.73976 81.9573 9.73976 81.9573Z" fill="#FFCEA9"/>
<path d="M5.78043 74.1321C5.78043 74.1321 7.38574 73.6746 8.35655 74.536C8.67756 74.8297 8.91146 75.2053 9.03284 75.622C9.15422 76.0387 9.15842 76.4805 9.04499 76.8994C8.91492 77.4042 8.65477 78.0921 8.25185 78.13C7.84894 78.1678 5.78043 74.1321 5.78043 74.1321Z" fill="#3A2C6D"/>
<path d="M5.16811 78.4863C5.16811 78.4863 5.27281 80.2628 5.24108 80.3795C5.20935 80.4963 4.53677 80.6383 4.34959 80.7929C4.16241 80.9475 5.32357 82.7524 5.91366 83.0206C6.50376 83.2888 8.32798 82.6041 8.45171 81.7016C8.5691 80.8686 7.93141 80.2218 7.68395 79.9977C7.51601 79.9861 7.34746 79.9861 7.17952 79.9977L7.12558 79.1332C6.34513 78.8839 5.16811 78.4863 5.16811 78.4863Z" fill="#FFCEA9"/>
<path d="M4.92065 80.5659C4.41938 80.6448 3.84515 80.9099 3.76583 81.197C3.55975 82.183 3.60997 83.2049 3.91177 84.1662C4.34641 85.3084 4.63829 86.0373 4.88892 86.5296C4.88892 86.5296 7.06213 87.4572 8.81655 86.3781C8.81655 86.3781 8.93394 85.1507 8.94345 84.4849C10.5615 83.0807 9.17823 81.3516 7.80768 80.0074C7.64309 79.9917 7.47735 79.9917 7.31276 80.0074C7.31276 80.0074 8.53737 81.4431 7.68712 82.2604C5.86607 81.705 5.5044 80.8909 4.92065 80.5659Z" fill="#F4F4F4"/>
<path d="M8.5088 76.2813C8.32797 75.1391 7.49676 74.2776 6.31339 74.3439C5.70837 74.3805 5.1426 74.6541 4.74002 75.1048C4.33744 75.5554 4.13087 76.1464 4.16557 76.7483C4.18644 77.0954 4.28781 77.4329 4.46174 77.7346C4.63567 78.0362 4.87743 78.2937 5.1681 78.4869C5.20964 78.6592 5.27029 78.8264 5.34893 78.9854C5.77088 79.4714 6.88445 79.7806 7.25247 79.7837C7.56973 79.7837 7.84574 79.4934 8.14396 79.0012C8.76261 77.9789 8.60715 76.8461 8.5088 76.2813Z" fill="#FFCEA9"/>
<path d="M5.94535 74.3654C5.11414 74.5263 4.43203 74.7598 4.20678 75.5707C4.05133 76.1292 3.84828 77.1957 4.04181 77.6438L4.16237 77.9593L5.16807 78.4768C5.16807 78.4768 5.63761 78.0855 5.48533 76.9464C5.48952 76.7921 5.53795 76.6421 5.62492 76.5142C5.68851 76.406 5.73556 76.289 5.76451 76.1671C5.88337 75.8585 6.11752 75.6075 6.41806 75.4666C7.16678 75.0469 8.26449 75.4098 8.41677 75.5612C8.20503 75.1104 7.84398 74.7456 7.39407 74.5279C6.94416 74.3102 6.43271 74.2528 5.94535 74.3654Z" fill="#3A2C6D"/>
<path d="M4.44155 110.384C4.8635 110.725 5.51705 110.488 5.54878 110.52C6.03779 110.94 6.54932 111.334 7.08112 111.7C7.34445 111.905 7.75371 112.179 7.68074 112.574C7.54749 113.277 6.41171 113.06 5.98342 112.845C5.55512 112.631 5.20614 112.271 4.80322 112.022C4.51452 111.845 4.22899 111.75 4.16871 111.39C4.15602 111.16 4.36224 110.374 4.44155 110.384Z" fill="#38226D"/>
<path d="M4.19097 111.232C4.2449 111.58 4.52726 111.674 4.82548 111.863C5.23791 112.116 5.59959 112.495 6.02788 112.7C6.45618 112.905 7.40795 113.094 7.68713 112.592C7.53485 113.271 6.41811 113.059 5.99616 112.845C5.57421 112.63 5.21888 112.271 4.81596 112.021C4.52726 111.845 4.24173 111.75 4.18145 111.39C4.17571 111.337 4.17893 111.284 4.19097 111.232Z" fill="#9C73FF"/>
<path d="M7.38573 109.807C7.77278 110.122 8.3375 109.942 8.38191 109.971C8.83065 110.354 9.30095 110.711 9.79053 111.04C10.0285 111.227 10.4028 111.479 10.3362 111.839C10.2157 112.47 9.17505 112.287 8.78483 112.088C8.3946 111.889 8.071 111.564 7.69981 111.334C7.43649 111.173 7.17634 111.088 7.1351 110.753C7.14798 110.423 7.23354 110.1 7.38573 109.807Z" fill="#38226D"/>
<path d="M7.14144 110.611C7.1922 110.926 7.4587 111.018 7.70933 111.179C8.08687 111.412 8.41999 111.747 8.81021 111.946C9.20044 112.144 10.0792 112.308 10.3299 111.848C10.1934 112.479 9.17188 112.274 8.78483 112.078C8.39778 111.882 8.071 111.554 7.69981 111.324C7.43649 111.163 7.17634 111.078 7.1351 110.743C7.1313 110.699 7.13344 110.655 7.14144 110.611Z" fill="#9C73FF"/>
<path d="M9.65409 90.3409C9.46691 88.8989 8.93392 86.8037 8.93392 86.8037C8.42854 87.0377 7.88224 87.1716 7.32543 87.1981C6.50876 87.1961 5.69408 87.1179 4.89208 86.9646C4.62967 87.4187 4.34375 87.859 4.03549 88.2836C3.61671 88.861 2.80136 90.1263 2.99806 92.335C3.12813 93.7802 3.94983 99.9079 3.94983 99.9079C3.63396 100.939 3.46628 102.01 3.45173 103.088C3.52681 104.37 3.69647 105.644 3.95934 106.9L4.44475 110.371C4.44475 110.371 5.07926 110.835 5.55197 110.507L5.49486 107.099C5.5488 106.266 5.63128 105.035 5.68522 104.259C5.77405 102.981 6.00247 100.949 6.0691 100.444C6.13572 99.9394 6.30069 99.0496 6.38635 98.0557C6.47201 97.0618 6.84003 92.0132 6.84003 92.0132L6.89396 92.9598C6.89396 92.9598 6.94155 94.4965 7.16363 96.3897C7.38571 98.2829 7.46502 99.1222 7.46502 99.1222C7.24972 99.5017 7.09658 99.9128 7.01135 100.34C6.97328 100.747 6.50057 103.985 6.78292 105.632L7.36033 109.819C7.50425 109.917 7.66959 109.98 7.84277 110.003C8.01594 110.025 8.19201 110.007 8.35651 109.948L8.69598 105.73C8.9244 104.123 9.40663 100.719 9.4796 100.277C9.64344 99.3852 9.73994 98.4823 9.7683 97.5761C9.88071 95.1643 9.84257 92.7479 9.65409 90.3409Z" fill="#FFCEA9"/>
<path d="M4.88894 86.5173L3.63895 89.0131C3.63895 89.0131 1.73541 91.7867 3.70875 98.9178L3.33756 101.127C3.33756 101.127 7.07483 103.512 9.57799 101.127C9.57799 101.127 10.4441 94.5382 9.98407 91.4996C9.72687 89.7522 9.33766 88.0266 8.81974 86.3374C8.81974 86.3374 8.20744 87.0095 5.05391 86.5646" fill="#8C50FF"/>
<path d="M12.7061 88.2898C12.3869 88.3028 12.069 88.3365 11.7543 88.3908C11.4545 88.4845 11.1422 88.5323 10.8279 88.5328C10.4853 88.5328 9.53034 88.0595 8.71182 87.4884C7.82312 86.8244 7.05489 86.0145 6.44027 85.0934C5.7957 84.1107 5.23435 83.0764 4.76198 82.0012C4.49549 81.2376 4.50183 81.7582 4.04816 81.7456C3.51199 81.7456 3.22646 81.9286 3.62621 82.9667C4.02612 84.0409 4.58423 85.0501 5.28228 85.9612C5.93785 86.88 6.74567 87.6813 7.67122 88.3308C8.48642 88.8986 9.36731 89.3669 10.2949 89.7255C10.5614 89.8328 10.7327 89.9811 11.215 90.2461C11.6993 90.5219 12.2436 90.6767 12.8013 90.6973C13.2644 90.6973 13.4358 90.609 13.4675 90.5143C13.4992 90.4197 13.4262 90.3156 13.2137 90.2966C12.8756 90.2914 12.5413 90.2251 12.227 90.101C12.227 90.101 12.687 90.1672 12.9662 90.1799C13.2162 90.1946 13.467 90.1755 13.7118 90.1231C13.9465 90.0663 14.0766 89.7381 13.8641 89.7129C13.6515 89.6876 13.477 89.7129 13.0646 89.6971C12.8492 89.6827 12.6363 89.6436 12.4301 89.5804C12.7072 89.5824 12.9841 89.5623 13.2581 89.5204C13.4802 89.4987 13.6915 89.4144 13.8672 89.2774C13.9592 89.2017 13.9751 88.9903 13.7054 88.9935C13.3725 89.0513 13.0337 89.0683 12.6966 89.0439C12.3634 88.9966 12.1318 88.9177 12.1826 88.8736C12.2334 88.8294 12.4301 88.8736 12.7093 88.7726C12.9884 88.6716 13.1788 88.4286 13.1153 88.2867C13.0519 88.1447 13.0075 88.2362 12.7061 88.2898Z" fill="#FFCEA9"/>
<path d="M3.86418 83.9515C3.86418 83.9515 5.08878 84.0147 5.78358 83.2542L5.02851 81.6765C5.02851 81.6765 4.6827 80.8088 3.86735 81.0234C3.052 81.2379 3.03931 82.3896 3.86418 83.9515Z" fill="#EDEDED"/>
<path d="M7.80769 80.0044C7.80769 80.0044 8.8007 79.6888 9.85399 81.8976L9.46059 82.1342C9.46059 82.1342 8.42316 80.5628 7.80769 80.0044Z" fill="#EDEDED"/>
<path d="M24.9205 34.3938L7.36353 24.2967L7.2969 24.2588C6.80198 23.9969 6.13257 24.0442 5.39336 24.4671C3.88005 25.3379 2.65227 27.452 2.65227 29.2001C2.65227 30.0994 2.98539 30.721 3.51521 30.9892L21.3101 41.2031L24.9205 34.3938Z" fill="#2AB7CA"/>
<path d="M25.0709 38.9155C26.1414 37.0713 26.1421 35.0783 25.0723 34.464C24.0025 33.8497 22.2674 34.8468 21.1969 36.691C20.1263 38.5352 20.1256 40.5282 21.1954 41.1425C22.2652 41.7568 24.0003 40.7598 25.0709 38.9155Z" fill="#259CA5"/>
<path d="M30.9769 45.3549L21.8304 40.1044V36.4189L30.9769 41.6726V45.3549Z" fill="#D6D8E5"/>
<path d="M30.9769 41.6794L21.8304 36.4289L23.9369 35.2173L33.0834 40.4709L30.9769 41.6794Z" fill="#C4C7D6"/>
<path d="M53.3609 65.7721C58.8661 62.6109 58.866 52.3602 53.3607 42.8765C47.8554 33.3928 38.9297 28.2674 33.4245 31.4285C27.9193 34.5897 27.9194 44.8404 33.4247 54.3241C38.93 63.8078 47.8557 68.9332 53.3609 65.7721Z" fill="url(#paint0_linear)"/>
<path d="M45.3169 67.1558C35.8785 61.7349 28.1851 48.5045 28.1851 37.6627C28.1851 26.8209 35.8658 22.4129 45.3169 27.8338C54.7679 33.2547 62.4487 46.4851 62.4487 57.3238C62.4487 68.1624 54.7584 72.5736 45.3169 67.1558ZM45.3169 34.0435C38.8575 30.3328 33.6038 33.3494 33.6038 40.7676C33.6038 48.1858 38.8575 57.2386 45.3169 60.9619C51.7762 64.6852 57.03 61.6529 57.03 54.2378C57.03 46.8227 51.7762 37.7511 45.3169 34.0435Z" fill="#259CA5"/>
<path d="M43.3943 68.2603C33.9527 62.8394 26.2625 49.609 26.2625 38.7672C26.2625 27.9254 33.94 23.5174 43.3943 28.9383C52.8485 34.3592 60.5261 47.5896 60.5261 58.4282C60.5261 69.2669 52.8327 73.6812 43.3943 68.2603ZM43.3943 35.148C36.9349 31.4373 31.6812 34.4539 31.6812 41.8721C31.6812 49.2903 36.9349 58.343 43.3943 62.0664C49.8536 65.7897 55.1074 62.7574 55.1074 55.3423C55.1074 47.9272 49.8536 38.8556 43.3943 35.148Z" fill="#2AB7CA"/>
</g>
<defs>
<linearGradient id="paint0_linear" x1="59.1578" y1="57.6509" x2="27.7148" y2="39.3974" gradientUnits="userSpaceOnUse">
<stop stop-color="white" stop-opacity="0.4"/>
<stop offset="0.89" stop-color="white" stop-opacity="0"/>
</linearGradient>
<clipPath id="clip0">
<rect width="148" height="153" fill="white"/>
</clipPath>
</defs>
</svg>
