<svg width="143" height="153" viewBox="0 0 143 153" fill="none" xmlns="http://www.w3.org/2000/svg">
<g clip-path="url(#clip0)">
<path d="M137.239 117.697L60.9738 73.5105C59.9033 72.8985 59.0372 71.2277 59.0372 69.7987V10.5969C59.0372 9.16482 59.9033 8.50692 60.9738 9.1281L137.239 53.3145C138.309 53.9265 139.176 55.5973 139.176 57.0263V116.228C139.188 117.66 138.322 118.318 137.239 117.697Z" fill="#B1B4C4"/>
<path d="M137.645 118.309L138.489 117.819L138.123 115.307L137.645 118.309Z" fill="#B1B4C4"/>
<path d="M58.8999 9.48592L59.7325 9.00244L60.928 9.68788C60.928 9.68788 59.6532 9.88066 59.6227 9.87454C59.5922 9.86842 58.8999 9.48592 58.8999 9.48592Z" fill="#B1B4C4"/>
<path d="M136.553 118.116L60.2753 73.9177C59.2049 73.3057 58.3357 71.6349 58.3357 70.2029V11.0163C58.3357 9.58426 59.2049 8.92636 60.2753 9.54754L136.553 53.7339C137.623 54.3459 138.489 56.0167 138.489 57.4488V116.635C138.489 118.064 137.623 118.728 136.553 118.116Z" fill="#E4E7F2"/>
<path d="M136.419 118.18L60.1412 73.9937C59.0707 73.3817 58.2015 71.711 58.2015 70.2789V11.0771C58.2015 9.64807 59.0707 8.99017 60.1412 9.60829L136.419 53.7947C137.486 54.4067 138.355 56.0774 138.355 57.5095V116.711C138.355 118.143 137.486 118.801 136.419 118.18Z" fill="#D6D8E5"/>
<path d="M137.306 114.579L59.1652 69.3184L59.211 11.3222C59.211 10.7286 59.6257 10.4868 60.1259 10.7836L136.403 54.97C136.671 55.1481 136.893 55.3868 137.052 55.6669C137.211 55.947 137.302 56.2607 137.318 56.5827L137.306 114.579Z" fill="white"/>
<path opacity="0.5" d="M137.282 114.582L59.1652 69.3214L59.1896 11.3222C59.1896 10.7286 59.6044 10.4868 60.1045 10.7836L136.382 54.97C136.65 55.1483 136.872 55.387 137.031 55.6671C137.19 55.9472 137.281 56.2608 137.297 56.5827L137.282 114.582Z" fill="url(#paint0_linear)"/>
<path opacity="0.4" d="M78.888 152.581L2.61058 108.394C1.54012 107.782 1.67431 106.693 2.91556 105.977L54.0142 76.3746C55.2341 75.6616 57.1189 75.582 58.1863 76.2032L134.467 120.39C135.534 121.002 135.4 122.091 134.162 122.807L83.0601 152.409C81.8249 153.122 79.9554 153.202 78.888 152.581Z" fill="#D6D8E5"/>
<path d="M80.5532 151.577L4.26964 107.406C3.19918 106.794 3.33337 105.705 4.57462 104.989L55.6733 75.3896C56.8932 74.6735 58.7779 74.594 59.8484 75.2152L136.126 119.402C137.196 120.014 137.062 121.103 135.821 121.819L84.7283 151.406C83.4931 152.119 81.6236 152.199 80.5532 151.577Z" fill="#B1B4C4"/>
<path d="M3.55298 106.393V104.949L5.16935 105.628L3.55298 106.393Z" fill="#B1B4C4"/>
<path d="M136.849 120.466V119.055L135.653 119.468L136.446 120.637L136.849 120.466Z" fill="#B1B4C4"/>
<path d="M80.5532 150.362L4.26964 106.182C3.19918 105.57 3.33337 104.481 4.57462 103.765L55.6733 74.1622C56.8932 73.4462 58.7779 73.3697 59.8484 73.9909L136.126 118.177C137.196 118.789 137.062 119.879 135.821 120.595L84.7283 150.188C83.4931 150.904 81.6236 150.984 80.5532 150.362Z" fill="#E4E7F2"/>
<path d="M80.5532 150.176L4.26964 105.989C3.19918 105.377 3.33337 104.285 4.57462 103.572L55.6733 73.9694C56.8932 73.2533 58.7779 73.1768 59.8484 73.795L136.126 117.984C137.196 118.596 137.062 119.686 135.821 120.402L84.7283 150.001C83.4931 150.717 81.6236 150.794 80.5532 150.176Z" fill="#D6D8E5"/>
<path d="M54.2582 83.954L50.7082 81.8977C50.4033 81.7294 50.4551 81.4356 50.7875 81.2429L54.1789 79.2783C54.3503 79.1826 54.5416 79.1286 54.7376 79.1207C54.9336 79.1127 55.1287 79.151 55.3073 79.2324L58.8602 81.2888C59.15 81.4571 59.1134 81.7508 58.7779 81.9436L55.3896 83.9081C55.2177 84.0039 55.0258 84.0579 54.8293 84.0658C54.6328 84.0738 54.4372 84.0355 54.2582 83.954Z" fill="#2B303F"/>
<path d="M59.2872 86.8672L55.7343 84.8078C55.4445 84.6425 55.4811 84.3488 55.8166 84.1529L59.2049 82.1915C59.3768 82.0957 59.5687 82.0417 59.7652 82.0337C59.9617 82.0258 60.1573 82.0641 60.3364 82.1456L63.8863 84.2019C64.1912 84.3702 64.1394 84.664 63.807 84.8567L60.4157 86.8182C60.2447 86.9151 60.0534 86.97 59.8573 86.9785C59.6612 86.987 59.4658 86.9489 59.2872 86.8672Z" fill="#2B303F"/>
<path d="M64.3712 89.8142L60.8213 87.7549C60.5163 87.5866 60.5682 87.2928 60.9006 87.1L64.2919 85.1386C64.4628 85.0417 64.6541 84.9867 64.8502 84.9782C65.0464 84.9697 65.2417 85.0079 65.4203 85.0896L68.9733 87.149C69.2783 87.3142 69.2264 87.608 68.8909 87.8038L65.5027 89.7653C65.3306 89.8606 65.139 89.9146 64.9427 89.9231C64.7463 89.9316 64.5507 89.8943 64.3712 89.8142Z" fill="#2B303F"/>
<path d="M69.3422 92.6904L65.7893 90.6341C65.4995 90.4658 65.5361 90.172 65.8716 89.9792L69.2599 88.0147C69.4318 87.919 69.6237 87.865 69.8202 87.857C70.0167 87.849 70.2123 87.8873 70.3914 87.9688L73.9443 90.0251C74.234 90.1934 74.1974 90.4872 73.862 90.68L70.4737 92.6445C70.3018 92.7402 70.1099 92.7942 69.9134 92.8022C69.7169 92.8102 69.5213 92.7719 69.3422 92.6904Z" fill="#2B303F"/>
<path d="M74.3713 95.6035L70.8184 93.5472C70.5134 93.3789 70.5653 93.0851 70.9007 92.8923L74.289 90.9278C74.4609 90.8321 74.6528 90.778 74.8493 90.7701C75.0458 90.7621 75.2414 90.8004 75.4205 90.8819L78.9704 92.9382C79.2601 93.1065 79.2235 93.4003 78.888 93.593L75.4997 95.5576C75.3284 95.6533 75.137 95.7073 74.941 95.7153C74.745 95.7232 74.5499 95.6849 74.3713 95.6035Z" fill="#2B303F"/>
<path d="M79.3973 98.5317L75.8474 96.4754C75.5577 96.3071 75.5912 96.0133 75.9267 95.8206L79.315 93.856C79.4869 93.7603 79.6788 93.7063 79.8753 93.6983C80.0718 93.6903 80.2674 93.7286 80.4464 93.8101L83.9994 95.8664C84.2891 96.0347 84.2525 96.3285 83.9171 96.5213L80.5288 98.4858C80.3568 98.5815 80.165 98.6356 79.9685 98.6435C79.772 98.6515 79.5764 98.6132 79.3973 98.5317Z" fill="#2B303F"/>
<path d="M84.4263 101.43L80.8734 99.3733C80.5836 99.205 80.6202 98.9113 80.9557 98.7185L84.344 96.754C84.5159 96.6582 84.7078 96.6042 84.9043 96.5962C85.1008 96.5883 85.2964 96.6266 85.4755 96.7081L89.0254 98.7644C89.3151 98.9327 89.2785 99.2265 88.9461 99.4192L85.5548 101.381C85.3838 101.478 85.1925 101.533 84.9964 101.541C84.8003 101.55 84.6049 101.511 84.4263 101.43Z" fill="#2B303F"/>
<path d="M89.4524 104.346L85.9025 102.287C85.6127 102.118 85.6493 101.828 85.9818 101.632L89.3731 99.6703C89.544 99.5734 89.7353 99.5185 89.9314 99.51C90.1275 99.5014 90.3229 99.5396 90.5015 99.6213L94.0544 101.681C94.3594 101.849 94.3076 102.14 93.9721 102.336L90.5777 104.294C90.4073 104.39 90.2167 104.445 90.0212 104.454C89.8258 104.463 89.6309 104.426 89.4524 104.346Z" fill="#2B303F"/>
<path d="M94.4814 107.253L90.9285 105.197C90.6388 105.028 90.6754 104.735 91.0108 104.542L94.3991 102.58C94.5706 102.484 94.7624 102.429 94.959 102.42C95.1556 102.412 95.3514 102.45 95.5306 102.532L99.0805 104.591C99.3702 104.756 99.3336 105.05 99.0012 105.246L95.6129 107.207C95.441 107.303 95.2491 107.357 95.0526 107.365C94.8561 107.373 94.6605 107.335 94.4814 107.253Z" fill="#2B303F"/>
<path d="M99.5074 110.16L95.9575 108.104C95.6678 107.936 95.7044 107.642 96.0368 107.449L99.422 105.491C99.5934 105.395 99.7848 105.341 99.9808 105.333C100.177 105.325 100.372 105.363 100.55 105.445L104.103 107.501C104.393 107.669 104.357 107.963 104.021 108.156L100.642 110.121C100.469 110.216 100.276 110.269 100.079 110.276C99.8824 110.283 99.6864 110.243 99.5074 110.16Z" fill="#2B303F"/>
<path d="M104.537 113.08L100.984 111.023C100.694 110.855 100.73 110.561 101.066 110.368L104.454 108.404C104.626 108.308 104.818 108.254 105.014 108.246C105.211 108.238 105.407 108.276 105.586 108.358L109.139 110.414C109.428 110.583 109.392 110.876 109.056 111.069L105.668 113.034C105.496 113.129 105.304 113.183 105.108 113.191C104.911 113.199 104.716 113.161 104.537 113.08Z" fill="#2B303F"/>
<path d="M109.566 115.993L106.013 113.936C105.723 113.768 105.759 113.474 106.095 113.281L109.486 111.317C109.658 111.221 109.85 111.167 110.047 111.159C110.243 111.151 110.439 111.19 110.618 111.271L114.168 113.327C114.473 113.496 114.421 113.789 114.085 113.982L110.706 115.947C110.533 116.044 110.34 116.1 110.141 116.108C109.943 116.116 109.746 116.076 109.566 115.993Z" fill="#2B303F"/>
<path d="M114.592 118.905L111.042 116.846C110.737 116.678 110.785 116.387 111.121 116.191L114.509 114.23C114.681 114.134 114.873 114.079 115.069 114.071C115.266 114.062 115.461 114.1 115.641 114.181L119.194 116.24C119.483 116.409 119.447 116.699 119.111 116.895L115.723 118.857C115.552 118.953 115.36 119.008 115.163 119.017C114.966 119.025 114.771 118.987 114.592 118.905Z" fill="#2B303F"/>
<path d="M122.042 123.22L116.068 119.759C115.778 119.591 115.814 119.297 116.15 119.104L119.55 117.143C119.722 117.046 119.914 116.991 120.11 116.983C120.307 116.974 120.503 117.012 120.682 117.094L126.641 120.564C126.931 120.732 126.894 121.026 126.562 121.219L123.17 123.183C122.998 123.278 122.807 123.33 122.611 123.336C122.415 123.343 122.22 123.303 122.042 123.22Z" fill="#2B303F"/>
<path d="M56.8444 91.0964L53.2915 89.0462C52.9865 88.8779 53.0383 88.5841 53.3738 88.3913L56.7621 86.4268C56.934 86.3311 57.1259 86.2771 57.3224 86.2691C57.5189 86.2611 57.7145 86.2994 57.8935 86.3809L61.4435 88.4342C61.7332 88.6025 61.6966 88.8963 61.3642 89.089L57.9728 91.0535C57.8012 91.1488 57.6097 91.2022 57.4137 91.2097C57.2177 91.2171 57.0227 91.1783 56.8444 91.0964Z" fill="#2B303F"/>
<path d="M61.8796 94.0155L58.3297 91.9592C58.0399 91.7909 58.0765 91.4971 58.4089 91.3044L61.8003 89.3521C61.9717 89.2564 62.1631 89.2024 62.359 89.1944C62.555 89.1864 62.7501 89.2247 62.9287 89.3062L66.4847 91.3503C66.7744 91.5186 66.7378 91.8123 66.4024 92.0051L63.0141 93.9696C62.8418 94.0658 62.6493 94.1201 62.4523 94.1281C62.2552 94.1361 62.059 94.0975 61.8796 94.0155Z" fill="#2B303F"/>
<path d="M66.9177 96.9316L63.3648 94.8753C63.0598 94.707 63.1116 94.4132 63.4471 94.2204L66.8354 92.2559C67.0073 92.1602 67.1992 92.1062 67.3957 92.0982C67.5922 92.0902 67.7878 92.1285 67.9669 92.21L71.5168 94.2663C71.8065 94.4346 71.7699 94.7284 71.4375 94.9212L68.0461 96.8857C67.8748 96.9814 67.6834 97.0354 67.4874 97.0434C67.2914 97.0513 67.0963 97.013 66.9177 96.9316Z" fill="#2B303F"/>
<path d="M71.9529 99.8512L68.3999 97.7918C68.1102 97.6265 68.1468 97.3328 68.4823 97.1369L71.8705 95.1663C72.0422 95.0701 72.234 95.0155 72.4305 95.007C72.627 94.9985 72.8227 95.0363 73.002 95.1173L76.5489 97.1859C76.8386 97.3542 76.802 97.6449 76.4665 97.8407L73.0782 99.8022C72.9076 99.8981 72.7168 99.9525 72.5214 99.961C72.3259 99.9695 72.1312 99.9319 71.9529 99.8512Z" fill="#2B303F"/>
<path d="M76.9484 102.745L73.3985 100.674C73.1088 100.506 73.1454 100.215 73.4778 100.019L76.8691 98.0575C77.04 97.9606 77.2313 97.9057 77.4275 97.8972C77.6236 97.8887 77.8189 97.9268 77.9975 98.0085L81.5505 100.068C81.8554 100.233 81.8036 100.527 81.4681 100.723L78.0738 102.696C77.9028 102.792 77.7122 102.846 77.5168 102.854C77.3215 102.863 77.1269 102.825 76.9484 102.745Z" fill="#2B303F"/>
<path d="M81.9865 105.662L78.4336 103.606C78.1438 103.437 78.1804 103.143 78.5159 102.951L81.9042 100.98C82.0761 100.884 82.268 100.83 82.4645 100.822C82.661 100.814 82.8566 100.853 83.0356 100.934L86.5856 102.99C86.8753 103.159 86.8387 103.453 86.5063 103.645L83.1149 105.61C82.944 105.707 82.7529 105.762 82.5569 105.771C82.3609 105.78 82.1655 105.742 81.9865 105.662Z" fill="#2B303F"/>
<path d="M87.0217 108.578L83.4688 106.522C83.179 106.354 83.2156 106.06 83.5511 105.867L86.9394 103.906C87.1108 103.809 87.3027 103.754 87.4993 103.745C87.6959 103.737 87.8917 103.775 88.0708 103.857L91.6238 105.916C91.9135 106.081 91.8769 106.375 91.5415 106.571L88.1532 108.532C87.9813 108.628 87.7894 108.682 87.5929 108.69C87.3964 108.698 87.2008 108.66 87.0217 108.578Z" fill="#2B303F"/>
<path d="M92.0568 111.497L88.5069 109.441C88.2172 109.273 88.2538 108.979 88.5893 108.786L91.9775 106.822C92.1489 106.726 92.3403 106.672 92.5363 106.664C92.7323 106.656 92.9274 106.694 93.106 106.776L96.6589 108.832C96.9487 109.001 96.9121 109.294 96.5766 109.487L93.1883 111.452C93.0164 111.547 92.8245 111.601 92.628 111.609C92.4315 111.617 92.2359 111.579 92.0568 111.497Z" fill="#2B303F"/>
<path d="M97.0951 114.414L93.5421 112.357C93.2372 112.189 93.289 111.895 93.6245 111.702L97.0128 109.738C97.1847 109.642 97.3766 109.588 97.5731 109.58C97.7695 109.572 97.9651 109.61 98.1442 109.692L101.694 111.748C101.984 111.917 101.95 112.21 101.615 112.403L98.2266 114.368C98.0546 114.463 97.8627 114.517 97.6663 114.525C97.4698 114.533 97.2742 114.495 97.0951 114.414Z" fill="#2B303F"/>
<path d="M102.13 117.333L98.5803 115.274C98.2906 115.108 98.3272 114.815 98.6596 114.619L102.051 112.657C102.222 112.562 102.414 112.508 102.609 112.499C102.805 112.491 103 112.528 103.179 112.608L106.741 114.668C107.031 114.836 106.995 115.13 106.659 115.323L103.271 117.284C103.098 117.383 102.905 117.438 102.706 117.447C102.508 117.455 102.311 117.416 102.13 117.333Z" fill="#2B303F"/>
<path d="M107.168 120.258L103.615 118.202C103.326 118.034 103.362 117.74 103.698 117.547L107.086 115.583C107.258 115.487 107.45 115.433 107.646 115.425C107.843 115.417 108.038 115.455 108.218 115.537L111.767 117.593C112.057 117.761 112.021 118.055 111.688 118.248L108.297 120.212C108.125 120.308 107.934 120.362 107.738 120.37C107.542 120.378 107.347 120.34 107.168 120.258Z" fill="#2B303F"/>
<path d="M112.204 123.168L108.654 121.109C108.364 120.94 108.397 120.65 108.733 120.454L112.121 118.492C112.293 118.396 112.485 118.342 112.681 118.333C112.878 118.325 113.073 118.362 113.253 118.444L116.806 120.503C117.095 120.671 117.059 120.962 116.723 121.158L113.335 123.119C113.164 123.216 112.972 123.271 112.775 123.28C112.578 123.288 112.383 123.25 112.204 123.168Z" fill="#2B303F"/>
<path d="M51.8062 88.1806L45.8348 84.7197C45.5451 84.5514 45.5817 84.2607 45.9141 84.0649L49.3054 82.1034C49.4763 82.0065 49.6676 81.9516 49.8637 81.9431C50.0599 81.9346 50.2552 81.9727 50.4338 82.0544L56.4205 85.5153C56.7102 85.6836 56.6736 85.9774 56.3381 86.1701L52.9377 88.1285C52.7662 88.2252 52.5746 88.2803 52.3781 88.2894C52.1816 88.2984 51.9857 88.2611 51.8062 88.1806Z" fill="#2B303F"/>
<path d="M121.798 123.407L118.248 121.351C118.085 121.267 117.904 121.223 117.721 121.223C117.537 121.223 117.356 121.267 117.193 121.351L113.613 123.425C113.308 123.594 113.308 123.866 113.613 124.037L113.896 124.203C114.165 124.356 114.161 124.61 113.896 124.766L110.096 126.957C109.791 127.128 109.791 127.4 110.096 127.569L112.356 128.878C112.519 128.961 112.699 129.005 112.882 129.005C113.065 129.005 113.245 128.961 113.408 128.878L116.952 126.828L117.684 126.403L118.212 126.097L118.742 125.791L121.792 124.025C122.088 123.848 122.088 123.575 121.798 123.407Z" fill="#2B303F"/>
<path d="M34.7855 95.258L31.2356 93.2017C30.9306 93.0334 30.9825 92.7396 31.3149 92.5468L34.7062 90.5762C34.8776 90.4805 35.069 90.4265 35.265 90.4185C35.461 90.4105 35.6561 90.4488 35.8346 90.5303L39.3876 92.5866C39.6773 92.7549 39.6407 93.0487 39.3053 93.2415L35.917 95.206C35.7455 95.3027 35.5539 95.3578 35.3574 95.3668C35.1609 95.3758 34.9651 95.3386 34.7855 95.258Z" fill="#2B303F"/>
<path d="M39.7993 98.162L36.2494 96.1057C35.9444 95.9374 35.9963 95.6436 36.3287 95.4509L39.72 93.4864C39.8914 93.3907 40.0828 93.3366 40.2788 93.3287C40.4747 93.3207 40.6699 93.359 40.8484 93.4404L44.4014 95.4968C44.6911 95.6651 44.6545 95.9588 44.319 96.1516L40.9308 98.1161C40.7588 98.2119 40.5669 98.2659 40.3705 98.2738C40.174 98.2818 39.9784 98.2435 39.7993 98.162Z" fill="#2B303F"/>
<path d="M44.8131 101.066L41.2632 99.0096C40.9582 98.8413 41.007 98.5475 41.3424 98.3547L44.7307 96.3902C44.9027 96.2945 45.0945 96.2404 45.291 96.2325C45.4875 96.2245 45.6831 96.2628 45.8622 96.3443L49.406 98.4006C49.6957 98.5689 49.6591 98.8627 49.3237 99.0555L45.9354 101.02C45.7646 101.114 45.5744 101.167 45.3796 101.175C45.1849 101.183 44.9909 101.146 44.8131 101.066Z" fill="#2B303F"/>
<path d="M87.5097 125.8L83.9568 123.741C83.6518 123.575 83.7036 123.282 84.0391 123.086L87.4274 121.124C87.5991 121.028 87.7908 120.974 87.9873 120.965C88.1838 120.957 88.3795 120.994 88.5588 121.075L92.1026 123.135C92.4076 123.303 92.3558 123.594 92.0203 123.79L88.6381 125.766C88.466 125.861 88.274 125.913 88.0779 125.919C87.8818 125.925 87.6871 125.884 87.5097 125.8Z" fill="#2B303F"/>
<path d="M92.5204 128.704L88.9705 126.648C88.6655 126.479 88.7174 126.186 89.0498 125.993L92.4411 124.028C92.6125 123.933 92.8039 123.879 92.9999 123.871C93.1959 123.863 93.391 123.901 93.5695 123.982L97.1225 126.039C97.4275 126.207 97.3756 126.501 97.0402 126.694L93.6519 128.658C93.4799 128.754 93.2881 128.808 93.0916 128.816C92.8951 128.824 92.6995 128.786 92.5204 128.704Z" fill="#2B303F"/>
<path d="M97.5342 131.608L93.9843 129.552C93.6946 129.383 93.7312 129.089 94.0636 128.897L97.4549 126.932C97.6263 126.836 97.8177 126.782 98.0137 126.774C98.2097 126.766 98.4048 126.805 98.5833 126.886L102.136 128.943C102.441 129.111 102.389 129.405 102.054 129.597L98.6657 131.562C98.4938 131.658 98.3019 131.712 98.1054 131.72C97.9089 131.728 97.7133 131.689 97.5342 131.608Z" fill="#2B303F"/>
<path d="M102.548 134.512L98.9981 132.455C98.7084 132.287 98.745 131.993 99.0774 131.8L102.472 129.836C102.643 129.74 102.835 129.686 103.031 129.678C103.227 129.67 103.422 129.709 103.6 129.79L107.153 131.846C107.458 132.015 107.406 132.308 107.071 132.501L103.692 134.466C103.518 134.563 103.324 134.619 103.125 134.627C102.927 134.635 102.729 134.595 102.548 134.512Z" fill="#2B303F"/>
<path d="M51.117 104.719L46.2739 101.913C45.9842 101.745 46.0208 101.451 46.3563 101.259L49.7446 99.294C49.9165 99.1983 50.1084 99.1443 50.3049 99.1363C50.5013 99.1283 50.697 99.1666 50.876 99.2481L55.719 102.054C56.024 102.222 55.9722 102.513 55.6367 102.709L52.2484 104.67C52.077 104.767 51.8851 104.822 51.6885 104.831C51.4919 104.839 51.2961 104.801 51.117 104.719Z" fill="#2B303F"/>
<path d="M82.4959 122.896L77.6529 120.09C77.3479 119.922 77.3998 119.628 77.7322 119.435L81.1235 117.471C81.2949 117.375 81.4863 117.321 81.6823 117.313C81.8783 117.305 82.0734 117.343 82.2519 117.425L87.0949 120.231C87.3846 120.399 87.3481 120.69 87.0156 120.886L83.6243 122.847C83.4534 122.944 83.2621 122.999 83.066 123.007C82.8698 123.016 82.6745 122.978 82.4959 122.896Z" fill="#2B303F"/>
<path d="M76.189 119.242L52.5808 105.57C52.2911 105.402 52.3277 105.108 52.6601 104.915L56.0514 102.951C56.2228 102.855 56.4142 102.801 56.6102 102.793C56.8062 102.785 57.0013 102.823 57.1798 102.905L80.7911 116.586C81.0808 116.754 81.0442 117.048 80.7087 117.241L77.3204 119.205C77.1478 119.3 76.9555 119.352 76.759 119.359C76.5626 119.365 76.3673 119.325 76.189 119.242Z" fill="#2B303F"/>
<path d="M53.3372 94.7133L49.7873 92.657C49.4975 92.4887 49.5341 92.1949 49.8696 92.0021L53.2579 90.0376C53.4293 89.9419 53.6207 89.8879 53.8166 89.8799C54.0126 89.872 54.2077 89.9103 54.3863 89.9917L57.9454 92.048C58.2503 92.2163 58.1985 92.5101 57.863 92.7029L54.4747 94.6674C54.302 94.7641 54.109 94.8187 53.9114 94.8267C53.7138 94.8346 53.5171 94.7958 53.3372 94.7133Z" fill="#2B303F"/>
<path d="M58.3601 97.6144L54.8102 95.555C54.5205 95.3867 54.5571 95.096 54.8895 94.9002L58.2808 92.9387C58.452 92.8425 58.6432 92.788 58.8392 92.7795C59.0352 92.771 59.2304 92.8088 59.4092 92.8898L62.9622 94.9491C63.2672 95.1174 63.2153 95.4081 62.8798 95.604L59.4916 97.5654C59.3201 97.6624 59.1283 97.7173 58.9317 97.7258C58.7351 97.7343 58.5392 97.6962 58.3601 97.6144Z" fill="#2B303F"/>
<path d="M63.3831 100.53L59.8301 98.4739C59.5251 98.3056 59.577 98.0119 59.9124 97.8191L63.3007 95.8546C63.4727 95.7588 63.6645 95.7048 63.861 95.6968C64.0575 95.6889 64.2531 95.7272 64.4322 95.8087L67.9821 97.865C68.2871 98.0333 68.2383 98.327 67.9028 98.5198L64.5145 100.484C64.3426 100.58 64.1507 100.634 63.9542 100.642C63.7578 100.65 63.5621 100.612 63.3831 100.53Z" fill="#2B303F"/>
<path d="M68.406 103.429L64.853 101.372C64.5481 101.204 64.5999 100.91 64.9354 100.717L68.3145 98.7652C68.4865 98.6695 68.6783 98.6154 68.8748 98.6075C69.0713 98.5995 69.2669 98.6378 69.446 98.7193L72.9959 100.776C73.3009 100.944 73.249 101.238 72.9166 101.43L69.5344 103.395C69.3621 103.489 69.1702 103.541 68.9742 103.546C68.7782 103.552 68.5836 103.512 68.406 103.429Z" fill="#2B303F"/>
<path d="M73.4259 106.351L69.876 104.294C69.571 104.126 69.6228 103.832 69.9553 103.639L73.3466 101.675C73.518 101.579 73.7094 101.525 73.9054 101.517C74.1013 101.509 74.2965 101.547 74.475 101.629L78.028 103.685C78.3329 103.854 78.2811 104.147 77.9456 104.34L74.5573 106.305C74.3854 106.4 74.1935 106.454 73.997 106.462C73.8006 106.47 73.605 106.432 73.4259 106.351Z" fill="#2B303F"/>
<path d="M78.4489 109.261L74.899 107.201C74.594 107.033 74.6428 106.742 74.9783 106.546L78.3787 104.585C78.5502 104.488 78.742 104.433 78.9386 104.425C79.1352 104.416 79.3311 104.454 79.5102 104.536L83.0632 106.595C83.3529 106.764 83.3163 107.054 82.9808 107.25L79.5925 109.212C79.4196 109.311 79.2256 109.367 79.0266 109.375C78.8277 109.384 78.6296 109.344 78.4489 109.261Z" fill="#2B303F"/>
<path d="M83.4718 112.167L79.9188 110.111C79.6291 109.943 79.6657 109.649 80.0012 109.456L83.3895 107.492C83.5614 107.396 83.7533 107.342 83.9498 107.334C84.1462 107.326 84.3419 107.364 84.5209 107.446L88.0708 109.502C88.3758 109.67 88.324 109.964 87.9915 110.157L84.6002 112.122C84.4288 112.217 84.2374 112.271 84.0415 112.279C83.8455 112.287 83.6504 112.249 83.4718 112.167Z" fill="#2B303F"/>
<path d="M88.4947 115.078L84.9417 113.021C84.652 112.853 84.6886 112.559 85.0241 112.366L88.4124 110.402C88.5843 110.306 88.7762 110.252 88.9727 110.244C89.1691 110.236 89.3647 110.275 89.5438 110.356L93.0937 112.412C93.3835 112.581 93.3469 112.874 93.0114 113.067L89.6231 115.032C89.4517 115.127 89.2603 115.181 89.0644 115.189C88.8684 115.197 88.6733 115.159 88.4947 115.078Z" fill="#2B303F"/>
<path d="M93.5146 117.988L89.9678 115.931C89.678 115.763 89.7146 115.469 90.0471 115.277L93.4384 113.312C93.6098 113.216 93.8012 113.162 93.9972 113.154C94.1931 113.146 94.3882 113.185 94.5668 113.266L98.1198 115.322C98.4095 115.491 98.3729 115.785 98.0374 115.977L94.6491 117.942C94.4768 118.038 94.2844 118.092 94.0873 118.1C93.8903 118.108 93.6941 118.07 93.5146 117.988Z" fill="#2B303F"/>
<path d="M98.5376 120.898L94.9846 118.838C94.6949 118.67 94.7315 118.379 95.067 118.184L98.4553 116.222C98.6267 116.125 98.8185 116.07 99.0152 116.062C99.2118 116.053 99.4076 116.091 99.5867 116.173L103.14 118.233C103.429 118.398 103.393 118.692 103.057 118.887L99.6691 120.849C99.4974 120.945 99.3056 121 99.1091 121.008C98.9127 121.017 98.7169 120.979 98.5376 120.898Z" fill="#2B303F"/>
<path d="M103.561 123.805L100.008 121.748C99.7179 121.58 99.7545 121.286 100.09 121.094L103.478 119.129C103.65 119.033 103.842 118.979 104.039 118.971C104.235 118.963 104.431 119.002 104.61 119.083L108.16 121.139C108.465 121.308 108.413 121.601 108.08 121.794L104.689 123.759C104.518 123.854 104.326 123.908 104.13 123.916C103.934 123.924 103.739 123.886 103.561 123.805Z" fill="#2B303F"/>
<path d="M108.571 126.714L105.021 124.658C104.732 124.49 104.768 124.196 105.104 124.003L108.492 122.039C108.663 121.943 108.855 121.889 109.051 121.881C109.247 121.873 109.442 121.911 109.62 121.993L113.173 124.049C113.463 124.217 113.426 124.511 113.091 124.704L109.712 126.684C109.538 126.779 109.343 126.831 109.145 126.836C108.947 126.841 108.75 126.8 108.571 126.714Z" fill="#2B303F"/>
<path d="M48.3173 91.8001L40.9704 87.5467C40.6654 87.3784 40.7173 87.0846 41.0528 86.8918L44.441 84.9273C44.613 84.8316 44.8049 84.7776 45.0013 84.7696C45.1978 84.7616 45.3934 84.7999 45.5725 84.8814L52.9163 89.1348C53.2213 89.3031 53.1694 89.5969 52.837 89.7896L49.4457 91.7542C49.2743 91.8499 49.0829 91.9039 48.8869 91.9118C48.6909 91.9198 48.4958 91.8815 48.3173 91.8001Z" fill="#2B303F"/>
<path d="M45.972 96.0844L42.4221 94.0342C42.1324 93.8659 42.1659 93.5752 42.5014 93.3793L45.8897 91.4179C46.0611 91.321 46.253 91.266 46.4496 91.2575C46.6462 91.249 46.842 91.2872 47.0211 91.3689L50.5741 93.4283C50.8638 93.5935 50.8272 93.8873 50.4918 94.0831L47.1035 96.0446C46.9311 96.1394 46.7389 96.1923 46.5425 96.1992C46.346 96.2061 46.1506 96.1668 45.972 96.0844Z" fill="#2B303F"/>
<path d="M50.9949 98.9999L47.442 96.9436C47.1523 96.7753 47.1888 96.4816 47.5243 96.2888L50.9126 94.3243C51.0845 94.2285 51.2764 94.1745 51.4729 94.1666C51.6694 94.1586 51.865 94.1969 52.0441 94.2784L55.594 96.3347C55.8989 96.503 55.8471 96.7968 55.5147 96.9895L52.1234 98.9541C51.952 99.0498 51.7606 99.1038 51.5646 99.1117C51.3686 99.1197 51.1735 99.0814 50.9949 98.9999Z" fill="#2B303F"/>
<path d="M56.0148 101.898L52.4558 99.851C52.1508 99.6827 52.2026 99.392 52.5381 99.1961L55.9264 97.2347C56.0981 97.1384 56.2899 97.0839 56.4863 97.0754C56.6828 97.0669 56.8785 97.1047 57.0579 97.1857L60.6108 99.2451C60.9158 99.4134 60.864 99.7041 60.5285 99.8999L57.1402 101.861C56.9685 101.955 56.7773 102.008 56.5819 102.014C56.3864 102.02 56.1922 101.981 56.0148 101.898Z" fill="#2B303F"/>
<path d="M61.0347 104.818L57.4848 102.761C57.1799 102.593 57.2317 102.299 57.5672 102.107L60.9554 100.142C61.1268 100.046 61.3182 99.9924 61.5142 99.9844C61.7102 99.9765 61.9053 100.015 62.0839 100.096L65.6368 102.153C65.9266 102.321 65.89 102.615 65.5545 102.807L62.1662 104.772C61.9943 104.868 61.8024 104.922 61.6059 104.93C61.4094 104.938 61.2138 104.899 61.0347 104.818Z" fill="#2B303F"/>
<path d="M66.0577 107.727L62.52 105.671C62.2303 105.503 62.2669 105.209 62.6023 105.016L65.9906 103.052C66.1625 102.956 66.3544 102.902 66.5509 102.894C66.7474 102.886 66.943 102.924 67.1221 103.006L70.672 105.062C70.9617 105.231 70.9281 105.524 70.5927 105.717L67.2044 107.679C67.031 107.778 66.8365 107.834 66.637 107.843C66.4375 107.851 66.2388 107.812 66.0577 107.727Z" fill="#2B303F"/>
<path d="M71.0776 110.634L67.5277 108.578C67.2379 108.41 67.2745 108.116 67.6069 107.923L70.9983 105.959C71.1697 105.863 71.3611 105.809 71.557 105.801C71.753 105.793 71.9481 105.831 72.1267 105.913L75.6796 107.969C75.9694 108.137 75.9328 108.431 75.5973 108.624L72.209 110.588C72.0371 110.684 71.8452 110.738 71.6487 110.746C71.4523 110.754 71.2566 110.716 71.0776 110.634Z" fill="#2B303F"/>
<path d="M76.1005 113.544L72.5476 111.488C72.2578 111.32 72.2944 111.026 72.6299 110.833L76.0182 108.869C76.1901 108.773 76.382 108.719 76.5785 108.711C76.775 108.703 76.9706 108.741 77.1496 108.823L80.6996 110.879C80.9893 111.047 80.9527 111.341 80.6203 111.534L77.232 113.499C77.0601 113.594 76.8682 113.648 76.6717 113.656C76.4752 113.664 76.2796 113.626 76.1005 113.544Z" fill="#2B303F"/>
<path d="M81.1235 116.454L77.5735 114.395C77.2838 114.227 77.3204 113.936 77.6528 113.74L81.0442 111.779C81.2151 111.682 81.4064 111.627 81.6025 111.618C81.7986 111.61 81.994 111.648 82.1726 111.73L85.7255 113.789C86.0153 113.954 85.9787 114.248 85.6432 114.444L82.2549 116.405C82.0832 116.502 81.8915 116.556 81.695 116.565C81.4985 116.573 81.3028 116.535 81.1235 116.454Z" fill="#2B303F"/>
<path d="M86.1434 119.361L82.5904 117.305C82.3007 117.137 82.3373 116.843 82.6728 116.65L86.061 114.686C86.233 114.59 86.4249 114.536 86.6213 114.528C86.8178 114.52 87.0134 114.558 87.1925 114.64L90.7424 116.696C91.0322 116.864 90.9956 117.158 90.6631 117.351L87.2718 119.315C87.1004 119.411 86.909 119.465 86.713 119.473C86.5171 119.481 86.3219 119.443 86.1434 119.361Z" fill="#2B303F"/>
<path d="M91.1633 122.271L87.6133 120.212C87.3236 120.047 87.3602 119.753 87.6926 119.557L91.084 117.595C91.2551 117.499 91.4464 117.445 91.6424 117.436C91.8384 117.428 92.0336 117.466 92.2124 117.547L95.7623 119.606C96.052 119.774 96.0154 120.065 95.68 120.261L92.2917 122.222C92.1206 122.319 91.9293 122.373 91.7333 122.382C91.5373 122.39 91.342 122.352 91.1633 122.271Z" fill="#2B303F"/>
<path d="M96.1862 125.179L92.6333 123.122C92.3435 122.954 92.3801 122.66 92.7156 122.468L96.1039 120.503C96.2758 120.407 96.4677 120.353 96.6642 120.345C96.8607 120.337 97.0563 120.376 97.2353 120.457L100.785 122.513C101.075 122.682 101.038 122.975 100.706 123.168L97.3146 125.133C97.1432 125.228 96.9519 125.282 96.7559 125.29C96.5599 125.298 96.3648 125.26 96.1862 125.179Z" fill="#2B303F"/>
<path d="M107.422 131.69L97.6624 126.033C97.3726 125.864 97.4062 125.57 97.7416 125.378L101.13 123.413C101.302 123.317 101.494 123.263 101.69 123.255C101.887 123.247 102.082 123.286 102.261 123.367L112.021 129.025C112.31 129.19 112.274 129.484 111.938 129.68L108.55 131.641C108.379 131.737 108.187 131.791 107.992 131.8C107.796 131.808 107.6 131.771 107.422 131.69Z" fill="#2B303F"/>
<path d="M40.9521 93.1834L36.1091 90.3774C35.8041 90.2091 35.856 89.9154 36.1884 89.7226L39.5797 87.7611C39.7507 87.6642 39.942 87.6093 40.1381 87.6008C40.3342 87.5923 40.5296 87.6304 40.7082 87.7122L45.5512 90.5182C45.8409 90.6865 45.8043 90.9802 45.4719 91.173L42.0866 93.1375C41.9145 93.2342 41.722 93.2888 41.5249 93.2968C41.3277 93.3048 41.1315 93.2659 40.9521 93.1834Z" fill="#2B303F"/>
<path d="M127.086 120.298L55.7708 78.9883C55.4659 78.8231 55.5177 78.5293 55.8532 78.3335L57.5488 77.3543C57.72 77.2581 57.9113 77.2035 58.1072 77.195C58.3032 77.1865 58.4985 77.2243 58.6773 77.3053L129.993 118.615C130.282 118.784 130.246 119.074 129.91 119.27L128.218 120.259C128.045 120.353 127.853 120.406 127.657 120.413C127.46 120.42 127.265 120.381 127.086 120.298Z" fill="#2B303F"/>
<path d="M82.9076 124.995C82.8058 125.217 82.6316 125.399 82.4135 125.509L62.7914 136.877C62.4611 137.061 62.0923 137.165 61.7147 137.18C61.3371 137.196 60.9611 137.122 60.6169 136.966L27.0696 117.538C26.9263 117.463 26.8107 117.344 26.7403 117.198C26.6183 116.892 26.7891 116.552 27.2343 116.295L46.8595 104.924C47.1898 104.74 47.5586 104.636 47.9362 104.621C48.3138 104.605 48.6898 104.679 49.034 104.836L82.5813 124.264C82.7169 124.322 82.8256 124.43 82.886 124.566C82.9464 124.701 82.9541 124.854 82.9076 124.995Z" fill="#B1B4C4"/>
<path d="M82.9076 124.995C82.8058 125.218 82.6315 125.399 82.4135 125.509L62.7914 136.877C62.4611 137.061 62.0923 137.165 61.7147 137.181C61.337 137.196 60.9611 137.122 60.6169 136.966L27.0696 117.538C26.9262 117.463 26.8107 117.344 26.7402 117.198C26.8442 116.978 27.0179 116.798 27.2343 116.687L46.8595 105.319C47.1896 105.135 47.5583 105.03 47.9359 105.014C48.3134 104.998 48.6895 105.071 49.034 105.227L82.5813 124.658C82.7237 124.732 82.8383 124.85 82.9076 124.995Z" fill="#C3C6D1"/>
<path d="M132.515 117.164L61.1994 75.8545C61.0424 75.738 60.9146 75.5863 60.8262 75.4115C60.7378 75.2368 60.6912 75.0437 60.6901 74.8478V74.0063C60.6901 73.6176 60.925 73.4402 61.2147 73.6085L132.53 114.918C132.69 115.033 132.821 115.183 132.912 115.357C133.003 115.532 133.052 115.725 133.055 115.922V116.764C133.039 117.155 132.805 117.333 132.515 117.164Z" fill="#2B303F"/>
<path d="M71.9742 71.7756L64.9292 67.7027C64.0479 67.1917 63.3312 65.8178 63.3312 64.6427V57.0631C63.3312 55.8819 64.0479 55.3403 64.9292 55.8391L71.9742 59.9242C72.8586 60.4352 73.5723 61.8092 73.5723 62.9842V70.5638C73.5601 71.745 72.8464 72.2866 71.9742 71.7756Z" fill="#E9EAF2"/>
<path d="M71.9468 54.4161L64.9141 50.3433C64.0327 49.8323 63.316 47.7423 63.316 46.7202V37.8707C63.316 36.6895 64.0327 36.1479 64.9141 36.6467L71.9468 40.7196C72.8312 41.2306 73.5448 42.6045 73.5448 43.7796V52.6291C73.5448 53.6695 72.8312 54.9272 71.9468 54.4161Z" fill="#E9EAF2"/>
<path d="M68.47 48.5043C67.0397 47.675 65.8747 45.6493 65.8747 43.9908C65.8747 42.3322 67.0397 41.656 68.47 42.4852C69.9004 43.3145 71.0684 45.3402 71.0684 46.9987C71.0684 48.6573 69.9034 49.3335 68.47 48.5043ZM68.47 43.2564C67.4057 42.6444 66.5395 43.1431 66.5395 44.3763C66.5743 45.0503 66.7673 45.7065 67.1028 46.2914C67.4383 46.8763 67.9068 47.3735 68.47 47.7423C69.5375 48.3543 70.4036 47.8586 70.4036 46.6254C70.3689 45.9506 70.1757 45.2937 69.8396 44.7081C69.5036 44.1226 69.0343 43.6251 68.47 43.2564Z" fill="#8C50FF"/>
<path d="M69.1837 47.277L68.0065 45.3981V43.8345L68.6713 44.22V45.4349L69.6228 46.9495L69.1837 47.277Z" fill="#8C50FF"/>
<path d="M71.9376 35.6979L64.9049 31.625C64.0235 31.1109 63.3068 28.8098 63.3068 27.7847V19.639C63.3068 18.617 64.0235 18.2008 64.9049 18.721L71.9376 22.7969C72.403 23.1006 72.7902 23.5103 73.0679 23.9926C73.3456 24.4749 73.5059 25.0161 73.5357 25.5723V33.7211C73.5357 34.734 72.8221 36.2089 71.9376 35.6979Z" fill="#E9EAF2"/>
<path d="M68.4212 25.9333C67.9973 25.6885 67.6558 25.8874 67.6558 26.3801C67.6698 26.6468 67.7465 26.9063 67.8795 27.1377C68.0126 27.369 68.1982 27.5655 68.4212 27.7112C68.8452 27.956 69.1898 27.7571 69.1898 27.2675C69.1746 27.0003 69.0972 26.7404 68.9637 26.5087C68.8302 26.2769 68.6444 26.0799 68.4212 25.9333ZM70.4676 26.2393L69.8577 25.8844C69.7588 25.8167 69.6874 25.7157 69.6564 25.5998L69.4978 24.9541C69.4646 24.8384 69.3924 24.7378 69.2935 24.6695L67.5551 23.6628C67.4697 23.6138 67.3813 23.6353 67.3538 23.7148L67.1952 24.1738C67.1873 24.1924 67.1753 24.2088 67.1601 24.2219C67.1448 24.2351 67.1268 24.2445 67.1074 24.2495C67.0879 24.2546 67.0676 24.255 67.0479 24.2509C67.0282 24.2468 67.0098 24.2382 66.994 24.2258L66.384 23.8709C66.1034 23.7056 65.8747 23.8403 65.8747 24.1769V26.8452C65.8844 27.0228 65.9355 27.1957 66.024 27.3498C66.1124 27.5039 66.2358 27.6351 66.384 27.7326L70.4768 30.1041C70.7574 30.2663 70.9891 30.1347 70.9891 29.7981V27.1206C70.9781 26.9415 70.9251 26.7675 70.8345 26.6128C70.7439 26.4581 70.6182 26.327 70.4676 26.2301V26.2393ZM68.4212 28.314C68.0496 28.0701 67.7404 27.7419 67.5184 27.3561C67.2964 26.9702 67.168 26.5373 67.1434 26.0924C67.1434 25.2724 67.7167 24.9419 68.4212 25.3519C68.7937 25.5949 69.1036 25.9229 69.3257 26.3089C69.5478 26.695 69.6757 27.1283 69.6991 27.5735C69.6991 28.3813 69.1288 28.7149 68.4212 28.3048V28.314ZM70.2877 27.142C70.2363 27.1085 70.1936 27.0634 70.1629 27.0102C70.1321 26.957 70.1143 26.8974 70.1108 26.836C70.1108 26.7197 70.1901 26.6738 70.2877 26.732C70.3396 26.7651 70.383 26.8102 70.4142 26.8633C70.4455 26.9165 70.4638 26.9764 70.4676 27.038C70.4676 27.1451 70.3883 27.191 70.2877 27.1328V27.142Z" fill="#8C50FF"/>
<path d="M70.6415 64.3675C70.6415 65.7476 68.4853 67.5407 68.4853 67.5407C68.4853 67.5407 66.326 63.2567 66.326 61.8675C66.326 60.4782 67.2928 59.9274 68.4853 60.6159C69.1131 61.0273 69.6355 61.5814 70.0102 62.2332C70.3848 62.885 70.6011 63.6162 70.6415 64.3675Z" fill="#8C50FF"/>
<path d="M69.4825 64.7561C70.0339 64.4367 70.0344 63.4018 69.4836 62.4446C68.9328 61.4874 68.0394 60.9704 67.488 61.2898C66.9366 61.6092 66.9361 62.6441 67.4869 63.6013C68.0377 64.5585 68.9311 65.0755 69.4825 64.7561Z" fill="#E9EAF2"/>
<path d="M121.725 82.926L79.1473 58.2593C78.4275 57.8462 77.8481 56.7293 77.8481 55.7715V27.0595C77.8481 26.1017 78.4275 25.6611 79.1473 26.0773L121.725 50.7409C122.442 51.157 123.021 52.2709 123.021 53.2317V81.9406C123.021 82.9015 122.442 83.3421 121.725 82.926Z" fill="#E9EAF2"/>
<path d="M116.806 62.0537L83.8042 42.9379C83.0052 42.4728 82.3556 41.2304 82.3556 40.1625V37.9991C82.3556 36.9281 83.0052 36.4385 83.8042 36.9005L116.806 56.0164C117.605 56.4784 118.251 57.7208 118.251 58.7918V60.9552C118.251 62.0262 117.605 62.5158 116.806 62.0537Z" fill="white"/>
<path d="M98.8578 61.3835L83.8042 52.6625C83.0052 52.2004 82.3556 50.9581 82.3556 49.8871V47.7359C82.3556 46.6649 83.0052 46.1753 83.8042 46.6374L98.8578 55.3584C99.6569 55.8204 100.303 57.0628 100.303 58.1338V60.2819C100.303 61.3529 99.6569 61.8456 98.8578 61.3835Z" fill="#8C50FF"/>
<path d="M130.487 89.2419C130.487 89.2419 114.436 92.7915 101.459 78.33C88.4826 63.8684 77.8969 65.7228 77.8969 65.7228V74.7498L130.487 105.212V89.2419Z" fill="url(#paint1_linear)"/>
<path d="M130.487 89.2419C130.487 89.2419 114.436 92.7915 101.459 78.33C88.4826 63.8684 77.8969 65.7228 77.8969 65.7228" stroke="#CCCEDD" stroke-width="1.06" stroke-miterlimit="10"/>
<path d="M77.8267 13.5866C77.3574 14.4286 76.7869 15.2096 76.128 15.9122C75.945 16.1264 74.533 15.5847 74.8288 15.4317C75.1246 15.2787 76.0487 13.9874 76.5123 13.1245C76.9001 12.0943 77.23 11.0431 77.5004 9.97576C77.7901 8.92006 78.0402 7.3717 78.2537 6.64342C78.3083 6.37442 78.4392 6.127 78.6308 5.931C78.8223 5.735 79.0663 5.59877 79.3333 5.53876C79.8426 5.41942 80.172 5.56018 80.0775 6.1783C79.9036 7.25542 79.071 11.4599 77.8267 13.5866Z" fill="#FFCEA9"/>
<path d="M78.635 30.0645C78.1988 30.4225 77.5523 30.0951 77.5188 30.1288C77.0049 30.6066 76.4663 31.057 75.9054 31.4782C75.631 31.6924 75.207 31.9801 75.2955 32.3962C75.4327 33.1337 76.613 32.9073 77.0582 32.6808C77.5035 32.4544 77.8695 32.0688 78.2781 31.8179C78.5831 31.6282 78.8881 31.5333 78.9216 31.1508C78.9491 30.9213 78.7143 30.0553 78.635 30.0645Z" fill="#38226D"/>
<path d="M78.9155 30.9976C78.8575 31.3617 78.5647 31.4627 78.2659 31.6493C77.8389 31.9156 77.4607 32.3011 77.0155 32.5276C76.5702 32.754 75.579 32.9437 75.2893 32.4143C75.4448 33.1273 76.6068 32.9039 77.046 32.6806C77.4851 32.4572 77.8572 32.0686 78.2659 31.8176C78.5708 31.6279 78.8758 31.5331 78.9094 31.1506C78.9155 31.0998 78.9176 31.0486 78.9155 30.9976Z" fill="#9C73FF"/>
<path d="M74.1945 27.4969C73.7584 27.8549 72.9929 27.4663 72.9594 27.4969C72.5051 27.961 72.0234 28.3974 71.5168 28.8035C71.2423 29.0207 70.8184 29.3084 70.9069 29.7215C71.0441 30.462 72.2244 30.2356 72.6727 30.0091C73.121 29.7827 73.4809 29.3971 73.8926 29.1431C74.1976 28.9565 74.5026 28.8586 74.5361 28.4791C74.5605 28.2496 74.2738 27.4877 74.1945 27.4969Z" fill="#38226D"/>
<path d="M74.5208 28.3784C74.4629 28.7426 74.1701 28.8435 73.8712 29.0302C73.4443 29.2964 73.0661 29.682 72.6208 29.9084C72.1755 30.1349 71.1813 30.3246 70.8947 29.7952C71.0502 30.5082 72.2091 30.2848 72.6513 30.0614C73.0935 29.838 73.4595 29.4494 73.8712 29.1954C74.1762 29.0088 74.4812 28.9139 74.5147 28.5314C74.5209 28.4807 74.5229 28.4295 74.5208 28.3784Z" fill="#9C73FF"/>
<path d="M84.4783 15.9855C84.9632 19.0272 83.6182 20.1624 81.8677 20.8081C80.6112 21.2732 78.8179 21.9892 78.8179 21.9892C78.8179 21.9892 78.8423 22.6563 78.8545 24.1527C78.8545 25.4715 78.6959 30.2727 78.6959 30.2727C78.4884 30.3798 78.2584 30.4356 78.025 30.4356C77.7916 30.4356 77.5616 30.3798 77.3541 30.2727C77.3541 30.2727 76.6496 26.5854 76.5001 24.9207C76.2958 22.6655 75.9512 21.1875 76.0671 20.701C76.1677 20.2726 78.6258 19.0608 79.4065 18.4121L74.2555 20.1441C74.358 20.7042 74.408 21.2728 74.4049 21.8424C74.3592 23.6325 74.2585 27.5095 74.2585 27.5095C74.2585 27.5095 73.5541 28.0205 72.9502 27.5095C72.9502 27.5095 71.6541 19.8381 71.8126 18.8221C71.9621 17.8582 76.5001 15.8876 77.3022 15.2083C77.4416 15.0946 77.6032 15.0117 77.7766 14.9647C77.9499 14.9178 78.1312 14.908 78.3086 14.9359L84.4783 15.9855Z" fill="#8C50FF"/>
<path d="M72.1389 17.2521L75.6004 15.2478C75.6303 15.2298 75.6646 15.2202 75.6995 15.2202C75.7344 15.2202 75.7687 15.2298 75.7986 15.2478L81.8676 18.7638L78.3086 20.8262L72.1389 17.2521Z" fill="#F4F4F4"/>
<path d="M78.4702 20.0887L78.7355 20.2417C78.7569 20.2417 78.7538 20.2754 78.7355 20.2907L78.4824 20.4376C78.4695 20.4436 78.4554 20.4467 78.4412 20.4467C78.427 20.4467 78.4129 20.4436 78.4 20.4376L78.1347 20.2846C78.1134 20.2846 78.1164 20.2509 78.1347 20.2356L78.3878 20.0887C78.4007 20.0827 78.4148 20.0796 78.429 20.0796C78.4432 20.0796 78.4573 20.0827 78.4702 20.0887Z" fill="#3A2C6D"/>
<path d="M78.0981 19.8899L78.3604 20.0398C78.3817 20.0398 78.3787 20.0766 78.3604 20.0888L78.1103 20.2357C78.0971 20.2424 78.0824 20.2459 78.0676 20.2459C78.0528 20.2459 78.0381 20.2424 78.0249 20.2357L77.7626 20.0827C77.7413 20.0827 77.7443 20.049 77.7626 20.0337L78.0127 19.8899C78.0257 19.8824 78.0404 19.8784 78.0554 19.8784C78.0704 19.8784 78.0851 19.8824 78.0981 19.8899Z" fill="#3A2C6D"/>
<path d="M77.7199 19.6544L77.9822 19.8074C78.0036 19.8074 78.0036 19.8411 77.9822 19.8564L77.7321 20.0002C77.7189 20.0069 77.7043 20.0104 77.6894 20.0104C77.6746 20.0104 77.66 20.0069 77.6467 20.0002L77.3845 19.8472C77.3631 19.8472 77.3662 19.8135 77.3845 19.7982L77.6345 19.6513C77.648 19.6451 77.6628 19.6421 77.6776 19.6426C77.6924 19.6432 77.7069 19.6472 77.7199 19.6544Z" fill="#3A2C6D"/>
<path d="M77.3509 19.4404L77.6132 19.5934C77.6345 19.5934 77.6345 19.627 77.6132 19.6423L77.3631 19.7892C77.3497 19.7953 77.3351 19.7985 77.3204 19.7985C77.3057 19.7985 77.2911 19.7953 77.2777 19.7892L77.0154 19.6362C76.9941 19.6362 76.9971 19.6026 77.0154 19.5873L77.2655 19.4404C77.2789 19.4343 77.2935 19.4312 77.3082 19.4312C77.3229 19.4312 77.3375 19.4343 77.3509 19.4404Z" fill="#3A2C6D"/>
<path d="M76.9758 19.2226L77.2411 19.3756C77.2625 19.3756 77.2594 19.4123 77.2411 19.4246L76.988 19.5714C76.9753 19.5781 76.9612 19.5816 76.9468 19.5816C76.9325 19.5816 76.9183 19.5781 76.9056 19.5714L76.6403 19.4184C76.619 19.4184 76.622 19.3848 76.6403 19.3695L76.8935 19.2257C76.9059 19.2185 76.9199 19.2145 76.9342 19.2139C76.9486 19.2134 76.9629 19.2164 76.9758 19.2226Z" fill="#3A2C6D"/>
<path d="M76.6037 19.0087L76.8691 19.1617C76.8904 19.1617 76.8874 19.1954 76.8691 19.2107L76.6159 19.3545C76.6032 19.3612 76.5891 19.3647 76.5748 19.3647C76.5604 19.3647 76.5463 19.3612 76.5336 19.3545L76.2682 19.2015C76.2469 19.2015 76.2499 19.1679 76.2682 19.1556L76.5214 19.0087C76.5341 19.002 76.5482 18.9985 76.5625 18.9985C76.5769 18.9985 76.591 19.002 76.6037 19.0087Z" fill="#3A2C6D"/>
<path d="M76.2439 18.7915L76.5062 18.9445C76.5275 18.9445 76.5245 18.9781 76.5062 18.9934L76.2561 19.1403C76.2427 19.1464 76.2281 19.1495 76.2134 19.1495C76.1987 19.1495 76.1841 19.1464 76.1707 19.1403L75.9084 18.9873C75.8871 18.9873 75.8871 18.9536 75.9084 18.9383L76.1585 18.7915C76.1719 18.7854 76.1865 18.7822 76.2012 18.7822C76.2159 18.7822 76.2305 18.7854 76.2439 18.7915Z" fill="#3A2C6D"/>
<path d="M75.8566 18.5742L76.1219 18.7272C76.1433 18.7272 76.1402 18.7639 76.1219 18.7761L75.8688 18.923C75.8561 18.9297 75.842 18.9332 75.8276 18.9332C75.8133 18.9332 75.7991 18.9297 75.7865 18.923L75.5211 18.77C75.4998 18.77 75.5028 18.7364 75.5211 18.7211L75.7743 18.5772C75.7867 18.5701 75.8007 18.566 75.815 18.5655C75.8294 18.565 75.8437 18.5679 75.8566 18.5742Z" fill="#3A2C6D"/>
<path d="M75.4845 18.3598L75.7467 18.5128C75.7681 18.5128 75.765 18.5465 75.7467 18.5618L75.4967 18.7056C75.4834 18.7123 75.4688 18.7158 75.454 18.7158C75.4391 18.7158 75.4245 18.7123 75.4113 18.7056L75.149 18.5526C75.1276 18.5526 75.1307 18.519 75.149 18.5067L75.3991 18.3598C75.4123 18.3531 75.4269 18.3496 75.4418 18.3496C75.4566 18.3496 75.4712 18.3531 75.4845 18.3598Z" fill="#3A2C6D"/>
<path d="M75.1094 18.1425L75.3747 18.2955C75.3961 18.2955 75.393 18.3292 75.3747 18.3445L75.1216 18.4914C75.1087 18.4974 75.0947 18.5005 75.0804 18.5005C75.0662 18.5005 75.0522 18.4974 75.0393 18.4914L74.7739 18.3384C74.7526 18.3384 74.7556 18.3047 74.7739 18.2894L75.0271 18.1425C75.0398 18.1358 75.0539 18.1323 75.0682 18.1323C75.0826 18.1323 75.0967 18.1358 75.1094 18.1425Z" fill="#3A2C6D"/>
<path d="M74.7373 17.9253L74.9996 18.0783C75.021 18.0783 75.021 18.1119 74.9996 18.1272L74.7495 18.2741C74.7363 18.2808 74.7217 18.2843 74.7068 18.2843C74.692 18.2843 74.6774 18.2808 74.6641 18.2741L74.4019 18.1211C74.3805 18.1211 74.3836 18.0874 74.4019 18.0721L74.6519 17.9283C74.6649 17.9211 74.6794 17.9171 74.6943 17.9166C74.7091 17.916 74.7239 17.919 74.7373 17.9253Z" fill="#3A2C6D"/>
<path d="M74.3653 17.7109L74.6275 17.8639C74.6489 17.8639 74.6458 17.8976 74.6275 17.9129L74.3744 18.0567C74.3617 18.0634 74.3476 18.0669 74.3332 18.0669C74.3189 18.0669 74.3048 18.0634 74.2921 18.0567L74.0267 17.9037C74.0054 17.9037 74.0084 17.87 74.0267 17.8547L74.2799 17.7109C74.2931 17.7042 74.3077 17.7007 74.3226 17.7007C74.3374 17.7007 74.352 17.7042 74.3653 17.7109Z" fill="#3A2C6D"/>
<path d="M73.9901 17.4937L74.2555 17.6467C74.2768 17.6467 74.2738 17.6804 74.2555 17.6957L74.0023 17.8395C73.9896 17.8462 73.9755 17.8497 73.9612 17.8497C73.9468 17.8497 73.9327 17.8462 73.92 17.8395L73.6547 17.6865C73.6333 17.6865 73.6364 17.6498 73.6547 17.6376L73.9078 17.4907C73.9207 17.4844 73.935 17.4815 73.9493 17.482C73.9637 17.4825 73.9777 17.4866 73.9901 17.4937Z" fill="#3A2C6D"/>
<path d="M73.4381 17.1728L73.8803 17.4298C73.9017 17.4298 73.8986 17.4635 73.8803 17.4788L73.6302 17.6257C73.6168 17.6318 73.6023 17.6349 73.5875 17.6349C73.5728 17.6349 73.5583 17.6318 73.5448 17.6257L73.1026 17.3686C73.0813 17.3686 73.0813 17.335 73.1026 17.3197L73.3527 17.1728C73.3661 17.1667 73.3807 17.1636 73.3954 17.1636C73.4101 17.1636 73.4247 17.1667 73.4381 17.1728Z" fill="#3A2C6D"/>
<path d="M78.2781 19.5595L78.5434 19.7125C78.5648 19.7125 78.5617 19.7462 78.5434 19.7615L78.2903 19.9053C78.2779 19.9129 78.2636 19.9169 78.2491 19.9169C78.2346 19.9169 78.2204 19.9129 78.208 19.9053L77.9426 19.7554C77.9213 19.7554 77.9243 19.7186 77.9426 19.7064L78.1958 19.5595C78.2084 19.5528 78.2226 19.5493 78.2369 19.5493C78.2513 19.5493 78.2654 19.5528 78.2781 19.5595Z" fill="#3A2C6D"/>
<path d="M77.906 19.3423L78.1683 19.4953C78.1897 19.4953 78.1866 19.5289 78.1683 19.5442L77.9182 19.6911C77.9048 19.6972 77.8903 19.7003 77.8756 19.7003C77.8608 19.7003 77.8463 19.6972 77.8329 19.6911L77.5706 19.5381C77.5492 19.5381 77.5492 19.5044 77.5706 19.4891L77.8207 19.3423C77.8339 19.3355 77.8485 19.332 77.8633 19.332C77.8782 19.332 77.8928 19.3355 77.906 19.3423Z" fill="#3A2C6D"/>
<path d="M77.5309 19.125L77.7932 19.278C77.8176 19.278 77.8145 19.3116 77.7932 19.3269L77.5431 19.4738C77.5297 19.4799 77.5151 19.483 77.5004 19.483C77.4857 19.483 77.4711 19.4799 77.4577 19.4738L77.1954 19.3208C77.1741 19.3208 77.1771 19.2871 77.1954 19.2718L77.4455 19.125C77.4589 19.1189 77.4735 19.1157 77.4882 19.1157C77.5029 19.1157 77.5175 19.1189 77.5309 19.125Z" fill="#3A2C6D"/>
<path d="M77.1588 18.9077L77.4242 19.0607C77.4455 19.0607 77.4425 19.0974 77.4242 19.1096L77.171 19.2565C77.1583 19.2632 77.1442 19.2667 77.1299 19.2667C77.1155 19.2667 77.1014 19.2632 77.0887 19.2565L76.8234 19.1035C76.802 19.1035 76.8051 19.0698 76.8234 19.0545L77.0765 18.9107C77.0889 18.9035 77.1029 18.8995 77.1173 18.899C77.1316 18.8985 77.1459 18.9014 77.1588 18.9077Z" fill="#3A2C6D"/>
<path d="M76.7867 18.6938L77.049 18.8468C77.0704 18.8468 77.0673 18.8805 77.049 18.8958L76.7989 19.0426C76.7855 19.0487 76.771 19.0519 76.7562 19.0519C76.7415 19.0519 76.7269 19.0487 76.7135 19.0426L76.4513 18.8896C76.4299 18.8896 76.4299 18.856 76.4513 18.8407L76.7013 18.6938C76.7148 18.6877 76.7293 18.6846 76.744 18.6846C76.7588 18.6846 76.7733 18.6877 76.7867 18.6938Z" fill="#3A2C6D"/>
<path d="M76.4116 18.476L76.6769 18.629C76.6983 18.629 76.6952 18.6657 76.6769 18.678L76.4238 18.8249C76.4111 18.8316 76.397 18.8351 76.3826 18.8351C76.3683 18.8351 76.3541 18.8316 76.3414 18.8249L76.0761 18.6719C76.0548 18.6719 76.0578 18.6382 76.0761 18.6229L76.3292 18.4791C76.3417 18.4719 76.3557 18.4679 76.37 18.4673C76.3844 18.4668 76.3986 18.4698 76.4116 18.476Z" fill="#3A2C6D"/>
<path d="M76.0365 18.2622L76.3018 18.4152C76.3231 18.4152 76.3201 18.4488 76.3018 18.4611L76.0487 18.6079C76.036 18.6146 76.0218 18.6181 76.0075 18.6181C75.9931 18.6181 75.979 18.6146 75.9663 18.6079L75.701 18.4549C75.6796 18.4549 75.6827 18.4213 75.701 18.406L75.9541 18.2622C75.9668 18.2555 75.9809 18.252 75.9953 18.252C76.0096 18.252 76.0238 18.2555 76.0365 18.2622Z" fill="#3A2C6D"/>
<path d="M75.6645 18.0537L75.9267 18.2067C75.9481 18.2067 75.945 18.2403 75.9267 18.2556L75.6766 18.3995C75.6634 18.4062 75.6488 18.4097 75.634 18.4097C75.6191 18.4097 75.6045 18.4062 75.5913 18.3995L75.329 18.2465C75.3076 18.2465 75.3107 18.2128 75.329 18.2006L75.5791 18.0537C75.5923 18.047 75.6069 18.0435 75.6218 18.0435C75.6366 18.0435 75.6512 18.047 75.6645 18.0537Z" fill="#3A2C6D"/>
<path d="M75.2893 17.8272L75.5547 17.9802C75.576 17.9802 75.573 18.0139 75.5547 18.0292L75.3015 18.173C75.2888 18.1797 75.2747 18.1832 75.2604 18.1832C75.246 18.1832 75.2319 18.1797 75.2192 18.173L74.9539 18.02C74.9325 18.02 74.9356 17.9833 74.9539 17.9711L75.207 17.8242C75.2199 17.8179 75.2342 17.815 75.2485 17.8155C75.2629 17.816 75.2769 17.8201 75.2893 17.8272Z" fill="#3A2C6D"/>
<path d="M74.9173 17.6103L75.1795 17.7633C75.2009 17.7633 75.1978 17.797 75.1795 17.8123L74.9264 17.9591C74.9135 17.9652 74.8995 17.9683 74.8852 17.9683C74.871 17.9683 74.857 17.9652 74.8441 17.9591L74.5787 17.8061C74.5574 17.8061 74.5604 17.7725 74.5787 17.7572L74.8319 17.6103C74.8453 17.6042 74.8598 17.6011 74.8746 17.6011C74.8893 17.6011 74.9038 17.6042 74.9173 17.6103Z" fill="#3A2C6D"/>
<path d="M74.5421 17.393L74.8044 17.546C74.8257 17.546 74.8257 17.5797 74.8044 17.595L74.5543 17.7419C74.5411 17.7486 74.5265 17.7521 74.5116 17.7521C74.4968 17.7521 74.4822 17.7486 74.4689 17.7419L74.2067 17.5889C74.1853 17.5889 74.1884 17.5552 74.2067 17.5399L74.4567 17.393C74.4702 17.3869 74.4847 17.3838 74.4994 17.3838C74.5142 17.3838 74.5287 17.3869 74.5421 17.393Z" fill="#3A2C6D"/>
<path d="M74.167 17.1786L74.4323 17.3285C74.4537 17.3285 74.4506 17.3652 74.4323 17.3775L74.1792 17.5243C74.1665 17.531 74.1524 17.5345 74.138 17.5345C74.1237 17.5345 74.1096 17.531 74.0969 17.5243L73.8315 17.3713C73.8102 17.3713 73.8132 17.3377 73.8315 17.3224L74.0847 17.1786C74.0971 17.171 74.1113 17.167 74.1258 17.167C74.1404 17.167 74.1546 17.171 74.167 17.1786Z" fill="#3A2C6D"/>
<path d="M78.6532 19.7768L79.0954 20.0339C79.1168 20.0339 79.1168 20.0675 79.0954 20.0828L78.8454 20.2266C78.8321 20.2334 78.8175 20.2369 78.8027 20.2369C78.7878 20.2369 78.7732 20.2334 78.76 20.2266L78.3177 19.9696C78.2964 19.9696 78.2994 19.9359 78.3177 19.9206L78.5678 19.7768C78.5811 19.7701 78.5957 19.7666 78.6105 19.7666C78.6254 19.7666 78.64 19.7701 78.6532 19.7768Z" fill="#3A2C6D"/>
<path d="M73.4564 17.1602L73.7187 17.3132C73.7311 17.3191 73.7446 17.3222 73.7583 17.3222C73.7721 17.3222 73.7856 17.3191 73.798 17.3132L74.0633 17.1571C74.068 17.1554 74.072 17.1522 74.0749 17.1481C74.0777 17.144 74.0792 17.1391 74.0792 17.1341C74.0792 17.1291 74.0777 17.1243 74.0749 17.1202C74.072 17.1161 74.068 17.1129 74.0633 17.1112H74.042C74.0237 17.1112 74.0237 17.0837 74.042 17.0714L74.3226 16.9092C74.347 16.9092 74.347 16.8756 74.3226 16.8633L74.1548 16.7654C74.1424 16.7594 74.1289 16.7563 74.1152 16.7563C74.1014 16.7563 74.0879 16.7594 74.0755 16.7654L73.8132 16.9184L73.7583 16.949L73.7187 16.9735L73.679 16.9949L73.4534 17.1265C73.4495 17.1314 73.4476 17.1377 73.4482 17.1439C73.4487 17.1502 73.4517 17.156 73.4564 17.1602Z" fill="#3A2C6D"/>
<path d="M79.9036 19.2499L80.1689 19.4029C80.1902 19.4029 80.1872 19.4366 80.1689 19.4519L79.9158 19.5957C79.9034 19.6033 79.8891 19.6073 79.8746 19.6073C79.8601 19.6073 79.8458 19.6033 79.8334 19.5957L79.5681 19.4458C79.5468 19.4305 79.5498 19.4091 79.5681 19.3968L79.8212 19.2499C79.8339 19.2432 79.8481 19.2397 79.8624 19.2397C79.8767 19.2397 79.8909 19.2432 79.9036 19.2499Z" fill="#3A2C6D"/>
<path d="M79.5437 19.0332L79.8091 19.1862C79.8304 19.1862 79.8274 19.2229 79.8091 19.2351L79.5559 19.382C79.5432 19.3887 79.5291 19.3922 79.5148 19.3922C79.5004 19.3922 79.4863 19.3887 79.4736 19.382L79.2082 19.229C79.1869 19.229 79.19 19.1953 79.2082 19.18L79.4614 19.0362C79.4738 19.029 79.4878 19.025 79.5022 19.0245C79.5165 19.0239 79.5308 19.0269 79.5437 19.0332Z" fill="#3A2C6D"/>
<path d="M79.1716 18.8189L79.437 18.9719C79.4583 18.9719 79.4553 19.0056 79.437 19.0209L79.1838 19.1647C79.1712 19.1714 79.157 19.1749 79.1427 19.1749C79.1283 19.1749 79.1142 19.1714 79.1015 19.1647L78.8362 19.0117C78.8148 19.0117 78.8179 18.975 78.8362 18.9627L79.0893 18.8159C79.1022 18.8096 79.1165 18.8067 79.1309 18.8072C79.1452 18.8077 79.1592 18.8118 79.1716 18.8189Z" fill="#3A2C6D"/>
<path d="M76.003 16.9829L76.2653 17.1359C76.2866 17.1359 76.2836 17.1695 76.2653 17.1848L76.0152 17.3287C76.0019 17.3354 75.9873 17.3389 75.9725 17.3389C75.9576 17.3389 75.943 17.3354 75.9298 17.3287L75.6675 17.1757C75.6431 17.1757 75.6462 17.142 75.6675 17.1267L75.9176 16.9829C75.9308 16.9762 75.9454 16.9727 75.9603 16.9727C75.9751 16.9727 75.9897 16.9762 76.003 16.9829Z" fill="#3A2C6D"/>
<path d="M75.6339 16.7655L75.8993 16.9185C75.9206 16.9185 75.9176 16.9521 75.8993 16.9674L75.6461 17.1143C75.6332 17.1203 75.6192 17.1235 75.605 17.1235C75.5907 17.1235 75.5767 17.1203 75.5638 17.1143L75.2985 16.9613C75.2771 16.9613 75.2802 16.9277 75.2985 16.9124L75.5516 16.7655C75.5645 16.7595 75.5785 16.7563 75.5928 16.7563C75.607 16.7563 75.621 16.7595 75.6339 16.7655Z" fill="#3A2C6D"/>
<path d="M75.2558 16.5512L75.5211 16.7042C75.5424 16.7042 75.5394 16.7379 75.5211 16.7532L75.268 16.897C75.2553 16.9037 75.2411 16.9072 75.2268 16.9072C75.2124 16.9072 75.1983 16.9037 75.1856 16.897L74.9203 16.744C74.8989 16.744 74.902 16.7103 74.9203 16.6981L75.1734 16.5512C75.1861 16.5445 75.2002 16.541 75.2146 16.541C75.2289 16.541 75.2431 16.5445 75.2558 16.5512Z" fill="#3A2C6D"/>
<path d="M74.8837 16.3343L75.149 16.4873C75.1704 16.4873 75.1673 16.521 75.149 16.5363L74.8959 16.6832C74.883 16.6892 74.8689 16.6923 74.8547 16.6923C74.8405 16.6923 74.8264 16.6892 74.8135 16.6832L74.5482 16.5302C74.5269 16.5302 74.5299 16.4965 74.5482 16.4812L74.8013 16.3343C74.8142 16.3283 74.8283 16.3252 74.8425 16.3252C74.8567 16.3252 74.8708 16.3283 74.8837 16.3343Z" fill="#3A2C6D"/>
<path d="M78.7051 18.5464L79.0649 18.7545C79.0863 18.7545 79.0832 18.7912 79.0649 18.8034L78.8118 18.9503C78.7991 18.957 78.785 18.9605 78.7706 18.9605C78.7563 18.9605 78.7422 18.957 78.7295 18.9503L78.3787 18.7453C78.3574 18.7453 78.3574 18.7116 78.3787 18.6963L78.6288 18.5494C78.6529 18.5387 78.6802 18.5376 78.7051 18.5464Z" fill="#3A2C6D"/>
<path d="M76.375 17.1972L76.7349 17.4053C76.7563 17.4053 76.7532 17.439 76.7349 17.4543L76.4818 17.6011C76.4689 17.6072 76.4548 17.6103 76.4406 17.6103C76.4264 17.6103 76.4123 17.6072 76.3994 17.6011L76.0396 17.3931C76.0182 17.3931 76.0182 17.3594 76.0396 17.3441L76.2896 17.1972C76.3031 17.1911 76.3176 17.188 76.3323 17.188C76.3471 17.188 76.3616 17.1911 76.375 17.1972Z" fill="#3A2C6D"/>
<path d="M76.8538 17.4697L78.6074 18.4856C78.6288 18.4856 78.6257 18.5193 78.6074 18.5346L78.3573 18.6784C78.3441 18.6851 78.3295 18.6886 78.3146 18.6886C78.2998 18.6886 78.2852 18.6851 78.2719 18.6784L76.5183 17.6625C76.497 17.6625 76.5 17.6288 76.5183 17.6166L76.7714 17.4697C76.7841 17.463 76.7983 17.4595 76.8126 17.4595C76.827 17.4595 76.8411 17.463 76.8538 17.4697Z" fill="#3A2C6D"/>
<path d="M78.5403 19.2778L78.8026 19.4308C78.824 19.4308 78.8209 19.4644 78.8026 19.4797L78.5525 19.6266C78.5391 19.6327 78.5246 19.6359 78.5098 19.6359C78.4951 19.6359 78.4806 19.6327 78.4671 19.6266L78.2049 19.4736C78.1835 19.4736 78.1835 19.44 78.2049 19.4247L78.4549 19.2778C78.4684 19.2717 78.4829 19.2686 78.4976 19.2686C78.5124 19.2686 78.5269 19.2717 78.5403 19.2778Z" fill="#3A2C6D"/>
<path d="M78.1652 19.0727L78.4306 19.2257C78.4519 19.2257 78.4489 19.2624 78.4306 19.2747L78.1774 19.4215C78.1648 19.4282 78.1506 19.4317 78.1363 19.4317C78.1219 19.4317 78.1078 19.4282 78.0951 19.4215L77.8298 19.2685C77.8084 19.2685 77.8115 19.2349 77.8298 19.2196L78.0829 19.0758C78.0954 19.0686 78.1094 19.0646 78.1237 19.064C78.138 19.0635 78.1523 19.0665 78.1652 19.0727Z" fill="#3A2C6D"/>
<path d="M77.7932 18.8585L78.0585 19.0115C78.0799 19.0115 78.0768 19.0451 78.0585 19.0604L77.8054 19.2043C77.7921 19.211 77.7775 19.2145 77.7627 19.2145C77.7478 19.2145 77.7332 19.211 77.72 19.2043L77.4577 19.0513C77.4364 19.036 77.4394 19.0145 77.4577 19.0023L77.7108 18.8554C77.7238 18.8492 77.738 18.8462 77.7524 18.8467C77.7667 18.8473 77.7807 18.8513 77.7932 18.8585Z" fill="#3A2C6D"/>
<path d="M77.4211 18.6416L77.6833 18.7946C77.7047 18.7946 77.7016 18.8282 77.6833 18.8435L77.4332 18.9904C77.4198 18.9965 77.4053 18.9996 77.3906 18.9996C77.3758 18.9996 77.3613 18.9965 77.3479 18.9904L77.0856 18.8374C77.0642 18.8374 77.0673 18.8037 77.0856 18.7884L77.3357 18.6416C77.3491 18.6355 77.3636 18.6323 77.3784 18.6323C77.3931 18.6323 77.4076 18.6355 77.4211 18.6416Z" fill="#3A2C6D"/>
<path d="M77.046 18.4272L77.3113 18.5802C77.3327 18.5802 77.3296 18.6139 77.3113 18.6292L77.0582 18.773C77.0455 18.7797 77.0314 18.7832 77.017 18.7832C77.0027 18.7832 76.9885 18.7797 76.9758 18.773L76.7105 18.62C76.6892 18.62 76.6922 18.5863 76.7105 18.571L76.9636 18.4272C76.9763 18.4205 76.9905 18.417 77.0048 18.417C77.0192 18.417 77.0333 18.4205 77.046 18.4272Z" fill="#3A2C6D"/>
<path d="M76.6739 18.2103L76.9393 18.3633C76.9606 18.3633 76.9576 18.397 76.9393 18.4123L76.6861 18.5592C76.6732 18.5652 76.6592 18.5683 76.6449 18.5683C76.6307 18.5683 76.6167 18.5652 76.6038 18.5592L76.3384 18.4062C76.3171 18.4062 76.3201 18.3725 76.3384 18.3572L76.5916 18.2103C76.6045 18.2043 76.6185 18.2012 76.6327 18.2012C76.647 18.2012 76.661 18.2043 76.6739 18.2103Z" fill="#3A2C6D"/>
<path d="M76.3018 17.9931L76.5641 18.1461C76.5855 18.1461 76.5855 18.1829 76.5641 18.1951L76.314 18.342C76.3008 18.3487 76.2862 18.3522 76.2713 18.3522C76.2565 18.3522 76.2419 18.3487 76.2286 18.342L75.9664 18.189C75.945 18.189 75.9481 18.1553 75.9664 18.14L76.2165 17.9962C76.2294 17.989 76.244 17.985 76.2588 17.9844C76.2736 17.9839 76.2884 17.9869 76.3018 17.9931Z" fill="#3A2C6D"/>
<path d="M75.9389 17.7788L76.2012 17.9318C76.2225 17.9318 76.2195 17.9654 76.2012 17.9807L75.9511 18.1246C75.9381 18.1321 75.9234 18.136 75.9084 18.136C75.8934 18.136 75.8787 18.1321 75.8657 18.1246L75.6034 17.9746C75.5821 17.9746 75.5821 17.9379 75.6034 17.9257L75.8535 17.7788C75.8667 17.7721 75.8814 17.7686 75.8962 17.7686C75.911 17.7686 75.9257 17.7721 75.9389 17.7788Z" fill="#3A2C6D"/>
<path d="M75.5547 17.5609L75.82 17.7139C75.8413 17.7139 75.8383 17.7476 75.82 17.7629L75.5669 17.9097C75.554 17.9158 75.5399 17.9189 75.5257 17.9189C75.5115 17.9189 75.4974 17.9158 75.4845 17.9097L75.2192 17.7567C75.1978 17.7567 75.2009 17.7231 75.2192 17.7078L75.4723 17.5609C75.4852 17.5549 75.4993 17.5518 75.5135 17.5518C75.5277 17.5518 75.5418 17.5549 75.5547 17.5609Z" fill="#3A2C6D"/>
<path d="M75.1826 17.347L75.4449 17.5C75.4693 17.5 75.4662 17.5336 75.4449 17.5459L75.1917 17.6927C75.1785 17.6995 75.1639 17.703 75.149 17.703C75.1342 17.703 75.1196 17.6995 75.1063 17.6927L74.8441 17.5397C74.8227 17.5397 74.8258 17.5061 74.8441 17.4908L75.0941 17.347C75.1078 17.3397 75.1229 17.3359 75.1384 17.3359C75.1538 17.3359 75.169 17.3397 75.1826 17.347Z" fill="#3A2C6D"/>
<path d="M74.8105 17.1359L75.0727 17.2889C75.0941 17.2889 75.091 17.3225 75.0727 17.3378L74.8227 17.4847C74.8092 17.4908 74.7947 17.4939 74.78 17.4939C74.7652 17.4939 74.7507 17.4908 74.7373 17.4847L74.475 17.3317C74.4536 17.3317 74.4567 17.298 74.475 17.2827L74.719 17.1359C74.733 17.1281 74.7487 17.124 74.7647 17.124C74.7807 17.124 74.7965 17.1281 74.8105 17.1359Z" fill="#3A2C6D"/>
<path d="M74.4353 16.9125L74.7007 17.0655C74.722 17.0655 74.719 17.1023 74.7007 17.1145L74.4475 17.2614C74.4348 17.2681 74.4207 17.2716 74.4064 17.2716C74.392 17.2716 74.3779 17.2681 74.3652 17.2614L74.0999 17.1084C74.0785 17.1084 74.0816 17.0747 74.0999 17.0594L74.353 16.9156C74.3654 16.9084 74.3794 16.9044 74.3938 16.9039C74.4081 16.9033 74.4224 16.9063 74.4353 16.9125Z" fill="#3A2C6D"/>
<path d="M78.9124 19.5073L79.4583 19.8133C79.4797 19.8133 79.4766 19.847 79.4583 19.8623L79.2052 20.0091C79.1923 20.0152 79.1782 20.0183 79.164 20.0183C79.1498 20.0183 79.1357 20.0152 79.1228 20.0091L78.5769 19.7031C78.5556 19.7031 78.5586 19.6695 78.5769 19.6542L78.827 19.5104C78.84 19.5032 78.8545 19.4991 78.8693 19.4986C78.8842 19.4981 78.8989 19.501 78.9124 19.5073Z" fill="#3A2C6D"/>
<path d="M79.0863 19.1889L79.3485 19.3419C79.3729 19.3419 79.3699 19.3756 79.3485 19.3878L79.0985 19.5347C79.0852 19.5414 79.0706 19.5449 79.0558 19.5449C79.0409 19.5449 79.0263 19.5414 79.0131 19.5347L78.7508 19.3817C78.7294 19.3817 78.7325 19.3481 78.7508 19.3328L79.0009 19.1889C79.0141 19.1822 79.0287 19.1787 79.0436 19.1787C79.0584 19.1787 79.073 19.1822 79.0863 19.1889Z" fill="#3A2C6D"/>
<path d="M78.7142 18.9717L78.9765 19.1247C78.9978 19.1247 78.9948 19.1583 78.9765 19.1736L78.7264 19.3205C78.713 19.3266 78.6984 19.3297 78.6837 19.3297C78.669 19.3297 78.6544 19.3266 78.641 19.3205L78.3787 19.1675C78.3574 19.1675 78.3604 19.1338 78.3787 19.1185L78.6288 18.9717C78.642 18.9649 78.6567 18.9614 78.6715 18.9614C78.6863 18.9614 78.701 18.9649 78.7142 18.9717Z" fill="#3A2C6D"/>
<path d="M78.3391 18.7548L78.6044 18.9078C78.6258 18.9078 78.6227 18.9446 78.6044 18.9568L78.3513 19.1037C78.3386 19.1104 78.3244 19.1139 78.3101 19.1139C78.2958 19.1139 78.2816 19.1104 78.2689 19.1037L78.0036 18.9507C77.9822 18.9507 77.9853 18.917 78.0036 18.9017L78.2567 18.7579C78.2692 18.7507 78.2832 18.7467 78.2975 18.7462C78.3119 18.7456 78.3261 18.7486 78.3391 18.7548Z" fill="#3A2C6D"/>
<path d="M77.967 18.5405L78.2323 18.6935C78.2537 18.6935 78.2506 18.7271 78.2323 18.7424L77.9792 18.8863C77.9668 18.8938 77.9525 18.8978 77.938 18.8978C77.9235 18.8978 77.9093 18.8938 77.8969 18.8863L77.6315 18.7363C77.6102 18.721 77.6132 18.6996 77.6315 18.6874L77.8847 18.5405C77.8974 18.5338 77.9115 18.5303 77.9258 18.5303C77.9402 18.5303 77.9543 18.5338 77.967 18.5405Z" fill="#3A2C6D"/>
<path d="M77.5949 18.3232L77.8572 18.4762C77.8786 18.4762 77.8786 18.5099 77.8572 18.5252L77.6071 18.672C77.5937 18.6781 77.5792 18.6813 77.5644 18.6813C77.5497 18.6813 77.5352 18.6781 77.5217 18.672L77.2595 18.519C77.2381 18.519 77.2412 18.4854 77.2595 18.4701L77.5095 18.3232C77.523 18.3171 77.5375 18.314 77.5522 18.314C77.567 18.314 77.5815 18.3171 77.5949 18.3232Z" fill="#3A2C6D"/>
<path d="M77.2229 18.1089L77.4852 18.2619C77.5065 18.2619 77.5035 18.2955 77.4852 18.3078L77.2351 18.4546C77.2218 18.4614 77.2072 18.4649 77.1924 18.4649C77.1776 18.4649 77.1629 18.4614 77.1497 18.4546L76.8874 18.3016C76.8661 18.3016 76.8661 18.268 76.8874 18.2527L77.1375 18.1089C77.1507 18.1021 77.1654 18.0986 77.1802 18.0986C77.195 18.0986 77.2096 18.1021 77.2229 18.1089Z" fill="#3A2C6D"/>
<path d="M76.8538 17.892L77.1191 18.045C77.1405 18.045 77.1374 18.0786 77.1191 18.0939L76.866 18.2408C76.8531 18.2468 76.839 18.2499 76.8248 18.2499C76.8106 18.2499 76.7965 18.2468 76.7836 18.2408L76.5183 18.0878C76.497 18.0878 76.5 18.0541 76.5183 18.0388L76.7714 17.892C76.7843 17.8859 76.7984 17.8828 76.8126 17.8828C76.8268 17.8828 76.8409 17.8859 76.8538 17.892Z" fill="#3A2C6D"/>
<path d="M76.4757 17.6743L76.741 17.8273C76.7623 17.8273 76.7593 17.864 76.741 17.8762L76.4879 18.0231C76.4752 18.0298 76.461 18.0333 76.4467 18.0333C76.4323 18.0333 76.4182 18.0298 76.4055 18.0231L76.1402 17.8701C76.1188 17.8701 76.1219 17.8364 76.1402 17.8211L76.3933 17.6773C76.4058 17.6702 76.4198 17.6661 76.4341 17.6656C76.4485 17.6651 76.4627 17.668 76.4757 17.6743Z" fill="#3A2C6D"/>
<path d="M76.1036 17.4601L76.3659 17.6131C76.3872 17.6131 76.3842 17.6467 76.3659 17.662L76.1158 17.8058C76.1026 17.8126 76.0879 17.8161 76.0731 17.8161C76.0583 17.8161 76.0436 17.8126 76.0304 17.8058L75.7681 17.6528C75.7468 17.6528 75.7498 17.6161 75.7681 17.6039L76.0182 17.457C76.0317 17.4508 76.0464 17.4478 76.0613 17.4483C76.0761 17.4488 76.0906 17.4529 76.1036 17.4601Z" fill="#3A2C6D"/>
<path d="M75.7316 17.2431L75.9938 17.3961C76.0152 17.3961 76.0121 17.4298 75.9938 17.4451L75.7438 17.592C75.7303 17.598 75.7158 17.6012 75.7011 17.6012C75.6863 17.6012 75.6718 17.598 75.6584 17.592L75.3961 17.439C75.3717 17.439 75.3747 17.4053 75.3961 17.39L75.6462 17.2431C75.6596 17.237 75.6741 17.2339 75.6889 17.2339C75.7036 17.2339 75.7181 17.237 75.7316 17.2431Z" fill="#3A2C6D"/>
<path d="M75.3564 17.0288L75.6217 17.1818C75.6431 17.1818 75.64 17.2154 75.6217 17.2307L75.3686 17.3745C75.3559 17.3812 75.3418 17.3847 75.3274 17.3847C75.3131 17.3847 75.299 17.3812 75.2863 17.3745L75.0209 17.2215C74.9996 17.2215 75.0026 17.1879 75.0209 17.1756L75.2741 17.0288C75.2868 17.0221 75.3009 17.0186 75.3152 17.0186C75.3296 17.0186 75.3437 17.0221 75.3564 17.0288Z" fill="#3A2C6D"/>
<path d="M74.5239 16.5454L75.2497 16.9646C75.2711 16.9646 75.268 16.9983 75.2497 17.0136L74.9966 17.1604C74.9832 17.1665 74.9686 17.1697 74.9539 17.1697C74.9392 17.1697 74.9246 17.1665 74.9112 17.1604L74.1884 16.7382C74.167 16.7382 74.167 16.7045 74.1884 16.6923L74.4385 16.5454C74.4517 16.5387 74.4663 16.5352 74.4812 16.5352C74.496 16.5352 74.5106 16.5387 74.5239 16.5454Z" fill="#3A2C6D"/>
<path d="M79.4583 19.4037L79.8182 19.6117C79.8395 19.6117 79.8365 19.6485 79.8182 19.6607L79.5681 19.8076C79.5549 19.8143 79.5403 19.8178 79.5254 19.8178C79.5106 19.8178 79.496 19.8143 79.4827 19.8076L79.1229 19.5995C79.1015 19.5995 79.1046 19.5659 79.1229 19.5506L79.376 19.4037C79.3889 19.3977 79.4029 19.3945 79.4172 19.3945C79.4314 19.3945 79.4454 19.3977 79.4583 19.4037Z" fill="#3A2C6D"/>
<path d="M73.063 17.3897L78.3573 20.4497C78.3787 20.4497 78.3787 20.4834 78.3573 20.4987L78.2323 20.5691C78.2196 20.5758 78.2055 20.5793 78.1911 20.5793C78.1768 20.5793 78.1626 20.5758 78.15 20.5691L72.8525 17.5091C72.8312 17.5091 72.8342 17.4754 72.8525 17.4601L72.9776 17.3867C72.9912 17.3811 73.0059 17.3784 73.0206 17.379C73.0353 17.3795 73.0498 17.3832 73.063 17.3897Z" fill="#3A2C6D"/>
<path d="M79.2601 17.5277L79.2235 17.5461L78.3085 18.0785L76.683 17.1361L76.6495 17.1146L77.5979 16.5669L79.2601 17.5277Z" fill="#BFBFBF"/>
<path d="M79.2235 17.5459L78.3086 18.0783L76.683 17.1358L77.598 16.6064L79.2235 17.5459Z" fill="#E5E5E5"/>
<path d="M81.8676 18.7637V18.8463C81.8681 18.9051 81.8531 18.9629 81.8242 19.0139C81.7953 19.0649 81.7535 19.1074 81.703 19.137L78.4763 21.0036C78.426 21.0335 78.3686 21.0493 78.3101 21.0493C78.2516 21.0493 78.1942 21.0335 78.1439 21.0036L72.3067 17.6376C72.2535 17.6069 72.2097 17.5621 72.1801 17.5082C72.1506 17.4542 72.1363 17.3932 72.1389 17.3316V17.249L78.3086 20.8231L81.8676 18.7637Z" fill="#E5E5E5"/>
<path d="M78.2171 20.8751C78.162 20.8969 78.1027 20.906 78.0435 20.9017C77.9844 20.8975 77.927 20.88 77.8755 20.8506L72.081 17.4846C72.0304 17.4554 71.9869 17.4153 71.9536 17.3671C71.9204 17.3189 71.8983 17.2639 71.8888 17.2061L71.2514 13.3995C71.2499 13.3781 71.2499 13.3566 71.2514 13.3352C71.2513 13.2827 71.2617 13.2306 71.2821 13.1822C71.3026 13.1339 71.3326 13.0901 71.3704 13.0537L77.4089 16.5513C77.4453 16.5737 77.4766 16.6035 77.5007 16.6389C77.5249 16.6742 77.5414 16.7142 77.5492 16.7563L78.2171 20.8751Z" fill="#F4F4F4"/>
<path d="M78.3086 20.8263L78.269 20.8508L78.2171 20.8752L77.5279 16.7565C77.5201 16.7144 77.5036 16.6743 77.4794 16.639C77.4553 16.6037 77.424 16.5739 77.3876 16.5515L71.3643 13.0539C71.3866 13.0286 71.4135 13.0078 71.4436 12.9927L77.4943 16.4964C77.5313 16.5185 77.5631 16.5482 77.5878 16.5835C77.6126 16.6188 77.6295 16.659 77.6377 16.7014L78.3086 20.8263Z" fill="#E5E5E5"/>
<path d="M82.6972 4.53809C82.6972 4.53809 82.621 5.98547 82.6545 6.11399C82.6881 6.24251 83.3163 6.66785 83.4993 6.82085C83.6823 6.97385 82.502 8.14277 81.9287 8.40593C81.3553 8.66909 79.5316 7.97447 79.4889 7.07483C79.4462 6.17519 79.7938 5.42549 80.0805 5.38571C80.3672 5.34593 82.6972 4.53809 82.6972 4.53809Z" fill="#FFCEA9"/>
<path d="M82.8558 6.36512C82.8558 6.36512 81.8097 7.93184 80.3489 8.07872C79.8884 7.62278 79.8457 6.00098 80.4831 5.48384C80.4831 5.48384 79.8975 5.00648 79.495 5.10134C79.0589 5.35986 78.7332 5.77059 78.58 6.25496C78.2059 7.33625 78.0313 8.47687 78.0646 9.62096C78.089 11.151 78.0646 15.0402 78.0646 15.0402C78.1503 15.4991 78.3319 15.9345 78.5973 16.318C78.8628 16.7014 79.2061 17.0241 79.6047 17.2648C80.6606 17.8658 81.9056 18.0388 83.0845 17.7483C83.8256 17.5739 84.1001 17.1608 84.3563 16.6192C84.2892 15.5451 83.8653 13.3266 84.0513 11.971C84.2373 10.6155 84.5149 9.60566 84.588 8.51324C84.6612 7.42082 84.4447 7.43918 83.8958 7.0475C83.566 6.7951 83.2184 6.56704 82.8558 6.36512Z" fill="#F4F4F4"/>
<path d="M81.1784 18.8469C81.441 18.6715 81.7151 18.5141 81.9988 18.3757C82.2633 18.291 82.5038 18.1442 82.7003 17.9473C82.9565 17.6964 83.3773 16.7417 83.6792 15.8053C83.9797 14.7552 84.0984 13.6612 84.03 12.5709C83.9049 11.2643 83.4353 9.43743 83.3163 8.68773C83.1974 7.93803 83.4383 7.63509 83.789 7.35969C84.1977 7.03533 84.7619 7.17915 85.0638 8.23179C85.4527 9.68814 85.6777 11.1836 85.7348 12.6902C85.7472 13.8094 85.5751 14.923 85.2255 15.9858C84.9146 16.8963 84.4947 17.7656 83.9751 18.5746C83.8317 18.8163 83.7829 19.0336 83.5634 19.5293C83.3525 20.0274 83.0238 20.4665 82.6057 20.8084C82.2398 21.0716 82.0659 21.1144 81.9775 21.0593C81.889 21.0042 81.8921 20.8788 82.0476 20.7533C82.3073 20.5485 82.5283 20.2988 82.7003 20.0159C82.7003 20.0159 82.38 20.3402 82.1696 20.5177C81.9844 20.6747 81.7793 20.8064 81.5597 20.9094C81.3462 21.0042 81.0473 20.8206 81.1998 20.6768C81.3523 20.533 81.5048 20.4596 81.8097 20.1933C81.9739 20.0537 82.1203 19.8944 82.2459 19.719C82.0313 19.8848 81.8039 20.0332 81.5658 20.1627C81.3819 20.2744 81.1707 20.3326 80.9558 20.331C80.843 20.331 80.7057 20.1658 80.9192 20.025C81.2127 19.8656 81.4861 19.6714 81.7335 19.4467C81.9683 19.2141 82.0995 19.0152 82.0385 19.0122C81.9775 19.0091 81.8433 19.1529 81.5688 19.2417C81.2943 19.3304 80.9985 19.2417 80.9589 19.0979C80.9192 18.954 80.9223 18.9724 81.1784 18.8469Z" fill="#FFCEA9"/>
<path d="M79.4279 2.3777C79.6017 1.25468 80.4099 0.403997 81.5627 0.468257C82.0277 0.491986 82.4734 0.661772 82.837 0.953605C83.2005 1.24544 83.4634 1.64455 83.5885 2.09451C83.7136 2.54446 83.6946 3.02249 83.5341 3.46099C83.3736 3.89949 83.0798 4.27627 82.6942 4.53806C82.6533 4.70868 82.5929 4.87399 82.5142 5.03072C82.1086 5.50808 80.8735 5.81408 80.5136 5.75288C80.3031 5.73369 80.1032 5.65133 79.94 5.51651C79.7768 5.38169 79.6579 5.20068 79.5987 4.99706C79.2144 4.11578 79.3333 2.93462 79.4279 2.3777Z" fill="#FFCEA9"/>
<path d="M82.6972 4.53806L82.5905 3.5558C82.5905 3.5558 83.3895 1.48112 81.5017 1.87892C80.2574 2.14208 79.9433 2.25836 79.5651 1.41992C79.187 0.581481 80.5136 -0.174339 82.1086 0.0368009C82.6553 0.0935126 83.1607 0.354381 83.5245 0.767623C83.8883 1.18086 84.084 1.71626 84.0727 2.26754C84.033 2.88566 83.8683 4.13414 82.6972 4.53806Z" fill="#3A2C6D"/>
<path d="M85.9268 10.1687C85.9268 10.1687 84.896 11.1969 83.6792 10.9001C83.5053 10.7807 83.0845 8.37863 83.0845 8.37863C83.0845 8.37863 83.0845 7.04753 84.1031 7.08119C85.1217 7.11485 85.9268 10.1687 85.9268 10.1687Z" fill="#EDEDED"/>
<path d="M78.15 8.1738C77.8617 8.16339 77.5886 8.04171 77.3876 7.83414C77.4303 7.29558 78.1165 5.2515 79.4949 5.10156C79.12 5.36545 78.8229 5.72593 78.6349 6.14502C78.4204 6.80745 78.2583 7.48581 78.15 8.1738Z" fill="#EDEDED"/>
<path d="M140.106 95.2121L114.634 80.4567C113.033 79.5387 111.737 77.0448 111.737 74.9059V34.6944C111.737 32.5524 113.033 31.5732 114.634 32.4974L140.106 47.2557C141.704 48.1737 143 50.6676 143 52.8066V93.0242C143 95.1662 141.704 96.1392 140.106 95.2121Z" fill="#211B49"/>
<path d="M141.124 95.7992L141.997 95.3677L141.408 94.208L141.124 95.7992Z" fill="#211B49"/>
<path d="M112.213 32.6103C112.469 32.4574 112.739 32.3273 113.018 32.2217L113.664 33.5038L112.213 32.6103Z" fill="#211B49"/>
<path d="M139.438 95.5488L113.963 80.7843C112.365 79.8663 111.069 77.3724 111.069 75.2335V35.0312C111.069 32.8892 112.365 31.9069 113.963 32.8341L139.438 47.5925C141.036 48.5105 142.332 51.0013 142.332 53.1403V93.3517C142.332 95.4907 141.036 96.476 139.438 95.5488Z" fill="#2E245B"/>
<path d="M118.596 41.2184L113.963 38.5348V36.8579L118.596 39.5415V41.2184Z" fill="#A298E2"/>
<path d="M139.148 53.1248L119.465 41.7202V40.0464L139.148 51.448V53.1248Z" fill="#C33AFC"/>
<path d="M118.596 46.5856L113.963 43.902V42.2251L118.596 44.9087V46.5856Z" fill="#A298E2"/>
<path d="M132.491 54.6335L119.465 47.0875V45.4106L132.491 52.9566V54.6335Z" fill="#F4CE2C"/>
<path d="M118.596 49.2661L113.963 46.5856V44.9087L118.596 47.5893V49.2661Z" fill="#A298E2"/>
<path d="M135.674 59.1623L119.465 49.7711V48.0942L135.674 57.4854V59.1623Z" fill="#FF8657"/>
<path d="M118.596 51.9499L113.963 49.2662V47.5894L118.596 50.273V51.9499Z" fill="#A298E2"/>
<path d="M130.755 58.9939L119.465 52.4547V50.7778L130.755 57.3171V58.9939Z" fill="#A298E2"/>
<path d="M118.596 43.902L113.963 41.2184V39.5415L118.596 42.2251V43.902Z" fill="#A298E2"/>
<path d="M129.307 50.1078L119.465 44.4039V42.7271L129.307 48.4278V50.1078Z" fill="#4D3BFF"/>
<path d="M118.596 54.6334L113.963 51.9498V50.2729L118.596 52.9566V54.6334Z" fill="#A298E2"/>
<path d="M125.253 58.4891L119.465 55.1354V53.4585L125.253 56.8123V58.4891Z" fill="#C33AFC"/>
<path d="M118.596 59.9976L113.963 57.317V55.6401L118.596 58.3238V59.9976Z" fill="#A298E2"/>
<path d="M137.703 71.0657L119.465 60.5026V58.8257L137.703 69.3888V71.0657Z" fill="#F4CE2C"/>
<path d="M118.596 62.6813L113.963 59.9977V58.3208L118.596 61.0044V62.6813Z" fill="#A298E2"/>
<path d="M124.964 66.3716L119.465 63.1862V61.5093L124.964 64.6947V66.3716Z" fill="#FF8657"/>
<path d="M118.596 65.3644L113.963 62.6808V61.0039L118.596 63.6875V65.3644Z" fill="#A298E2"/>
<path d="M135.674 75.2573L119.465 65.8662V64.1924L135.674 73.5805V75.2573Z" fill="#A298E2"/>
<path d="M118.596 57.3171L113.963 54.6334V52.9565L118.596 55.6402V57.3171Z" fill="#A298E2"/>
<path d="M134.805 66.7083L119.465 57.819V56.1421L134.805 65.0314V66.7083Z" fill="#4D3BFF"/>
<path d="M118.596 68.0485L113.963 65.3649V63.688L118.596 66.3716V68.0485Z" fill="#A298E2"/>
<path d="M121.49 69.725L119.465 68.5499V66.873L121.49 68.0481V69.725Z" fill="#C33AFC"/>
<path d="M118.596 73.4126L113.963 70.7321V69.0552L118.596 71.7388V73.4126Z" fill="#A298E2"/>
<path d="M123.228 76.0963L119.465 73.9176V72.2407L123.228 74.4194V76.0963Z" fill="#F4CE2C"/>
<path d="M118.596 76.0958L113.963 73.4122V71.7354L118.596 74.419V76.0958Z" fill="#A298E2"/>
<path d="M129.307 82.302L119.465 76.6012V74.9243L129.307 80.6251V82.302Z" fill="#FF8657"/>
<path d="M118.596 78.7799L113.963 76.0963V74.4194L118.596 77.103V78.7799Z" fill="#A298E2"/>
<path d="M135.095 88.339L119.465 79.2814V77.6045L135.095 86.6621V88.339Z" fill="#A298E2"/>
<path d="M118.596 70.7316L113.963 68.048V66.3711L118.596 69.0547V70.7316Z" fill="#A298E2"/>
<path d="M139.148 82.6386L119.465 71.234V69.5571L139.148 80.9587V82.6386Z" fill="#4D3BFF"/>
<path d="M11.0157 64.8534L8.23435 63.4213L2.40627 66.7873C1.08572 67.5523 0.012207 66.9342 0.012207 65.4011V59.0302C0.0572639 58.1966 0.297511 57.3853 0.713464 56.6623C1.12942 55.9392 1.70936 55.3247 2.40627 54.8686L37.1155 34.7552C38.4361 33.9902 39.5096 34.6114 39.5096 36.1414V42.5337C39.4645 43.3673 39.2243 44.1786 38.8083 44.9016C38.3924 45.6247 37.8124 46.2392 37.1155 46.6953L13.7788 60.2022" fill="#B1B4C4"/>
<path d="M38.6404 34.5078L39.9518 35.0403L38.8417 36.1847L38.0549 34.9209L38.6404 34.5078Z" fill="#B1B4C4"/>
<path d="M11.0157 64.8539L12.3973 65.4109L12.4003 64.2175L11.1774 63.9727L11.0157 64.8539Z" fill="#B1B4C4"/>
<path d="M2.32087 67.626C2.37271 67.7362 0.823438 67.0997 0.768542 67.014C0.713647 66.9284 2.64719 65.79 2.64719 65.79L2.32087 67.626Z" fill="#B1B4C4"/>
<path d="M15.1603 60.7562L38.4971 47.2402C39.1935 46.7835 39.773 46.1689 40.1889 45.446C40.6048 44.723 40.8453 43.9121 40.8911 43.0786V36.6985C40.8911 35.1685 39.8176 34.5565 38.4971 35.3093L3.77559 55.4226C3.07902 55.8791 2.49934 56.4937 2.08343 57.2167C1.66752 57.9397 1.42707 58.7507 1.38153 59.5842V65.9643C1.38153 67.4944 2.45504 68.1063 3.77559 67.3505L9.60367 63.9845L12.3972 65.4197L15.1603 60.7562Z" fill="#E9EAF2"/>
<path d="M37.7773 40.8602L4.49536 60.1382V57.9197L37.7773 38.6387V40.8602Z" fill="#8C50FF"/>
<path d="M26.2859 51.4017L4.49536 64.0242V61.8027L26.2859 49.1802V51.4017Z" fill="#8C50FF"/>
</g>
<defs>
<linearGradient id="paint0_linear" x1="97.9725" y1="88.5968" x2="123.445" y2="44.4231" gradientUnits="userSpaceOnUse">
<stop offset="0.21" stop-color="white" stop-opacity="0"/>
<stop offset="1" stop-color="white" stop-opacity="0.2"/>
</linearGradient>
<linearGradient id="paint1_linear" x1="104.537" y1="73.3875" x2="97.6543" y2="85.3242" gradientUnits="userSpaceOnUse">
<stop stop-color="#E9EAF2" stop-opacity="0.8"/>
<stop offset="1" stop-color="#E9EAF2" stop-opacity="0"/>
</linearGradient>
<clipPath id="clip0">
<rect width="143" height="153" fill="white"/>
</clipPath>
</defs>
</svg>
