<svg width="236" height="78" viewBox="0 0 236 78" fill="none" xmlns="http://www.w3.org/2000/svg">
<path opacity="0.5" d="M23.4688 61H18.5469V48.3633H5.83203V61H0.890625V32.5625H5.83203V44.3984H18.5469V32.5625H23.4688V61ZM41.4961 61C41.2878 60.5964 41.1055 59.9388 40.9492 59.0273C39.4388 60.6029 37.5898 61.3906 35.4023 61.3906C33.2799 61.3906 31.5482 60.7852 30.207 59.5742C28.8659 58.3633 28.1953 56.8659 28.1953 55.082C28.1953 52.8294 29.0286 51.1042 30.6953 49.9062C32.375 48.6953 34.7708 48.0898 37.8828 48.0898H40.793V46.7031C40.793 45.6094 40.487 44.737 39.875 44.0859C39.263 43.4219 38.332 43.0898 37.082 43.0898C36.0013 43.0898 35.1159 43.3633 34.4258 43.9102C33.7357 44.444 33.3906 45.1276 33.3906 45.9609H28.6445C28.6445 44.8021 29.0286 43.7214 29.7969 42.7188C30.5651 41.7031 31.6068 40.9089 32.9219 40.3359C34.25 39.763 35.7279 39.4766 37.3555 39.4766C39.8294 39.4766 41.8021 40.1016 43.2734 41.3516C44.7448 42.5885 45.5 44.3333 45.5391 46.5859V56.1172C45.5391 58.0182 45.806 59.5352 46.3398 60.668V61H41.4961ZM36.2812 57.582C37.2188 57.582 38.0977 57.3542 38.918 56.8984C39.7513 56.4427 40.3763 55.8307 40.793 55.0625V51.0781H38.2344C36.4766 51.0781 35.1549 51.3841 34.2695 51.9961C33.3841 52.6081 32.9414 53.474 32.9414 54.5938C32.9414 55.5052 33.2409 56.2344 33.8398 56.7812C34.4518 57.3151 35.2656 57.582 36.2812 57.582ZM55.5586 61H50.8125V31H55.5586V61ZM59.8555 50.2383C59.8555 48.168 60.2656 46.306 61.0859 44.6523C61.9062 42.9857 63.0586 41.7096 64.543 40.8242C66.0273 39.9258 67.7331 39.4766 69.6602 39.4766C72.5117 39.4766 74.8229 40.3945 76.5938 42.2305C78.3776 44.0664 79.3411 46.5013 79.4844 49.5352L79.5039 50.6484C79.5039 52.7318 79.1003 54.5938 78.293 56.2344C77.4987 57.875 76.3529 59.1445 74.8555 60.043C73.3711 60.9414 71.6523 61.3906 69.6992 61.3906C66.7174 61.3906 64.3281 60.401 62.5312 58.4219C60.7474 56.4297 59.8555 53.7799 59.8555 50.4727V50.2383ZM64.6016 50.6484C64.6016 52.8229 65.0508 54.5286 65.9492 55.7656C66.8477 56.9896 68.0977 57.6016 69.6992 57.6016C71.3008 57.6016 72.5443 56.9766 73.4297 55.7266C74.3281 54.4766 74.7773 52.6471 74.7773 50.2383C74.7773 48.1029 74.3151 46.4102 73.3906 45.1602C72.4792 43.9102 71.2357 43.2852 69.6602 43.2852C68.1107 43.2852 66.8802 43.9036 65.9688 45.1406C65.0573 46.3646 64.6016 48.2005 64.6016 50.6484ZM104.523 36.5469H95.6562V61H90.7539V36.5469H81.9648V32.5625H104.523V36.5469ZM117.59 44.2031C116.965 44.099 116.32 44.0469 115.656 44.0469C113.482 44.0469 112.017 44.8802 111.262 46.5469V61H106.516V39.8672H111.047L111.164 42.2305C112.31 40.3945 113.898 39.4766 115.93 39.4766C116.607 39.4766 117.167 39.5677 117.609 39.75L117.59 44.2031ZM132.629 61C132.421 60.5964 132.238 59.9388 132.082 59.0273C130.572 60.6029 128.723 61.3906 126.535 61.3906C124.413 61.3906 122.681 60.7852 121.34 59.5742C119.999 58.3633 119.328 56.8659 119.328 55.082C119.328 52.8294 120.161 51.1042 121.828 49.9062C123.508 48.6953 125.904 48.0898 129.016 48.0898H131.926V46.7031C131.926 45.6094 131.62 44.737 131.008 44.0859C130.396 43.4219 129.465 43.0898 128.215 43.0898C127.134 43.0898 126.249 43.3633 125.559 43.9102C124.868 44.444 124.523 45.1276 124.523 45.9609H119.777C119.777 44.8021 120.161 43.7214 120.93 42.7188C121.698 41.7031 122.74 40.9089 124.055 40.3359C125.383 39.763 126.861 39.4766 128.488 39.4766C130.962 39.4766 132.935 40.1016 134.406 41.3516C135.878 42.5885 136.633 44.3333 136.672 46.5859V56.1172C136.672 58.0182 136.939 59.5352 137.473 60.668V61H132.629ZM127.414 57.582C128.352 57.582 129.23 57.3542 130.051 56.8984C130.884 56.4427 131.509 55.8307 131.926 55.0625V51.0781H129.367C127.609 51.0781 126.288 51.3841 125.402 51.9961C124.517 52.6081 124.074 53.474 124.074 54.5938C124.074 55.5052 124.374 56.2344 124.973 56.7812C125.585 57.3151 126.398 57.582 127.414 57.582ZM148.508 51.9375L146.398 54.1055V61H141.652V31H146.398V48.3047L147.883 46.4492L153.723 39.8672H159.426L151.574 48.6758L160.266 61H154.777L148.508 51.9375Z" fill="#520283"/>
<g opacity="0.5" clip-path="url(#clip0)">
<path d="M216 43.5C216 48.4 214.4 53 211.4 56.8L194.5 78V52.5C199.6 52.5 203.7 48.4 203.7 43.3C203.7 38.2 199.6 34 194.5 34V22C206.3 22 216 31.6 216 43.5Z" fill="#520283"/>
<path d="M185.3 43.2C185.3 48.3 189.4 52.4 194.5 52.4V78L177.6 56.8C174.6 53 173 48.4 173 43.5C173 31.6 182.6 22 194.5 22V34C189.4 34 185.3 38.1 185.3 43.2Z" fill="#520283"/>
<path d="M228 7.5002C229.6 9.1002 230.8 11.0002 231.5 13.2002C232.2 15.3002 232.4 17.6002 232.1 19.9002C232.1 19.9002 232.1 20.9002 233.6 21.0002C235.1 21.1002 235.3 20.3002 235.3 20.3002C235.7 17.6002 235.4 14.8002 234.5 12.2002C233.6 9.6002 232.2 7.2002 230.2 5.3002C228.3 3.4002 225.9 1.9002 223.3 1.0002C220.7 0.100203 217.9 -0.199797 215.2 0.200203C215.2 0.200203 214.3 0.700203 214.4 2.1002C214.5 3.5002 215.6 3.4002 215.6 3.4002C217.9 3.0002 220.2 3.2002 222.3 4.0002C224.5 4.7002 226.4 5.9002 228 7.5002Z" fill="#520283"/>
<path d="M220.8 15.7001C221.8 16.7001 222.5 17.9001 223 19.2001C223.4 20.5001 223.6 21.9001 223.4 23.3001C223.4 23.3001 223.4 23.9001 224.3 24.0001C225.2 24.1001 225.3 23.6001 225.3 23.6001C225.5 21.9001 225.4 20.2001 224.8 18.6001C224.3 17.0001 223.3 15.5001 222.1 14.3001C220.9 13.1001 219.4 12.2001 217.8 11.6001C216.2 11.1001 214.5 10.9001 212.8 11.1001C212.8 11.1001 212.3 11.4001 212.3 12.3001C212.4 13.2001 213 13.1001 213 13.1001C214.4 12.9001 215.8 13.0001 217.1 13.5001C218.7 13.9001 219.9 14.7001 220.8 15.7001Z" fill="#520283"/>
<path d="M215.3 22.2C216 22.9 216.5 23.7 216.8 24.6C217.1 25.5 217.2 26.5 217.1 27.5C217.1 27.5 217.1 27.9 217.8 28C218.4 28 218.5 27.7 218.5 27.7C218.7 26.5 218.5 25.3 218.2 24.2C217.8 23.1 217.2 22.1 216.4 21.2C215.6 20.4 214.6 19.7 213.4 19.4C212.3 19 211.1 18.9 209.9 19.1C209.9 19.1 209.5 19.3 209.6 19.9C209.6 20.5 210.1 20.4 210.1 20.4C211.1 20.3 212 20.4 213 20.7C213.8 21 214.6 21.5 215.3 22.2Z" fill="#520283"/>
</g>
<defs>
<clipPath id="clip0">
<rect width="62.5" height="78" fill="white" transform="translate(173)"/>
</clipPath>
</defs>
</svg>
