<svg width="178" height="101" viewBox="0 0 178 101" fill="none" xmlns="http://www.w3.org/2000/svg">
<path d="M120.055 50.7148L116.832 54.1328V63H111.891V34.5625H116.832V47.9023L119.566 44.5234L127.887 34.5625H133.863L123.297 47.1602L134.469 63H128.609L120.055 50.7148ZM141.715 63H136.969V41.8672H141.715V63ZM136.676 36.3789C136.676 35.6497 136.904 35.0443 137.359 34.5625C137.828 34.0807 138.492 33.8398 139.352 33.8398C140.211 33.8398 140.875 34.0807 141.344 34.5625C141.812 35.0443 142.047 35.6497 142.047 36.3789C142.047 37.0951 141.812 37.694 141.344 38.1758C140.875 38.6445 140.211 38.8789 139.352 38.8789C138.492 38.8789 137.828 38.6445 137.359 38.1758C136.904 37.694 136.676 37.0951 136.676 36.3789ZM157.965 46.2031C157.34 46.099 156.695 46.0469 156.031 46.0469C153.857 46.0469 152.392 46.8802 151.637 48.5469V63H146.891V41.8672H151.422L151.539 44.2305C152.685 42.3945 154.273 41.4766 156.305 41.4766C156.982 41.4766 157.542 41.5677 157.984 41.75L157.965 46.2031ZM173.004 63C172.796 62.5964 172.613 61.9388 172.457 61.0273C170.947 62.6029 169.098 63.3906 166.91 63.3906C164.788 63.3906 163.056 62.7852 161.715 61.5742C160.374 60.3633 159.703 58.8659 159.703 57.082C159.703 54.8294 160.536 53.1042 162.203 51.9062C163.883 50.6953 166.279 50.0898 169.391 50.0898H172.301V48.7031C172.301 47.6094 171.995 46.737 171.383 46.0859C170.771 45.4219 169.84 45.0898 168.59 45.0898C167.509 45.0898 166.624 45.3633 165.934 45.9102C165.243 46.444 164.898 47.1276 164.898 47.9609H160.152C160.152 46.8021 160.536 45.7214 161.305 44.7188C162.073 43.7031 163.115 42.9089 164.43 42.3359C165.758 41.763 167.236 41.4766 168.863 41.4766C171.337 41.4766 173.31 42.1016 174.781 43.3516C176.253 44.5885 177.008 46.3333 177.047 48.5859V58.1172C177.047 60.0182 177.314 61.5352 177.848 62.668V63H173.004ZM167.789 59.582C168.727 59.582 169.605 59.3542 170.426 58.8984C171.259 58.4427 171.884 57.8307 172.301 57.0625V53.0781H169.742C167.984 53.0781 166.663 53.3841 165.777 53.9961C164.892 54.6081 164.449 55.474 164.449 56.5938C164.449 57.5052 164.749 58.2344 165.348 58.7812C165.96 59.3151 166.773 59.582 167.789 59.582Z" fill="#4488EF"/>
<g clip-path="url(#clip0)">
<path d="M13.8306 66.2422L14.2796 65.7707L14.0302 65.1694C6.33721 46.6218 14.0528 25.0372 31.9467 15.5979C41.2068 10.713 51.7869 9.72371 61.7855 12.8164C71.7842 15.9092 79.958 22.6993 84.8429 31.9594C89.7282 41.2205 90.7329 51.8056 87.6405 61.8033C84.5478 71.8019 77.7576 79.9757 68.4975 84.8606C59.0535 89.8425 48.3084 90.6268 38.6263 87.632C32.5994 85.7678 26.9764 82.434 22.3498 77.728L21.9111 77.2817L21.3179 77.4812C15.3111 79.5016 10.289 78.778 7.05041 77.7763C5.84235 77.4026 4.88755 76.9885 4.23104 76.6679C3.14519 76.1367 2.53682 74.9737 2.7133 73.765C2.88759 72.5713 3.80668 71.6453 5.00717 71.4518C8.71522 70.8648 11.7775 68.3979 13.8306 66.2422ZM23.1938 74.8877L23.1963 74.8904C34.4149 87.1874 52.5353 90.3428 67.2744 82.5677C85.1157 73.1561 91.9666 51.0084 82.539 33.1618C73.1434 15.3244 50.9787 8.46916 33.1374 17.8807C16.0622 26.8882 8.92807 47.7016 16.8664 65.271C16.9771 65.5269 17.0028 65.8119 16.9523 66.0756L16.9396 66.1416L16.9359 66.2088C16.9211 66.4773 16.8227 66.7477 16.6205 66.9944C14.5969 69.3312 11.5595 72.1024 7.76945 73.4005L4.86597 74.395L7.79799 75.3019L7.81421 75.3069C10.8329 76.2407 15.6019 76.8859 21.3023 74.745L21.3614 74.7228L21.38 74.713L21.4923 74.6944L21.6359 74.6187C22.1574 74.3436 22.7943 74.4464 23.1938 74.8877Z" fill="#4488EF" stroke="#4488EF" stroke-width="2"/>
<g clip-path="url(#clip1)">
<path d="M66.3957 51.63L61.4815 51.63L61.4815 46.9071L66.3957 46.9071C67.1341 46.9071 67.7327 46.3091 67.7327 45.5705C67.7327 44.8319 67.1341 44.2336 66.3957 44.2336L61.4815 44.2336L61.4815 37.6802C61.4815 36.7236 61.2924 36.0215 60.9198 35.5938C60.5656 35.1869 60.1 34.9976 59.4552 34.9976C58.8398 34.9976 58.3918 35.1856 58.0444 35.5899C57.6761 36.0181 57.4892 36.7215 57.4892 37.6807L57.4892 44.2344L48.2453 44.2344L44.3148 38.2868C43.9785 37.756 43.6622 37.2588 43.355 36.7815C43.0785 36.3517 42.8088 36.0018 42.554 35.7405C42.3285 35.5091 42.0715 35.3301 41.7709 35.1925C41.4872 35.063 41.1266 34.998 40.7 34.998C40.1558 34.998 39.6619 35.1471 39.1889 35.4533C38.7209 35.7563 38.3973 36.1308 38.1997 36.5984C38.0263 37.0428 37.9345 37.7238 37.9345 38.6028L37.9345 44.2339L33.0691 44.2339C32.3309 44.234 31.7327 44.8323 31.7327 45.5709C31.7327 46.3094 32.3309 46.9074 33.0692 46.9074L37.9346 46.9074L37.9346 51.6309L33.0692 51.6309C32.3309 51.6309 31.7327 52.229 31.7327 52.9678C31.7327 53.7062 32.3309 54.3039 33.0692 54.3039L37.9346 54.3039L37.9346 61.7861C37.9346 62.7145 38.1297 63.4095 38.516 63.8511C38.8835 64.2722 39.3493 64.4677 39.982 64.4677C40.5923 64.4677 41.0546 64.2714 41.4379 63.8495C41.8304 63.4173 42.029 62.7227 42.029 61.7862L42.029 54.3039L50.3937 54.3039L54.9202 61.245C55.235 61.7038 55.56 62.1669 55.8841 62.621C56.1765 63.0288 56.4956 63.3881 56.8322 63.6882C57.1353 63.9596 57.4603 64.1586 57.7981 64.2799C58.1459 64.4051 58.5524 64.4686 59.0034 64.4686C60.2276 64.4686 61.4813 64.0939 61.4813 61.3145L61.4813 54.3039L66.3956 54.3039C67.134 54.3039 67.7325 53.7053 67.7325 52.9669C67.7327 52.2286 67.1341 51.63 66.3957 51.63ZM57.4891 46.907L57.4891 51.6299L53.1336 51.6299L50.0128 46.907L57.4891 46.907ZM42.029 41.4802L43.8252 44.2336L42.029 44.2336L42.029 41.4802ZM42.029 51.63L42.029 46.9071L45.5692 46.9071L48.6498 51.63L42.029 51.63ZM57.4891 58.2221L54.9006 54.3039L57.4891 54.3039L57.4891 58.2221Z" fill="#4488EF"/>
</g>
</g>
<defs>
<clipPath id="clip0">
<rect width="80.3181" height="80.3181" fill="white" transform="translate(23.7341) rotate(17.1876)"/>
</clipPath>
<clipPath id="clip1">
<rect width="36" height="36" fill="white" transform="translate(31.7327 31.7329)"/>
</clipPath>
</defs>
</svg>
