<svg width="21" height="23" viewBox="0 0 21 23" fill="none" xmlns="http://www.w3.org/2000/svg">
<path d="M13.101 16.9221C14.9563 13.8449 17.3012 9.51894 17.3012 7.29531C17.3012 3.54434 14.251 0.494141 10.5 0.494141C6.74905 0.494141 3.69885 3.54434 3.69885 7.29531C3.69885 9.51894 6.04377 13.8449 7.89905 16.9221C5.69788 17.0883 0.689087 17.6857 0.689087 19.6668C0.689087 21.6164 5.77424 22.5059 10.5045 22.5059C15.2303 22.5059 20.3199 21.6164 20.3199 19.6668C20.3155 17.6857 15.3022 17.0883 13.101 16.9221ZM4.63772 7.29531C4.63772 4.06094 7.27014 1.42852 10.5 1.42852C13.7344 1.42852 16.3668 4.06094 16.3668 7.29531C16.3668 10.1209 11.8656 17.2096 10.5 19.2939C9.1344 17.2096 4.63772 10.1209 4.63772 7.29531ZM10.5 21.567C4.75452 21.567 1.62346 20.3092 1.62346 19.6623C1.62346 19.1637 3.68987 18.09 8.45159 17.816C9.34553 19.258 10.0239 20.2777 10.1137 20.399C10.235 20.5607 10.5899 20.7539 10.8908 20.399C10.9852 20.2867 11.659 19.258 12.553 17.816C17.3147 18.09 19.3811 19.1592 19.3811 19.6623C19.3766 20.3137 16.2455 21.567 10.5 21.567Z" fill="white"/>
</svg>
