<svg width="588" height="127" viewBox="0 0 588 127" fill="none" xmlns="http://www.w3.org/2000/svg">
<g clip-path="url(#clip0)">
<path d="M82.01 29.41H56.83V37.32H82.01V29.41Z" fill="#009051"/>
<path d="M56.83 86.39C56.83 92.5433 55.4 97.2867 52.54 100.62C51.1261 102.269 49.3566 103.576 47.3646 104.442C45.3727 105.308 43.2102 105.711 41.04 105.62C35.62 105.62 31.6467 104.18 29.12 101.3C26.5933 98.42 25.3367 93.9567 25.35 87.91H0C0 100.057 3.60667 109.447 10.82 116.08C18.0333 122.713 28.1067 126.047 41.04 126.08C48.4144 126.199 55.7061 124.514 62.28 121.17C68.3891 118.039 73.4525 113.195 76.85 107.23C80.376 100.874 82.1563 93.6973 82.01 86.43V42.39H56.83V86.39Z" fill="#009051"/>
<path d="M82.01 16.41H56.83V24.32H82.01V16.41Z" fill="#009051"/>
<path d="M82.01 1H56.83V11.32H82.01V1Z" fill="#009051"/>
<path d="M275.75 26.32C276.22 25.8058 276.728 25.3277 277.27 24.89C280.523 22.3033 285.08 21.0066 290.94 21C297.013 21 301.727 22.5466 305.08 25.64C308.433 28.7333 310.1 33.0667 310.08 38.64H334.08C334.23 31.7546 332.367 24.9751 328.718 19.1341C325.069 13.2931 319.794 8.64482 313.54 5.75998C306.592 2.51876 298.996 0.904517 291.33 1.03998C283.665 0.924958 276.061 2.40638 269 5.38998C262.87 7.88253 257.577 12.0691 253.74 17.46C251.876 20.1658 250.477 23.1637 249.6 26.33L275.75 26.32Z" fill="#009051"/>
<path d="M278.11 45.0601C277.81 44.8501 277.54 44.63 277.26 44.41H249.79C250.649 47.2183 251.92 49.8838 253.56 52.32H294.13C287.13 50.0534 281.79 47.6334 278.11 45.0601Z" fill="#009051"/>
<path d="M272.4 35.12C272.414 33.8583 272.596 32.604 272.94 31.39H248.63C248.502 32.5958 248.435 33.8074 248.43 35.02C248.428 36.451 248.519 37.8806 248.7 39.3H273.21C272.668 37.9734 272.393 36.553 272.4 35.12Z" fill="#009051"/>
<path d="M307.75 57.39H257.75C260.873 60.4509 264.399 63.0717 268.23 65.18C274.537 68.5418 281.134 71.3297 287.94 73.51C296.247 76.33 302 78.9967 305.2 81.51C308.4 84.0233 310 87.66 310 92.42C310.088 94.375 309.697 96.3219 308.86 98.091C308.024 99.8602 306.767 101.398 305.2 102.57C302.013 104.99 297.567 106.2 291.86 106.2C276.527 106.2 268.86 99.49 268.86 86.07H244.83C244.681 93.3957 246.695 100.603 250.62 106.79C254.768 112.997 260.604 117.889 267.44 120.89C275.129 124.384 283.495 126.136 291.94 126.02C304.833 126.02 315.087 123.02 322.7 117.02C330.313 111.02 334.123 102.763 334.13 92.25C334.13 82.7833 331.013 74.8734 324.78 68.52C320.673 64.3867 314.997 60.6767 307.75 57.39Z" fill="#009051"/>
<path d="M387.17 26.86H361.19V34.77H387.17V26.86Z" fill="#009051"/>
<path d="M387.17 13.86H361.19V21.77H387.17V13.86Z" fill="#009051"/>
<path d="M387.17 1H361.19V8.78H387.17V1Z" fill="#009051"/>
<path d="M387.17 105.53V39.87H361.19V126.27H442.33V105.53H387.17Z" fill="#009051"/>
<path d="M508.61 21.77H548.04L545.08 13.87H511.55L508.61 21.77Z" fill="#009051"/>
<path d="M503.77 34.77H527.6L528.3 32.66L529.01 34.77H552.9L549.94 26.86H506.71L503.77 34.77Z" fill="#009051"/>
<path d="M554.81 39.87H530.72L544.05 79.55H512.73L525.91 39.87H501.88L469.71 126.27H497.16L505.76 100.46H551.01L559.7 126.27H587.15L554.81 39.87Z" fill="#009051"/>
<path d="M543.17 8.78L540.26 1H516.34L513.45 8.78H543.17Z" fill="#009051"/>
<path d="M176.08 12.12V72.85C176.08 79.55 170.14 84.97 162.82 84.97C155.5 84.97 149.56 79.55 149.56 72.85V12.12C149.604 9.93333 150.245 7.80028 151.414 5.95145C152.582 4.10262 154.234 2.6083 156.19 1.63C154.91 2.98033 154.194 4.76916 154.19 6.63V64.69C154.19 68.94 157.95 72.38 162.6 72.38C167.25 72.38 171.02 68.94 171.02 64.69V6.64001C171.014 5.61055 170.791 4.59394 170.365 3.65656C169.94 2.71917 169.321 1.8821 168.55 1.20001L168.47 1.14001C169.85 1.72669 171.121 2.54141 172.23 3.55002C173.435 4.63021 174.4 5.95093 175.063 7.42703C175.726 8.90313 176.073 10.5018 176.08 12.12Z" fill="#FF4040"/>
<path d="M160.72 0H160.78V55.75C160.78 56.5457 160.464 57.3087 159.901 57.8713C159.339 58.4339 158.576 58.75 157.78 58.75H157.72V3C157.72 2.20435 158.036 1.44129 158.599 0.87868C159.161 0.31607 159.924 0 160.72 0V0Z" fill="#FF4040"/>
<path d="M163.84 0H163.9C164.696 0 165.459 0.31607 166.021 0.87868C166.584 1.44129 166.9 2.20435 166.9 3V58.75H166.84C166.044 58.75 165.281 58.4339 164.719 57.8713C164.156 57.3087 163.84 56.5457 163.84 55.75V0Z" fill="#FF4040"/>
<path d="M212.11 44.39H211.32C211.495 45.0424 211.586 45.7145 211.59 46.39C211.59 52.19 205.05 56.89 196.99 56.89C195.17 56.8925 193.36 56.6401 191.61 56.14C193.555 60.2862 194.562 64.8102 194.56 69.39C194.56 86.99 179.97 101.26 161.97 101.26C143.97 101.26 129.37 86.99 129.37 69.39C129.381 64.803 130.406 60.2751 132.37 56.13C130.785 56.633 129.133 56.8893 127.47 56.89C120.21 56.89 114.33 52.19 114.33 46.39C114.332 45.7157 114.416 45.0442 114.58 44.39H113.81C110.587 51.9804 108.93 60.1437 108.94 68.39C108.94 100.39 133.12 126.39 162.94 126.39C192.76 126.39 216.94 100.39 216.94 68.39C216.962 60.1464 215.319 51.9832 212.11 44.39Z" fill="#FF4040"/>
</g>
<defs>
<clipPath id="clip0">
<rect width="587.15" height="126.39" fill="white"/>
</clipPath>
</defs>
</svg>
