<svg width="19" height="13" viewBox="0 0 19 13" fill="none" xmlns="http://www.w3.org/2000/svg">
<path d="M12.5052 6.35248L18.1303 1.308C18.3921 1.07005 18.4159 0.665537 18.1779 0.399036C17.94 0.137294 17.5355 0.113499 17.269 0.351447L9.51187 7.31379L7.99852 5.96225C7.99376 5.95749 7.989 5.95273 7.989 5.94797C7.95569 5.91466 7.92238 5.8861 7.88431 5.85755L1.72623 0.346688C1.45973 0.10874 1.05522 0.132535 0.817269 0.399036C0.579321 0.665537 0.603116 1.07005 0.869617 1.308L6.56132 6.39531L0.893412 11.7015C0.636429 11.9442 0.622152 12.3488 0.864858 12.6105C0.99335 12.7437 1.16467 12.8151 1.33599 12.8151C1.49304 12.8151 1.65008 12.758 1.77382 12.6438L7.52739 7.26144L9.08832 8.65581C9.21205 8.76527 9.36434 8.81762 9.51663 8.81762C9.66891 8.81762 9.82596 8.76051 9.94493 8.65105L11.5487 7.21385L17.269 12.6486C17.3927 12.7675 17.5545 12.8247 17.7115 12.8247C17.8829 12.8247 18.0494 12.758 18.1779 12.6248C18.4206 12.3678 18.4111 11.9585 18.1541 11.7158L12.5052 6.35248Z" fill="white"/>
</svg>
