<svg width="232" height="98" viewBox="0 0 232 98" fill="none" xmlns="http://www.w3.org/2000/svg">
<path opacity="0.5" d="M136.938 53.6484C136.938 56.9167 136.195 59.5273 134.711 61.4805C133.227 63.4206 131.234 64.3906 128.734 64.3906C126.417 64.3906 124.561 63.6289 123.168 62.1055V72.125H118.422V42.8672H122.797L122.992 45.0156C124.385 43.3229 126.28 42.4766 128.676 42.4766C131.254 42.4766 133.272 43.4401 134.73 45.3672C136.202 47.2812 136.938 49.944 136.938 53.3555V53.6484ZM132.211 53.2383C132.211 51.1289 131.788 49.4557 130.941 48.2188C130.108 46.9818 128.91 46.3633 127.348 46.3633C125.408 46.3633 124.014 47.1641 123.168 48.7656V58.1406C124.027 59.7812 125.434 60.6016 127.387 60.6016C128.897 60.6016 130.076 59.9961 130.922 58.7852C131.781 57.5612 132.211 55.7122 132.211 53.2383ZM150.277 64.3906C147.27 64.3906 144.828 63.4466 142.953 61.5586C141.091 59.6576 140.16 57.1315 140.16 53.9805V53.3945C140.16 51.2852 140.564 49.4036 141.371 47.75C142.191 46.0833 143.337 44.7878 144.809 43.8633C146.28 42.9388 147.921 42.4766 149.73 42.4766C152.608 42.4766 154.828 43.3945 156.391 45.2305C157.966 47.0664 158.754 49.6641 158.754 53.0234V54.9375H144.945C145.089 56.6823 145.668 58.0625 146.684 59.0781C147.712 60.0938 149.001 60.6016 150.551 60.6016C152.725 60.6016 154.496 59.7227 155.863 57.9648L158.422 60.4062C157.576 61.6693 156.443 62.6523 155.023 63.3555C153.617 64.0456 152.035 64.3906 150.277 64.3906ZM149.711 46.2852C148.409 46.2852 147.354 46.7409 146.547 47.6523C145.753 48.5638 145.245 49.8333 145.023 51.4609H154.066V51.1094C153.962 49.5208 153.539 48.3229 152.797 47.5156C152.055 46.6953 151.026 46.2852 149.711 46.2852ZM184.711 60.3086C183.682 61.6497 182.257 62.6654 180.434 63.3555C178.611 64.0456 176.54 64.3906 174.223 64.3906C171.84 64.3906 169.73 63.8503 167.895 62.7695C166.059 61.6888 164.639 60.1458 163.637 58.1406C162.647 56.1224 162.133 53.7721 162.094 51.0898V48.8633C162.094 44.5664 163.122 41.2135 165.18 38.8047C167.237 36.3828 170.108 35.1719 173.793 35.1719C176.957 35.1719 179.47 35.9531 181.332 37.5156C183.194 39.0781 184.314 41.3307 184.691 44.2734H179.848C179.301 40.849 177.315 39.1367 173.891 39.1367C171.677 39.1367 169.991 39.9375 168.832 41.5391C167.686 43.1276 167.094 45.4648 167.055 48.5508V50.7383C167.055 53.8112 167.699 56.2005 168.988 57.9062C170.29 59.599 172.094 60.4453 174.398 60.4453C176.924 60.4453 178.721 59.8724 179.789 58.7266V53.1602H173.93V49.4102H184.711V60.3086ZM200.746 47.2031C200.121 47.099 199.477 47.0469 198.812 47.0469C196.638 47.0469 195.173 47.8802 194.418 49.5469V64H189.672V42.8672H194.203L194.32 45.2305C195.466 43.3945 197.055 42.4766 199.086 42.4766C199.763 42.4766 200.323 42.5677 200.766 42.75L200.746 47.2031ZM208.793 64H204.047V42.8672H208.793V64ZM203.754 37.3789C203.754 36.6497 203.982 36.0443 204.438 35.5625C204.906 35.0807 205.57 34.8398 206.43 34.8398C207.289 34.8398 207.953 35.0807 208.422 35.5625C208.891 36.0443 209.125 36.6497 209.125 37.3789C209.125 38.0951 208.891 38.694 208.422 39.1758C207.953 39.6445 207.289 39.8789 206.43 39.8789C205.57 39.8789 204.906 39.6445 204.438 39.1758C203.982 38.694 203.754 38.0951 203.754 37.3789ZM213.09 53.2773C213.09 50.0221 213.845 47.4115 215.355 45.4453C216.866 43.4661 218.891 42.4766 221.43 42.4766C223.669 42.4766 225.479 43.2578 226.859 44.8203V34H231.605V64H227.309L227.074 61.8125C225.655 63.5312 223.76 64.3906 221.391 64.3906C218.917 64.3906 216.911 63.3945 215.375 61.4023C213.852 59.4102 213.09 56.7018 213.09 53.2773ZM217.836 53.6875C217.836 55.8359 218.246 57.5156 219.066 58.7266C219.9 59.9245 221.078 60.5234 222.602 60.5234C224.542 60.5234 225.961 59.6576 226.859 57.9258V48.9023C225.987 47.2096 224.581 46.3633 222.641 46.3633C221.104 46.3633 219.919 46.9753 219.086 48.1992C218.253 49.4102 217.836 51.2396 217.836 53.6875Z" fill="#F8CD1A"/>
<g opacity="0.5" clip-path="url(#clip0)">
<path d="M45.9963 97.4862L88.0396 32.3997C88.9915 30.926 87.6415 29.1126 85.7634 29.3423L57.7973 32.7599L64.4792 1.21959C64.7045 0.156328 63.1798 -0.452918 62.453 0.40975L21.1151 49.4691C19.911 50.8979 21.186 52.9297 23.1689 52.7421L54.0014 49.8241L43.8936 96.7776C43.6498 97.9102 45.3519 98.4838 45.9963 97.4862Z" fill="#F4CE2C"/>
<path d="M34.0423 45.9931C33.2701 46.0486 32.7573 45.2897 33.1677 44.6992L64.075 0.238172C63.6151 -0.0889413 62.8913 -0.109996 62.453 0.410246L21.1151 49.4696C19.911 50.8986 21.186 52.9302 23.1689 52.7426L54.0014 49.8246L43.8936 96.7781C43.7573 97.4115 44.2325 97.8571 44.7879 97.9637L62.1085 48.6867C62.9205 46.377 60.872 44.0631 58.1864 44.2564L34.0423 45.9931Z" fill="#F4CE2C"/>
<ellipse cx="78.5" cy="61" rx="23.5" ry="22" fill="white"/>
<g clip-path="url(#clip1)">
<path d="M78 50.0352L63.0209 62.3839C63.0209 62.4013 63.0165 62.4269 63.0078 62.4619C62.9992 62.4965 62.9946 62.5217 62.9946 62.5396V75.044C62.9946 75.4955 63.1597 75.8867 63.4897 76.2162C63.8197 76.5459 64.2104 76.7118 64.662 76.7118H74.6652V66.708H81.3349V76.7121H91.338C91.7895 76.7121 92.1808 76.5466 92.5103 76.2162C92.8403 75.8871 93.0059 75.4956 93.0059 75.044V62.5396C93.0059 62.4703 92.9964 62.4179 92.9796 62.3839L78 50.0352Z" fill="#F4CE2C"/>
<path d="M98.7102 59.5703L93.0054 54.829V44.2001C93.0054 43.9571 92.9273 43.7573 92.7705 43.6009C92.615 43.4447 92.4152 43.3666 92.1717 43.3666H87.17C86.9267 43.3666 86.727 43.4447 86.5705 43.6009C86.4144 43.7573 86.3363 43.9572 86.3363 44.2001V49.28L79.98 43.9654C79.4249 43.5138 78.7648 43.2881 78.0005 43.2881C77.2364 43.2881 76.5764 43.5138 76.0207 43.9654L57.2894 59.5703C57.1158 59.709 57.0206 59.8957 57.0029 60.1302C56.9853 60.3645 57.046 60.5691 57.1851 60.7427L58.8003 62.6705C58.9394 62.8267 59.1215 62.9223 59.3474 62.9572C59.5559 62.9747 59.7644 62.9138 59.9729 62.7749L78 47.743L96.0273 62.7748C96.1666 62.896 96.3486 62.9565 96.5744 62.9565H96.6527C96.8782 62.9222 97.0599 62.826 97.1998 62.6702L98.8151 60.7426C98.954 60.5687 99.0149 60.3644 98.9968 60.1298C98.979 59.8959 98.8835 59.7092 98.7102 59.5703Z" fill="#F4CE2C"/>
</g>
</g>
<defs>
<clipPath id="clip0">
<rect width="109" height="98" fill="white"/>
</clipPath>
<clipPath id="clip1">
<rect width="42" height="42" fill="white" transform="translate(57 39)"/>
</clipPath>
</defs>
</svg>
