<svg width="233" height="210" viewBox="0 0 233 210" fill="none" xmlns="http://www.w3.org/2000/svg">
<g clip-path="url(#clip0)">
<path d="M226.609 19.0884H219.475C220.416 17.5992 221.037 15.9277 221.214 14.1599C221.78 8.51012 218.804 3.44551 213.739 1.20012C209.083 -0.863809 203.85 -0.0200904 200.082 3.39728L191.075 11.5608C189.321 9.6421 186.799 8.43624 184 8.43624C181.196 8.43624 178.67 9.64592 176.916 11.5705L167.897 3.39632C164.123 -0.0210473 158.892 -0.861512 154.238 1.20127C149.174 3.44685 146.198 8.51318 146.766 14.1627C146.943 15.9292 147.564 17.6 148.504 19.0884H141.391C137.861 19.0884 135 21.9499 135 25.4796V35.0666C135 36.8314 136.431 38.2623 138.196 38.2623H229.804C231.569 38.2623 233 36.8315 233 35.0666V25.4796C233 21.9499 230.139 19.0884 226.609 19.0884ZM174.413 18.0232V19.0884H159.379C155.407 19.0884 152.281 15.3854 153.273 11.2499C153.71 9.42868 155.025 7.87618 156.725 7.09027C159.06 6.01112 161.646 6.35757 163.607 8.13248L174.416 17.929C174.415 17.9606 174.413 17.9916 174.413 18.0232ZM214.873 13.3114C214.635 16.6328 211.634 19.0888 208.304 19.0888H193.587V18.0236C193.587 17.9859 193.585 17.9486 193.584 17.9108C196.033 15.6913 201.344 10.877 204.225 8.26569C205.863 6.78172 208.154 6.08902 210.271 6.72066C213.31 7.62716 215.095 10.2115 214.873 13.3114Z" fill="white"/>
<path d="M190.391 44.6533V97.9142H220.217C223.747 97.9142 226.608 95.0529 226.608 91.523V44.6533H190.391Z" fill="white"/>
<path fill-rule="evenodd" clip-rule="evenodd" d="M141.392 68V44.6533H177.609V97.9142H167V68H141.392Z" fill="white"/>
</g>
<path d="M40.0456 208.442C41.3932 209.68 43.5871 209.694 44.9523 208.468L61.8081 193.336C64.6717 190.727 65.5425 186.863 64.2832 183.505L67.9089 180.318C69.861 178.6 72.4312 177.653 75.1481 177.653H121.367C129.566 177.653 137.316 174.784 143.192 169.573C143.434 169.359 141.357 171.589 174.723 135.249C179.672 129.914 178.931 121.902 173.071 117.388C167.247 112.915 158.523 113.558 153.561 118.801L133.046 138.016C130.455 135.111 126.505 133.299 122.236 133.299H83.4673C77.9506 131.196 72.097 130.132 66.0573 130.132C49.3157 130.132 34.6974 137.178 26.8523 150.389C23.5471 149.818 20.0613 150.729 17.5536 153.014L1.01443 168.13C-0.335876 169.364 -0.338593 171.361 1.009 172.599L40.0456 208.442ZM66.056 136.467C71.3811 136.467 76.5296 137.444 81.3617 139.37C81.8018 139.546 82.2759 139.636 82.7555 139.636H122.236C126.006 139.636 129.19 142.438 129.19 145.972C129.19 149.466 126.071 152.309 122.236 152.309H93.8703C91.9508 152.309 90.3941 153.727 90.3941 155.476C90.3941 157.227 91.9508 158.644 93.8703 158.644H122.236C129.905 158.644 136.143 152.96 136.143 145.972C136.143 145.415 136.099 144.863 136.021 144.316C155.866 125.726 158.665 123.114 158.784 122.984C161.262 120.319 165.661 119.981 168.587 122.229C171.516 124.486 171.886 128.492 169.402 131.172L138.219 165.142C133.665 169.125 127.686 171.318 121.367 171.318H75.1481C70.619 171.318 66.3317 172.896 63.0796 175.759L60.1249 178.358L32.8879 153.539C39.2536 142.657 51.1985 136.467 66.056 136.467ZM22.474 157.492C23.6205 156.447 25.3811 156.259 26.7789 157.046C27.3807 157.38 25.6527 155.947 56.8918 184.374C58.2815 185.64 58.2068 187.658 56.9108 188.839L42.5411 201.739L8.37998 170.372L22.474 157.492Z" fill="white"/>
<g clip-path="url(#clip1)">
<path d="M137.36 108.607C136.958 108.111 136.543 107.609 136.127 107.113C136.635 106.101 137.024 105.033 137.283 103.933C137.924 103.82 138.564 103.701 139.187 103.58C140.236 103.375 140.991 102.414 140.944 101.344C140.944 101.344 140.944 101.344 140.944 101.344L140.807 98.2228C140.76 97.1527 139.923 96.2616 138.859 96.1501C138.228 96.0836 137.58 96.0218 136.932 95.9656C136.576 94.8926 136.095 93.8622 135.5 92.8997C135.873 92.3672 136.242 91.8306 136.597 91.3034C137.194 90.417 137.049 89.2031 136.259 88.4796L133.955 86.37C133.165 85.6465 131.942 85.6082 131.112 86.2812C130.617 86.6821 130.115 87.0966 129.618 87.5141C128.607 87.0061 127.538 86.6173 126.438 86.3574C126.325 85.7164 126.207 85.0764 126.085 84.454C125.881 83.4048 124.919 82.6493 123.849 82.6965L120.728 82.834C119.658 82.8812 118.767 83.7183 118.656 84.7813C118.589 85.4147 118.527 86.0626 118.471 86.7085C117.398 87.0641 116.368 87.5454 115.405 88.1404C114.872 87.7667 114.335 87.398 113.809 87.0436C112.922 86.4461 111.708 86.5921 110.985 87.382L108.876 89.6861C108.152 90.4763 108.114 91.6984 108.787 92.5286C109.188 93.0234 109.602 93.5256 110.02 94.0223C109.512 95.0335 109.123 96.1021 108.863 97.2022C108.224 97.315 107.584 97.4337 106.959 97.5553C105.911 97.7598 105.155 98.721 105.202 99.7913L105.34 102.912C105.387 103.982 106.223 104.874 107.287 104.985C107.918 105.051 108.566 105.113 109.214 105.17C109.57 106.242 110.051 107.273 110.646 108.235C110.273 108.768 109.904 109.305 109.549 109.832C108.952 110.718 109.097 111.932 109.888 112.655L112.192 114.765C112.406 114.961 112.651 115.107 112.912 115.202C113.615 115.457 114.429 115.344 115.035 114.854C115.526 114.456 116.028 114.042 116.528 113.621C117.539 114.129 118.608 114.518 119.708 114.778C119.82 115.414 119.939 116.054 120.061 116.681C120.266 117.731 121.227 118.486 122.297 118.439L125.418 118.301C126.488 118.254 127.38 117.417 127.491 116.354C127.557 115.726 127.619 115.078 127.675 114.427C128.748 114.071 129.779 113.59 130.741 112.995C131.273 113.368 131.81 113.736 132.338 114.092C133.224 114.689 134.438 114.543 135.161 113.753L137.271 111.449C137.994 110.659 138.032 109.437 137.36 108.607ZM133.53 112.088C133.023 111.746 132.509 111.392 132 111.035C131.278 110.529 130.332 110.503 129.59 110.97C128.736 111.506 127.818 111.934 126.861 112.244C126.027 112.514 125.44 113.255 125.364 114.133C125.311 114.757 125.252 115.378 125.189 115.981L122.321 116.108C122.204 115.505 122.091 114.892 121.984 114.282C121.832 113.414 121.181 112.728 120.327 112.532C119.346 112.307 118.394 111.961 117.497 111.503C116.714 111.103 115.776 111.212 115.102 111.779C114.623 112.182 114.142 112.58 113.671 112.963L111.553 111.024C111.894 110.518 112.248 110.004 112.606 109.494C113.112 108.773 113.137 107.827 112.671 107.084C112.135 106.231 111.706 105.312 111.397 104.355C111.127 103.521 110.386 102.934 109.508 102.859C108.887 102.805 108.266 102.747 107.659 102.684L107.533 99.8151C108.133 99.6988 108.747 99.5857 109.359 99.4782C110.227 99.326 110.913 98.6759 111.109 97.8217C111.333 96.8408 111.68 95.8885 112.138 94.9912C112.537 94.2102 112.429 93.2701 111.862 92.5961C111.461 92.1206 111.063 91.6396 110.678 91.1645L112.617 89.0467C113.122 89.3879 113.636 89.7418 114.147 90.1002C114.868 90.606 115.814 90.6313 116.557 90.165C117.41 89.6291 118.328 89.2004 119.286 88.8907C120.119 88.6209 120.707 87.8795 120.782 87.0019C120.835 86.3832 120.894 85.762 120.957 85.1533L123.826 85.027C123.941 85.6252 124.055 86.2389 124.162 86.8531C124.315 87.7206 124.965 88.4082 125.819 88.6028C126.799 88.827 127.752 89.1732 128.65 89.6323C129.431 90.0318 130.371 89.9228 131.045 89.3556C131.52 88.9553 132.001 88.5574 132.476 88.1716L134.594 90.1107C134.252 90.6167 133.898 91.1309 133.54 91.6408C133.034 92.3618 133.009 93.3079 133.475 94.0507C134.011 94.9041 134.44 95.8223 134.75 96.7796C135.019 97.6132 135.761 98.2004 136.638 98.276C137.259 98.3292 137.88 98.388 138.487 98.4508L138.613 101.319C138.014 101.436 137.401 101.549 136.787 101.656C135.92 101.809 135.233 102.459 135.037 103.313C134.813 104.293 134.467 105.246 134.008 106.144C133.609 106.925 133.717 107.865 134.285 108.538C134.684 109.013 135.082 109.494 135.469 109.97L133.53 112.088Z" fill="white"/>
<path d="M130.999 100.218C130.999 100.218 130.999 100.218 130.999 100.218C130.806 95.8486 127.095 92.4501 122.725 92.6424C118.355 92.8351 114.956 96.5468 115.149 100.917C115.242 103.034 116.154 104.987 117.717 106.418C118.498 107.134 119.396 107.676 120.362 108.027C121.329 108.378 122.364 108.539 123.423 108.493C127.793 108.3 131.191 104.588 130.999 100.218ZM123.32 106.167C121.825 106.233 120.393 105.713 119.289 104.702C118.185 103.691 117.54 102.31 117.474 100.814C117.338 97.7266 119.74 95.1039 122.827 94.9679C123.583 94.9346 124.311 95.0533 124.982 95.2971C127.05 96.0489 128.571 97.9893 128.674 100.321C128.81 103.408 126.408 106.031 123.32 106.167Z" fill="white"/>
<path d="M162.66 88.8642C162.303 88.6704 161.935 88.4746 161.563 88.2805C161.604 87.5544 161.572 86.8243 161.467 86.1037C161.82 85.878 162.169 85.6504 162.508 85.4256C163.262 84.9258 163.542 83.9298 163.158 83.1089L162.198 81.0517C161.815 80.2305 160.872 79.8051 160.005 80.0623C159.613 80.1785 159.214 80.3002 158.816 80.425C158.331 79.8816 157.792 79.3881 157.209 78.9532C157.299 78.5436 157.385 78.1359 157.466 77.7379C157.646 76.8516 157.139 75.9497 156.288 75.6401L154.154 74.8644C153.302 74.5548 152.335 74.9209 151.903 75.7156C151.71 76.0724 151.514 76.4404 151.32 76.8121C150.593 76.771 149.863 76.8032 149.143 76.9086C148.918 76.5571 148.69 76.2076 148.465 75.8672C147.965 75.1132 146.969 74.8338 146.148 75.2171L144.091 76.1773C143.27 76.5605 142.844 77.5033 143.101 78.3708C143.217 78.761 143.339 79.1599 143.464 79.5593C142.921 80.044 142.427 80.5829 141.992 81.166C141.583 81.0763 141.175 80.99 140.777 80.9093C139.891 80.7295 138.989 81.236 138.679 82.0877L137.903 84.2215C137.594 85.0732 137.96 86.0406 138.755 86.472C139.112 86.6658 139.48 86.8617 139.851 87.0558C139.81 87.782 139.842 88.512 139.947 89.2325C139.595 89.4581 139.246 89.6855 138.906 89.9107C138.152 90.4103 137.873 91.4065 138.256 92.2272L139.217 94.2846C139.6 95.1058 140.543 95.5311 141.41 95.274C141.801 95.158 142.2 95.0362 142.598 94.9114C143.083 95.4548 143.622 95.9484 144.205 96.3831C144.115 96.7925 144.029 97.2004 143.948 97.5986C143.769 98.4848 144.275 99.3868 145.127 99.6963L147.261 100.472C148.112 100.782 149.08 100.416 149.511 99.6207C149.705 99.2636 149.901 98.8957 150.095 98.5241C150.821 98.5653 151.551 98.5329 152.272 98.4276C152.496 98.7791 152.724 99.1285 152.95 99.469C153.449 100.223 154.445 100.502 155.266 100.119L157.324 99.1589C158.145 98.7758 158.57 97.8328 158.313 96.9655C158.197 96.5748 158.076 96.1759 157.95 95.7771C158.494 95.2924 158.987 94.7536 159.422 94.1704C159.832 94.2601 160.239 94.3463 160.638 94.4271C161.524 94.6069 162.426 94.1003 162.735 93.2486L163.511 91.1148C163.821 90.2631 163.455 89.2956 162.66 88.8642ZM160.765 92.1961C160.404 92.1212 160.037 92.0423 159.669 91.9605C158.942 91.7987 158.195 92.0848 157.765 92.6893C157.354 93.2681 156.871 93.7954 156.33 94.2563C155.765 94.7374 155.546 95.5072 155.771 96.2176C155.884 96.5757 155.995 96.935 156.102 97.2889L154.618 97.9818C154.414 97.672 154.21 97.3561 154.009 97.0399C153.609 96.411 152.878 96.0853 152.146 96.2091C151.445 96.328 150.731 96.3596 150.024 96.3031C149.284 96.244 148.585 96.6332 148.242 97.2944C148.069 97.6287 147.893 97.9611 147.719 98.2859L146.179 97.7262C146.254 97.3653 146.333 96.9979 146.415 96.6306C146.577 95.9033 146.291 95.1559 145.686 94.7265C145.107 94.3155 144.58 93.8327 144.119 93.2914C143.638 92.7263 142.868 92.5064 142.158 92.7318C141.8 92.8451 141.441 92.9561 141.086 93.0629L140.394 91.5786C140.703 91.3755 141.018 91.1716 141.336 90.9698C141.964 90.5698 142.29 89.8387 142.166 89.1071C142.047 88.4062 142.016 87.6919 142.072 86.9844C142.131 86.2451 141.742 85.5459 141.081 85.203C140.747 85.0296 140.414 84.8543 140.089 84.6797L140.649 83.1403C141.01 83.2152 141.377 83.294 141.745 83.3759C142.472 83.5377 143.22 83.2516 143.649 82.647C144.06 82.0683 144.543 81.5411 145.084 81.08C145.649 80.5989 145.869 79.8291 145.644 79.1189C145.53 78.7603 145.419 78.4011 145.312 78.0475L146.797 77.3546C147 77.6644 147.204 77.9802 147.405 78.2964C147.805 78.9252 148.536 79.2513 149.268 79.1273C149.969 79.0084 150.683 78.9769 151.391 79.0333C152.13 79.0924 152.829 78.7032 153.172 78.042C153.345 77.7077 153.521 77.3754 153.695 77.0506L155.235 77.6103C155.16 77.9712 155.081 78.3385 154.999 78.7059C154.837 79.4332 155.124 80.1806 155.728 80.6099C156.307 81.021 156.834 81.504 157.295 82.0452C157.776 82.6103 158.546 82.8296 159.256 82.6046C159.614 82.4914 159.973 82.3803 160.328 82.2735L161.021 83.7578C160.712 83.9606 160.396 84.1647 160.079 84.3667C159.45 84.7665 159.124 85.4976 159.248 86.2292C159.367 86.9303 159.399 87.6446 159.342 88.352C159.283 89.0913 159.672 89.7904 160.333 90.1334C160.668 90.3068 161 90.4822 161.325 90.6567L160.765 92.1961Z" fill="white"/>
<path d="M152.317 83.239C149.875 82.3512 147.166 83.6157 146.278 86.0579C145.39 88.5003 146.655 91.2093 149.097 92.0971C151.539 92.9849 154.248 91.7204 155.136 89.278C156.024 86.8358 154.759 84.1268 152.317 83.239ZM149.813 90.1282C148.456 89.6351 147.754 88.1302 148.247 86.7735C148.74 85.4169 150.245 84.7145 151.602 85.2076C152.958 85.7008 153.66 87.2057 153.167 88.5623C152.674 89.9189 151.169 90.6214 149.813 90.1282Z" fill="white"/>
</g>
<defs>
<clipPath id="clip0">
<rect width="98" height="98" fill="white" transform="translate(135)"/>
</clipPath>
<clipPath id="clip1">
<rect width="52" height="52" fill="white" transform="translate(118.766 62) rotate(19.9773)"/>
</clipPath>
</defs>
</svg>
