<svg width="22" height="22" viewBox="0 0 22 22" fill="none" xmlns="http://www.w3.org/2000/svg">
<path d="M18.1779 13.2474C17.7071 12.7571 17.1391 12.495 16.5372 12.495C15.9401 12.495 15.3673 12.7523 14.877 13.2425L13.3431 14.7717C13.2168 14.7037 13.0906 14.6406 12.9693 14.5775C12.7945 14.4901 12.6295 14.4076 12.4887 14.3202C11.0518 13.4076 9.74601 12.2183 8.4936 10.6795C7.88682 9.91249 7.47905 9.26686 7.18294 8.61153C7.58099 8.24746 7.94992 7.86882 8.30914 7.50475C8.44506 7.36883 8.58098 7.22805 8.7169 7.09213C9.73631 6.07273 9.73631 4.75235 8.7169 3.73295L7.39168 2.40772C7.24119 2.25724 7.08585 2.1019 6.94023 1.94656C6.64897 1.6456 6.34315 1.33492 6.02762 1.04366C5.55675 0.577648 4.99365 0.330078 4.40142 0.330078C3.8092 0.330078 3.23639 0.577648 2.75096 1.04366C2.7461 1.04852 2.7461 1.04852 2.74125 1.05337L1.09078 2.7184C0.469434 3.33975 0.115069 4.09702 0.0374003 4.97565C-0.0791031 6.39311 0.338367 7.71348 0.658752 8.57755C1.44515 10.6989 2.61989 12.6649 4.3723 14.7717C6.49848 17.3105 9.0567 19.3153 11.979 20.7279C13.0955 21.257 14.5858 21.8832 16.2508 21.99C16.3527 21.9949 16.4595 21.9997 16.5566 21.9997C17.678 21.9997 18.6197 21.5968 19.3575 20.7958C19.3624 20.7861 19.3721 20.7813 19.377 20.7716C19.6294 20.4658 19.9206 20.1891 20.2265 19.8929C20.4352 19.6939 20.6488 19.4852 20.8575 19.2667C21.3381 18.7667 21.5905 18.1842 21.5905 17.5872C21.5905 16.9852 21.3332 16.4076 20.843 15.9221L18.1779 13.2474ZM19.9158 18.359C19.9109 18.359 19.9109 18.3638 19.9158 18.359C19.7265 18.5629 19.5323 18.7473 19.3236 18.9512C19.008 19.2522 18.6876 19.5677 18.3867 19.9221C17.8964 20.4463 17.3187 20.6939 16.5615 20.6939C16.4886 20.6939 16.411 20.6939 16.3382 20.6891C14.8964 20.5968 13.5566 20.0337 12.5518 19.5531C9.80427 18.2231 7.39168 16.3347 5.38685 13.9416C3.73153 11.9464 2.62475 10.1018 1.89175 8.12125C1.4403 6.91252 1.27525 5.97079 1.34806 5.08245C1.39661 4.51449 1.61505 4.04363 2.01796 3.64072L3.67328 1.9854C3.91114 1.7621 4.16356 1.64074 4.41113 1.64074C4.71695 1.64074 4.96452 1.82521 5.11986 1.98054C5.12471 1.9854 5.12957 1.99025 5.13442 1.99511C5.43054 2.2718 5.71209 2.55821 6.0082 2.86403C6.15868 3.01937 6.31402 3.1747 6.46936 3.3349L7.79458 4.66012C8.30914 5.17468 8.30914 5.6504 7.79458 6.16496C7.65381 6.30573 7.51789 6.44651 7.37711 6.58243C6.96935 6.9999 6.58101 7.38824 6.15868 7.76688C6.14897 7.77659 6.13927 7.78144 6.13441 7.79115C5.71694 8.20862 5.79461 8.61638 5.88199 8.89308C5.88684 8.90764 5.8917 8.92221 5.89655 8.93677C6.24121 9.77171 6.72664 10.5581 7.46449 11.495L7.46935 11.4998C8.80913 13.1503 10.2217 14.4367 11.78 15.4221C11.979 15.5483 12.1829 15.6503 12.377 15.7474C12.5518 15.8347 12.7169 15.9173 12.8576 16.0046C12.877 16.0144 12.8965 16.0289 12.9159 16.0386C13.0809 16.1211 13.2363 16.16 13.3965 16.16C13.7994 16.16 14.0518 15.9076 14.1343 15.825L15.7945 14.1649C15.9595 13.9998 16.2217 13.8008 16.5275 13.8008C16.8284 13.8008 17.076 13.9901 17.2265 14.1552C17.2314 14.16 17.2314 14.16 17.2362 14.1649L19.9109 16.8396C20.4109 17.3347 20.4109 17.8444 19.9158 18.359Z" fill="white"/>
</svg>
